SplineFontDB: 3.0
FontName: BethEllen-Regular
FullName: Beth Ellen Regular
FamilyName: Beth Ellen
Weight: Regular
Copyright: Copyright 2019 The Beth Ellen Project Authors (https://github.com/googlefonts/BethEllen)
Version: 2.000
ItalicAngle: 0
UnderlinePosition: -299
UnderlineWidth: 99
Ascent: 1600
Descent: 400
InvalidEm: 0
LayerCount: 2
Layer: 0 1 "Back" 1
Layer: 1 1 "Fore" 0
XUID: [1021 238 798099342 8365353]
StyleMap: 0x0040
FSType: 0
OS2Version: 3
OS2_WeightWidthSlopeOnly: 0
OS2_UseTypoMetrics: 0
CreationTime: 1555518701
ModificationTime: 1557460510
PfmFamily: 65
TTFWeight: 400
TTFWidth: 5
LineGap: 0
VLineGap: 0
Panose: 0 0 0 0 0 0 0 0 0 0
OS2TypoAscent: 3250
OS2TypoAOffset: 0
OS2TypoDescent: -1190
OS2TypoDOffset: 0
OS2TypoLinegap: 0
OS2WinAscent: 3224
OS2WinAOffset: 0
OS2WinDescent: 946
OS2WinDOffset: 0
HheadAscent: 3250
HheadAOffset: 0
HheadDescent: -1190
HheadDOffset: 0
OS2SubXSize: 1300
OS2SubYSize: 1398
OS2SubXOff: 0
OS2SubYOff: 280
OS2SupXSize: 1300
OS2SupYSize: 1398
OS2SupXOff: 0
OS2SupYOff: 958
OS2StrikeYSize: 98
OS2StrikeYPos: 516
OS2CapHeight: 2248
OS2XHeight: 1208
OS2Vendor: 'RJST'
OS2CodePages: 00000001.00000000
OS2UnicodeRanges: 80000027.1000000b.00000000.00000000
Lookup: 1 0 0 "'aalt' Access All Alternates lookup 0" { "'aalt' Access All Alternates lookup 0 subtable"  } ['aalt' ('DFLT' <'dflt' > ) ]
Lookup: 3 0 0 "'aalt' Access All Alternates lookup 1" { "'aalt' Access All Alternates lookup 1 subtable"  } ['aalt' ('DFLT' <'dflt' > ) ]
Lookup: 4 0 1 "'liga' Standard Ligatures lookup 2" { "'liga' Standard Ligatures lookup 2 subtable"  } ['liga' ('DFLT' <'dflt' > ) ]
MarkAttachClasses: 1
DEI: 91125
LangName: 1033 "" "" "" "" "" "Version 2.000" "" "" "" "Alyson Diaz" "" "" "robjelinskistudios.com" "This Font Software is licensed under the SIL Open Font License, Version 1.1. This license is available with a FAQ at: http://scripts.sil.org/OFL" "http://scripts.sil.org/OFL"
GaspTable: 1 65535 15 1
Encoding: Custom
UnicodeInterp: none

StartChar: .notdef
Encoding: 0 -1 0
AltUni2: 000000.ffffffff.0
Width: 863
Flags: MW
LayerCount: 2
Fore
SplineSet
125.5 81 m 1,0,-1
 53.375 110.69921875 l 1,1,-1
 680.5 1527 l 1,2,-1
 752.625 1497.30078125 l 1,3,-1
 125.5 81 l 1,0,-1
766.086914062 108.188476562 m 1,4,-1
 695.5 75 l 1,5,-1
 63.9130859375 1496.81152344 l 5,6,-1
 134.5 1530 l 5,7,-1
 766.086914062 108.188476562 l 1,4,-1
106 1482 m 1,8,-1
 106 147 l 1,9,-1
 715.000030518 147 l 1,10,-1
 715 1482 l 1,11,-1
 106 1482 l 1,8,-1
28.0000305176 1560 m 1,12,-1
 793.000030518 1560 l 1,13,-1
 793.000030518 57 l 1,14,-1
 28.0000305176 57 l 1,15,-1
 28.0000305176 1560 l 1,12,-1
EndSplineSet
EndChar

StartChar: exclam
Encoding: 33 33 6
Width: 1311
GlyphClass: 2
Flags: MW
LayerCount: 2
Fore
SplineSet
251 -112 m 128,-1,1
 210 -28 210 -28 262 66 c 0,2,3
 284 112 284 112 326 100 c 0,4,5
 336 100 336 100 378 90 c 0,6,7
 420 78 420 78 444 76 c 0,8,9
 504 62 504 62 549 8 c 128,-1,10
 594 -46 594 -46 578 -90 c 0,11,12
 560 -130 560 -130 500 -163 c 128,-1,13
 440 -196 440 -196 390 -196 c 0,14,0
 292 -196 292 -196 251 -112 c 128,-1,1
820 1810 m 0,15,16
 834 1888 834 1888 874 1894 c 1,17,18
 922 1912 922 1912 935 1910 c 128,-1,19
 948 1908 948 1908 958 1888 c 0,20,21
 972 1864 972 1864 1030 1864 c 0,22,23
 1076 1864 1076 1864 1105 1856 c 128,-1,24
 1134 1848 1134 1848 1157 1826 c 128,-1,25
 1180 1804 1180 1804 1198 1766 c 0,26,27
 1224 1720 1224 1720 1224 1700 c 128,-1,28
 1224 1680 1224 1680 1198 1638 c 0,29,30
 1160 1576 1160 1576 1124 1424 c 0,31,32
 1086 1268 1086 1268 1042 1178 c 0,33,34
 1002 1100 1002 1100 982 1016 c 0,35,36
 944 830 944 830 804 638 c 0,37,38
 726 540 726 540 716 426 c 0,39,40
 706 322 706 322 681 287 c 128,-1,41
 656 252 656 252 594 252 c 0,42,43
 508 252 508 252 455 324 c 128,-1,44
 402 396 402 396 460 440 c 0,45,46
 498 474 498 474 508 544 c 0,47,48
 520 598 520 598 572 764 c 0,49,50
 606 872 606 872 706 1288 c 0,51,52
 806 1706 806 1706 820 1810 c 0,15,16
EndSplineSet
EndChar

StartChar: quotedbl
Encoding: 34 34 7
Width: 1111
GlyphClass: 2
Flags: MW
LayerCount: 2
Fore
SplineSet
390 1490 m 128,-1,1
 392 1464 392 1464 422 1430 c 0,2,3
 472 1370 472 1370 462 1330 c 128,-1,4
 452 1290 452 1290 376 1230 c 2,5,-1
 282 1160 l 1,6,7
 250 1160 250 1160 190 1198 c 128,-1,8
 130 1236 130 1236 120 1258 c 0,9,10
 24 1522 24 1522 198 1764 c 0,11,12
 244 1828 244 1828 280 1840 c 128,-1,13
 316 1852 316 1852 372 1820 c 0,14,15
 414 1794 414 1794 425 1729 c 128,-1,16
 436 1664 436 1664 408 1578 c 0,17,0
 388 1516 388 1516 390 1490 c 128,-1,1
984 1430 m 0,18,19
 1034 1370 1034 1370 1024 1330 c 128,-1,20
 1014 1290 1014 1290 936 1230 c 2,21,-1
 842 1160 l 1,22,23
 812 1160 812 1160 751 1198 c 128,-1,24
 690 1236 690 1236 682 1258 c 0,25,26
 586 1522 586 1522 760 1764 c 0,27,28
 806 1828 806 1828 842 1840 c 128,-1,29
 878 1852 878 1852 934 1820 c 0,30,31
 976 1794 976 1794 987 1729 c 128,-1,32
 998 1664 998 1664 970 1578 c 0,33,34
 950 1516 950 1516 952 1490 c 128,-1,35
 954 1464 954 1464 984 1430 c 0,18,19
EndSplineSet
EndChar

StartChar: numbersign
Encoding: 35 35 8
Width: 1881
GlyphClass: 2
Flags: MW
LayerCount: 2
Fore
SplineSet
1306 1318 m 0,0,1
 1344 1406 1344 1406 1344 1442 c 0,2,3
 1344 1492 1344 1492 1414 1570 c 0,4,5
 1496 1662 1496 1662 1526 1580 c 0,6,7
 1540 1540 1540 1540 1432 1246 c 0,8,9
 1324 958 1324 958 1314 896 c 0,10,11
 1310 860 1310 860 1358 852 c 0,12,13
 1404 846 1404 846 1660 860 c 0,14,15
 1742 862 1742 862 1775 837 c 128,-1,16
 1808 812 1808 812 1782 768 c 0,17,18
 1764 742 1764 742 1714 733 c 128,-1,19
 1664 724 1664 724 1512 724 c 0,20,21
 1276 724 1276 724 1253 701 c 128,-1,22
 1230 678 1230 678 1222 620 c 0,23,24
 1216 576 1216 576 1234 568 c 128,-1,25
 1252 560 1252 560 1346 554 c 0,26,27
 1482 546 1482 546 1522 502 c 0,28,29
 1616 398 1616 398 1418 398 c 2,30,-1
 1350 398 l 1,31,32
 1188 408 1188 408 1151 378 c 128,-1,33
 1114 348 1114 348 1038 118 c 0,34,35
 996 -6 996 -6 959 -92 c 128,-1,36
 922 -178 922 -178 894 -217 c 128,-1,37
 866 -256 866 -256 846 -244 c 0,38,39
 784 -208 784 -208 872 8 c 0,40,41
 984 294 984 294 990 354 c 0,42,43
 990 358 990 358 974 358 c 2,44,-1
 938 358 l 1,45,-1
 886 358 l 2,46,47
 856 358 856 358 824 354 c 0,48,49
 790 352 790 352 762 350 c 128,-1,50
 734 348 734 348 708 344 c 0,51,52
 684 342 684 342 670 338 c 0,53,54
 626 328 626 328 597 297 c 128,-1,55
 568 266 568 266 526 182 c 0,56,57
 462 48 462 48 428 32 c 0,58,59
 388 22 388 22 380 74 c 0,60,61
 378 126 378 126 404 206 c 0,62,63
 428 280 428 280 426 300 c 128,-1,64
 424 320 424 320 398 328 c 0,65,66
 312 354 312 354 282 374 c 128,-1,67
 252 394 252 394 260 426 c 0,68,69
 266 466 266 466 374 472 c 0,70,71
 478 482 478 482 506 502 c 0,72,73
 528 524 528 524 542 584 c 128,-1,74
 556 644 556 644 542 654 c 0,75,76
 526 664 526 664 374 640 c 0,77,78
 218 620 218 620 192 648 c 0,79,80
 80 738 80 738 326 782 c 0,81,82
 380 792 380 792 452 800 c 2,83,-1
 612 816 l 1,84,-1
 660 928 l 2,85,86
 710 1036 710 1036 714 1112 c 0,87,88
 724 1204 724 1204 790 1264 c 128,-1,89
 856 1324 856 1324 906 1284 c 0,90,91
 926 1268 926 1268 921 1237 c 128,-1,92
 916 1206 916 1206 882 1120 c 0,93,94
 828 988 828 988 812 904 c 2,95,-1
 794 832 l 1,96,97
 1040 842 1040 842 1166 846 c 1,98,-1
 1216 1034 l 2,99,100
 1266 1220 1266 1220 1306 1318 c 0,0,1
1073 599 m 128,-1,102
 1112 668 1112 668 1094 692 c 0,103,104
 1084 708 1084 708 929 711 c 128,-1,105
 774 714 774 714 734 698 c 0,106,107
 704 692 704 692 704 648 c 0,108,109
 704 606 704 606 676 580 c 0,110,111
 654 554 654 554 666 526 c 0,112,113
 680 506 680 506 815 503 c 128,-1,114
 950 500 950 500 1000 516 c 0,115,101
 1034 530 1034 530 1073 599 c 128,-1,102
EndSplineSet
EndChar

StartChar: dollar
Encoding: 36 36 9
Width: 1877
GlyphClass: 2
Flags: MW
LayerCount: 2
Fore
SplineSet
1180 1702 m 0,0,1
 1130 1664 1130 1664 1130 1596 c 0,2,3
 1130 1554 1130 1554 1080 1448 c 128,-1,4
 1030 1342 1030 1342 1030 1308 c 0,5,6
 1030 1252 1030 1252 998 1240 c 0,7,8
 974 1228 974 1228 970 1213 c 128,-1,9
 966 1198 966 1198 980 1179 c 128,-1,10
 994 1160 994 1160 1028 1133 c 128,-1,11
 1062 1106 1062 1106 1122 1066 c 0,12,13
 1350 910 1350 910 1467 709 c 128,-1,14
 1584 508 1584 508 1514 390 c 0,15,16
 1474 318 1474 318 1318 265 c 128,-1,17
 1162 212 1162 212 966 204 c 0,18,19
 764 194 764 194 725 154 c 128,-1,20
 686 114 686 114 682 -92 c 0,21,22
 678 -216 678 -216 650 -241 c 128,-1,23
 622 -266 622 -266 530 -236 c 2,24,-1
 444 -208 l 1,25,26
 490 290 490 290 490 292 c 2,27,-1
 390 364 l 2,28,29
 302 420 302 420 293 487 c 128,-1,30
 284 554 284 554 358 614 c 0,31,32
 402 652 402 652 418 652 c 128,-1,33
 434 652 434 652 480 614 c 0,34,35
 536 568 536 568 554 596 c 0,36,37
 576 626 576 626 632 842 c 2,38,-1
 692 1076 l 1,39,-1
 618 1142 l 1,40,41
 536 1228 536 1228 497 1403 c 128,-1,42
 458 1578 458 1578 504 1684 c 0,43,44
 522 1726 522 1726 696 1847 c 128,-1,45
 870 1968 870 1968 910 1968 c 0,46,47
 974 1968 974 1968 1025 2044 c 128,-1,48
 1076 2120 1076 2120 1084 2226 c 0,49,50
 1102 2358 1102 2358 1164 2436 c 128,-1,51
 1226 2514 1226 2514 1328 2438 c 0,52,53
 1364 2416 1364 2416 1366 2376 c 0,54,55
 1368 2338 1368 2338 1350 2226 c 0,56,57
 1326 2086 1326 2086 1314 2032 c 0,58,59
 1304 2010 1304 2010 1428 1914 c 0,60,61
 1538 1820 1538 1820 1602 1710 c 0,62,63
 1634 1642 1634 1642 1634 1617 c 128,-1,64
 1634 1592 1634 1592 1602 1562 c 0,65,66
 1588 1550 1588 1550 1546 1534 c 0,67,68
 1506 1520 1506 1520 1458 1509 c 128,-1,69
 1410 1498 1410 1498 1364 1494 c 256,70,71
 1318 1490 1318 1490 1288 1492 c 256,72,73
 1258 1494 1258 1494 1258 1505 c 128,-1,74
 1258 1516 1258 1516 1296 1582 c 0,75,76
 1322 1616 1322 1616 1320 1638 c 128,-1,77
 1318 1660 1318 1660 1282 1688 c 0,78,79
 1250 1718 1250 1718 1229 1722 c 128,-1,80
 1208 1726 1208 1726 1180 1702 c 0,0,1
1208 706 m 0,81,82
 1158 762 1158 762 1080 812 c 0,83,84
 956 888 956 888 930 898 c 1,85,86
 888 898 888 898 847 836 c 128,-1,87
 806 774 806 774 806 720 c 0,88,89
 806 640 806 640 760 530 c 0,90,91
 714 432 714 432 732 406 c 1,92,93
 788 360 788 360 989 404 c 128,-1,94
 1190 448 1190 448 1258 524 c 0,95,96
 1282 558 1282 558 1270 605 c 128,-1,97
 1258 652 1258 652 1208 706 c 0,81,82
802 1430 m 0,98,99
 828 1430 828 1430 846 1490 c 0,100,101
 856 1528 856 1528 849 1543 c 128,-1,102
 842 1558 842 1558 824 1547 c 128,-1,103
 806 1536 806 1536 792 1502 c 0,104,105
 774 1456 774 1456 776 1443 c 128,-1,106
 778 1430 778 1430 802 1430 c 0,98,99
EndSplineSet
EndChar

StartChar: percent
Encoding: 37 37 10
Width: 1629
GlyphClass: 2
Flags: MW
LayerCount: 2
Fore
SplineSet
1354 1484 m 0,0,1
 1360 1482 1360 1482 1368 1479 c 128,-1,2
 1376 1476 1376 1476 1383 1469 c 128,-1,3
 1390 1462 1390 1462 1397 1455 c 128,-1,4
 1404 1448 1404 1448 1415 1438 c 128,-1,5
 1426 1428 1426 1428 1436 1420 c 1,6,7
 1380 1368 1380 1368 1326 1312 c 128,-1,8
 1272 1256 1272 1256 1219 1194 c 128,-1,9
 1166 1132 1166 1132 1123 1081 c 128,-1,10
 1080 1030 1080 1030 1026 959 c 128,-1,11
 972 888 972 888 938 843 c 128,-1,12
 904 798 904 798 848 718 c 128,-1,13
 792 638 792 638 765 599 c 128,-1,14
 738 560 738 560 678 472 c 128,-1,15
 618 384 618 384 594 352 c 0,16,17
 494 206 494 206 348 62 c 0,18,19
 296 14 296 14 268 5 c 128,-1,20
 240 -4 240 -4 210 17 c 128,-1,21
 180 38 180 38 122 108 c 1,22,23
 144 134 144 134 192 185 c 128,-1,24
 240 236 240 236 277 278 c 128,-1,25
 314 320 314 320 344 360 c 0,26,27
 678 784 678 784 1144 1384 c 0,28,29
 1230 1494 1230 1494 1354 1484 c 0,0,1
1396 770 m 1,30,31
 1528 736 1528 736 1542 685 c 128,-1,32
 1556 634 1556 634 1462 506 c 0,33,34
 1426 458 1426 458 1430 444 c 0,35,36
 1438 412 1438 412 1438 381 c 128,-1,37
 1438 350 1438 350 1434 325 c 128,-1,38
 1430 300 1430 300 1419 272 c 128,-1,39
 1408 244 1408 244 1397 223 c 128,-1,40
 1386 202 1386 202 1367 175 c 128,-1,41
 1348 148 1348 148 1334 130 c 128,-1,42
 1320 112 1320 112 1298 86 c 0,43,44
 1288 74 1288 74 1280 58 c 128,-1,45
 1272 42 1272 42 1267 24 c 128,-1,46
 1262 6 1262 6 1260 2 c 0,47,48
 1246 6 1246 6 1220 15 c 128,-1,49
 1194 24 1194 24 1174 29 c 128,-1,50
 1154 34 1154 34 1136 34 c 0,51,52
 1068 38 1068 38 1026 75 c 128,-1,53
 984 112 984 112 976 172 c 0,54,55
 950 378 950 378 976 510 c 0,56,57
 980 528 980 528 994 547 c 128,-1,58
 1008 566 1008 566 1033 584 c 128,-1,59
 1058 602 1058 602 1075 614 c 128,-1,60
 1092 626 1092 626 1122 642 c 0,61,62
 1156 664 1156 664 1197 683 c 128,-1,63
 1238 702 1238 702 1300 728 c 128,-1,64
 1362 754 1362 754 1396 770 c 1,30,31
1138 228 m 1,65,66
 1186 246 1186 246 1213 285 c 128,-1,67
 1240 324 1240 324 1247 362 c 128,-1,68
 1254 400 1254 400 1267 448 c 128,-1,69
 1280 496 1280 496 1300 524 c 1,70,71
 1234 502 1234 502 1197 485 c 128,-1,72
 1160 468 1160 468 1134 447 c 128,-1,73
 1108 426 1108 426 1106 395 c 128,-1,74
 1104 364 1104 364 1111 327 c 128,-1,75
 1118 290 1118 290 1138 228 c 1,65,66
578 952 m 0,76,77
 534 866 534 866 452 835 c 128,-1,78
 370 804 370 804 252 802 c 0,79,80
 156 798 156 798 111 857 c 128,-1,81
 66 916 66 916 102 1000 c 0,82,83
 164 1142 164 1142 326 1346 c 0,84,85
 408 1448 408 1448 596 1404 c 1,86,87
 632 1370 632 1370 655 1336 c 128,-1,88
 678 1302 678 1302 683 1267 c 128,-1,89
 688 1232 688 1232 687 1204 c 128,-1,90
 686 1176 686 1176 671 1138 c 128,-1,91
 656 1100 656 1100 645 1077 c 128,-1,92
 634 1054 634 1054 611 1013 c 128,-1,93
 588 972 588 972 578 952 c 0,76,77
472 1150 m 1,94,95
 440 1152 440 1152 424 1153 c 128,-1,96
 408 1154 408 1154 387 1151 c 128,-1,97
 366 1148 366 1148 357 1145 c 128,-1,98
 348 1142 348 1142 334 1130 c 128,-1,99
 320 1118 320 1118 314 1109 c 128,-1,100
 308 1100 308 1100 296 1075 c 128,-1,101
 284 1050 284 1050 277 1029 c 128,-1,102
 270 1008 270 1008 254 968 c 1,103,104
 318 966 318 966 361 982 c 128,-1,105
 404 998 404 998 433 1039 c 128,-1,106
 462 1080 462 1080 472 1150 c 1,94,95
EndSplineSet
EndChar

StartChar: ampersand
Encoding: 38 38 11
Width: 1643
GlyphClass: 2
Flags: MW
LayerCount: 2
Fore
SplineSet
760 480 m 0,0,1
 782 450 782 450 809 419 c 128,-1,2
 836 388 836 388 879 340 c 128,-1,3
 922 292 922 292 952 258 c 1,4,5
 964 292 964 292 979 332 c 128,-1,6
 994 372 994 372 1006 402 c 128,-1,7
 1018 432 1018 432 1029 463 c 128,-1,8
 1040 494 1040 494 1049 523 c 128,-1,9
 1058 552 1058 552 1062 580 c 0,10,11
 1080 706 1080 706 1035 744 c 128,-1,12
 990 782 990 782 848 768 c 1,13,14
 826 884 826 884 932 908 c 0,15,16
 934 910 934 910 950 910 c 0,17,18
 984 912 984 912 1015 911 c 128,-1,19
 1046 910 1046 910 1081 909 c 128,-1,20
 1116 908 1116 908 1146 909 c 128,-1,21
 1176 910 1176 910 1209 914 c 128,-1,22
 1242 918 1242 918 1270 926 c 0,23,24
 1298 936 1298 936 1326 949 c 128,-1,25
 1354 962 1354 962 1382 981 c 128,-1,26
 1410 1000 1410 1000 1436 1018 c 128,-1,27
 1462 1036 1462 1036 1496 1060 c 128,-1,28
 1530 1084 1530 1084 1558 1102 c 1,29,30
 1554 1040 1554 1040 1533 993 c 128,-1,31
 1512 946 1512 946 1477 917 c 128,-1,32
 1442 888 1442 888 1409 870 c 128,-1,33
 1376 852 1376 852 1330 831 c 128,-1,34
 1284 810 1284 810 1262 796 c 1,35,36
 1136 322 1136 322 1088 136 c 1,37,38
 1110 118 1110 118 1161 82 c 128,-1,39
 1212 46 1212 46 1242 21 c 128,-1,40
 1272 -4 1272 -4 1301 -56 c 128,-1,41
 1330 -108 1330 -108 1334 -172 c 1,42,43
 1310 -166 1310 -166 1270 -158 c 128,-1,44
 1230 -150 1230 -150 1203 -142 c 128,-1,45
 1176 -134 1176 -134 1154 -122 c 0,46,47
 1148 -118 1148 -118 1136 -112 c 0,48,49
 1080 -82 1080 -82 1051 -69 c 128,-1,50
 1022 -56 1022 -56 974 -43 c 128,-1,51
 926 -30 926 -30 879 -38 c 128,-1,52
 832 -46 832 -46 774 -72 c 0,53,54
 648 -122 648 -122 511 -105 c 128,-1,55
 374 -88 374 -88 238 -18 c 0,56,57
 148 28 148 28 109 117 c 128,-1,58
 70 206 70 206 98 306 c 0,59,60
 152 512 152 512 244 680 c 0,61,62
 320 816 320 816 258 950 c 0,63,64
 190 1092 190 1092 170 1200 c 0,65,66
 136 1374 136 1374 227 1534 c 128,-1,67
 318 1694 318 1694 484 1752 c 0,68,69
 530 1768 530 1768 585 1752 c 128,-1,70
 640 1736 640 1736 686 1693 c 128,-1,71
 732 1650 732 1650 754 1592 c 0,72,73
 864 1308 864 1308 700 1062 c 0,74,75
 692 1050 692 1050 676 1028 c 0,76,77
 636 968 636 968 619 942 c 128,-1,78
 602 916 602 916 580 877 c 128,-1,79
 558 838 558 838 552 826 c 128,-1,80
 546 814 546 814 543 786 c 128,-1,81
 540 758 540 758 544 750 c 128,-1,82
 548 742 548 742 561 717 c 128,-1,83
 574 692 574 692 587 679 c 128,-1,84
 600 666 600 666 628 634 c 0,85,86
 708 548 708 548 760 480 c 0,0,1
858 106 m 1,87,88
 772 202 772 202 612 376 c 128,-1,89
 452 550 452 550 410 594 c 1,90,91
 394 556 394 556 366 499 c 128,-1,92
 338 442 338 442 323 405 c 128,-1,93
 308 368 308 368 300 334 c 0,94,95
 276 230 276 230 323 158 c 128,-1,96
 370 86 370 86 478 48 c 0,97,98
 516 36 516 36 552 33 c 128,-1,99
 588 30 588 30 627 38 c 128,-1,100
 666 46 666 46 696 54 c 128,-1,101
 726 62 726 62 776 79 c 128,-1,102
 826 96 826 96 858 106 c 1,87,88
432 1004 m 1,103,104
 548 1174 548 1174 565 1303 c 128,-1,105
 582 1432 582 1432 506 1558 c 1,106,107
 338 1470 338 1470 319 1322 c 128,-1,108
 300 1174 300 1174 432 1004 c 1,103,104
EndSplineSet
EndChar

StartChar: parenleft
Encoding: 40 40 12
Width: 891
GlyphClass: 2
Flags: MW
LayerCount: 2
Fore
SplineSet
378 1406 m 256,0,1
 408 1464 408 1464 448 1511 c 128,-1,2
 488 1558 488 1558 542 1593 c 128,-1,3
 596 1628 596 1628 646 1653 c 128,-1,4
 696 1678 696 1678 766 1704 c 1,5,6
 852 1600 852 1600 748 1528 c 0,7,8
 702 1496 702 1496 660 1456 c 128,-1,9
 618 1416 618 1416 587 1382 c 128,-1,10
 556 1348 556 1348 520 1294 c 128,-1,11
 484 1240 484 1240 464 1209 c 128,-1,12
 444 1178 444 1178 412 1112 c 128,-1,13
 380 1046 380 1046 367 1019 c 128,-1,14
 354 992 354 992 321 918 c 128,-1,15
 288 844 288 844 278 822 c 0,16,17
 198 642 198 642 269 495 c 128,-1,18
 340 348 340 348 556 238 c 0,19,20
 562 234 562 234 589 221 c 128,-1,21
 616 208 616 208 625 203 c 128,-1,22
 634 198 634 198 655 184 c 128,-1,23
 676 170 676 170 684 160 c 128,-1,24
 692 150 692 150 705 134 c 128,-1,25
 718 118 718 118 723 99 c 128,-1,26
 728 80 728 80 730 58 c 1,27,28
 562 -56 562 -56 404 56 c 0,29,30
 192 206 192 206 117 471 c 128,-1,31
 42 736 42 736 146 968 c 0,32,33
 184 1052 184 1052 266 1200 c 128,-1,34
 348 1348 348 1348 378 1406 c 256,0,1
EndSplineSet
EndChar

StartChar: parenright
Encoding: 41 41 13
Width: 911
GlyphClass: 2
Flags: MW
LayerCount: 2
Fore
SplineSet
414 1534 m 0,0,1
 392 1566 392 1566 356 1595 c 128,-1,2
 320 1624 320 1624 264 1659 c 128,-1,3
 208 1694 208 1694 180 1716 c 1,4,5
 244 1826 244 1826 284 1838 c 128,-1,6
 324 1850 324 1850 408 1790 c 0,7,8
 528 1702 528 1702 599 1598 c 128,-1,9
 670 1494 670 1494 688 1354 c 0,10,11
 696 1286 696 1286 743 1163 c 128,-1,12
 790 1040 790 1040 798 1012 c 0,13,14
 834 888 834 888 824 826 c 0,15,16
 766 464 766 464 536 260 c 0,17,18
 502 228 502 228 418 157 c 128,-1,19
 334 86 334 86 290 46 c 0,20,21
 238 -4 238 -4 188 1 c 128,-1,22
 138 6 138 6 86 72 c 1,23,24
 118 112 118 112 180 194 c 128,-1,25
 242 276 242 276 293 339 c 128,-1,26
 344 402 344 402 392 456 c 0,27,28
 532 610 532 610 575 803 c 128,-1,29
 618 996 618 996 574 1180 c 128,-1,30
 530 1364 530 1364 414 1534 c 0,0,1
EndSplineSet
EndChar

StartChar: asterisk
Encoding: 42 42 14
Width: 1269
GlyphClass: 2
Flags: MW
LayerCount: 2
Fore
SplineSet
266 1262 m 1,0,1
 250 1278 250 1278 212 1286 c 128,-1,2
 174 1294 174 1294 144 1301 c 128,-1,3
 114 1308 114 1308 96 1341 c 128,-1,4
 78 1374 78 1374 92 1434 c 1,5,6
 136 1438 136 1438 211 1443 c 128,-1,7
 286 1448 286 1448 322 1450 c 1,8,9
 312 1494 312 1494 313 1526 c 128,-1,10
 314 1558 314 1558 327 1590 c 128,-1,11
 340 1622 340 1622 356 1645 c 128,-1,12
 372 1668 372 1668 395 1695 c 128,-1,13
 418 1722 418 1722 439 1744 c 128,-1,14
 460 1766 460 1766 483 1795 c 128,-1,15
 506 1824 506 1824 520 1852 c 1,16,17
 544 1838 544 1838 601 1806 c 128,-1,18
 658 1774 658 1774 690 1754 c 1,19,20
 630 1606 630 1606 602 1538 c 1,21,22
 656 1566 656 1566 711 1573 c 128,-1,23
 766 1580 766 1580 812 1573 c 128,-1,24
 858 1566 858 1566 907 1552 c 128,-1,25
 956 1538 956 1538 998 1523 c 128,-1,26
 1040 1508 1040 1508 1090 1497 c 128,-1,27
 1140 1486 1140 1486 1184 1488 c 1,28,29
 1184 1454 1184 1454 1182 1438 c 1,30,31
 1130 1428 1130 1428 978 1398 c 128,-1,32
 826 1368 826 1368 724 1348 c 1,33,34
 854 1226 854 1226 864 1218 c 0,35,36
 868 1214 868 1214 903 1189 c 128,-1,37
 938 1164 938 1164 948 1146 c 0,38,39
 960 1128 960 1128 961 1101 c 128,-1,40
 962 1074 962 1074 954 1058 c 0,41,42
 944 1042 944 1042 918 1032 c 128,-1,43
 892 1022 892 1022 874 1026 c 0,44,45
 850 1030 850 1030 822 1039 c 128,-1,46
 794 1048 794 1048 773 1055 c 128,-1,47
 752 1062 752 1062 719 1073 c 128,-1,48
 686 1084 686 1084 666 1092 c 1,49,50
 640 950 640 950 628 892 c 1,51,52
 596 890 596 890 573 889 c 128,-1,53
 550 888 550 888 531 899 c 128,-1,54
 512 910 512 910 501 920 c 128,-1,55
 490 930 490 930 480 949 c 128,-1,56
 470 968 470 968 464 982 c 128,-1,57
 458 996 458 996 450 1016 c 128,-1,58
 442 1036 442 1036 436 1048 c 1,59,60
 400 1034 400 1034 330 1006 c 128,-1,61
 260 978 260 978 230 966 c 1,62,63
 248 1114 248 1114 266 1262 c 1,0,1
EndSplineSet
AlternateSubs2: "'aalt' Access All Alternates lookup 1 subtable" asterisk.alt1 asterisk.alt2 asterisk.alt3 asterisk.alt4 asterisk.alt5 asterisk.alt6 asterisk.alt7 asterisk.alt8 asterisk.alt9 asterisk.alt10 asterisk.alt11 asterisk.alt12 asterisk.alt13 asterisk.alt14 asterisk.alt15 asterisk.alt16
EndChar

StartChar: plus
Encoding: 43 43 15
Width: 1241
GlyphClass: 2
Flags: MW
LayerCount: 2
Fore
SplineSet
864 948 m 0,0,1
 852 904 852 904 750 590 c 1,2,3
 956 614 956 614 972 614 c 0,4,5
 1056 620 1056 620 1100 606 c 0,6,7
 1118 602 1118 602 1137 581 c 128,-1,8
 1156 560 1156 560 1156 544 c 0,9,10
 1154 528 1154 528 1134 508 c 128,-1,11
 1114 488 1114 488 1096 484 c 0,12,13
 1056 476 1056 476 1008 470 c 128,-1,14
 960 464 960 464 902 457 c 128,-1,15
 844 450 844 450 812 446 c 0,16,17
 804 444 804 444 688 424 c 1,18,19
 682 394 682 394 665 332 c 128,-1,20
 648 270 648 270 635 222 c 128,-1,21
 622 174 622 174 612 130 c 0,22,23
 606 94 606 94 601 78 c 128,-1,24
 596 62 596 62 584 38 c 128,-1,25
 572 14 572 14 552 6 c 128,-1,26
 532 -2 532 -2 502 0 c 0,27,28
 398 14 398 14 412 164 c 0,29,30
 414 184 414 184 448 404 c 1,31,-1
 86 404 l 1,32,33
 100 420 100 420 119 445 c 128,-1,34
 138 470 138 470 148 482 c 128,-1,35
 158 494 158 494 170 496 c 0,36,37
 300 538 300 538 374 536 c 0,38,39
 438 536 438 536 473 564 c 128,-1,40
 508 592 508 592 530 650 c 0,41,42
 536 668 536 668 548 703 c 128,-1,43
 560 738 560 738 568 760 c 128,-1,44
 576 782 576 782 588 811 c 128,-1,45
 600 840 600 840 614 864 c 0,46,47
 658 936 658 936 758 1036 c 0,48,49
 772 1048 772 1048 804 1052 c 128,-1,50
 836 1056 836 1056 842 1046 c 0,51,52
 878 996 878 996 864 948 c 0,0,1
EndSplineSet
EndChar

StartChar: comma
Encoding: 44 44 16
Width: 735
GlyphClass: 2
Flags: MW
LayerCount: 2
Fore
SplineSet
267 210 m 128,-1,1
 276 250 276 250 350 314 c 2,2,-1
 440 388 l 1,3,4
 472 388 472 388 534 353 c 128,-1,5
 596 318 596 318 606 298 c 0,6,7
 714 38 714 38 552 -210 c 0,8,9
 508 -278 508 -278 473 -291 c 128,-1,10
 438 -304 438 -304 380 -274 c 0,11,12
 336 -250 336 -250 323 -187 c 128,-1,13
 310 -124 310 -124 332 -36 c 0,14,15
 350 28 350 28 346 54 c 128,-1,16
 342 80 342 80 312 112 c 0,17,0
 258 170 258 170 267 210 c 128,-1,1
EndSplineSet
EndChar

StartChar: hyphen
Encoding: 45 45 17
Width: 1149
GlyphClass: 2
Flags: MW
LayerCount: 2
Fore
SplineSet
246 544 m 0,0,1
 182 548 182 548 142 577 c 128,-1,2
 102 606 102 606 86 684 c 1,3,4
 494 662 494 662 524 660 c 0,5,6
 574 658 574 658 638 657 c 128,-1,7
 702 656 702 656 767 655 c 128,-1,8
 832 654 832 654 882 652 c 0,9,10
 888 650 888 650 910 650 c 128,-1,11
 932 650 932 650 941 649 c 128,-1,12
 950 648 950 648 969 645 c 128,-1,13
 988 642 988 642 998 636 c 128,-1,14
 1008 630 1008 630 1022 620 c 128,-1,15
 1036 610 1036 610 1046 594 c 128,-1,16
 1056 578 1056 578 1066 556 c 1,17,18
 1052 552 1052 552 1027 540 c 128,-1,19
 1002 528 1002 528 983 522 c 128,-1,20
 964 516 964 516 948 516 c 0,21,22
 690 522 690 522 246 544 c 0,0,1
EndSplineSet
EndChar

StartChar: period
Encoding: 46 46 18
Width: 741
GlyphClass: 2
Flags: MW
LayerCount: 2
Fore
SplineSet
230 192 m 128,-1,1
 246 270 246 270 284 296 c 0,2,3
 320 328 320 328 391 324 c 128,-1,4
 462 320 462 320 522 290 c 0,5,6
 584 256 584 256 590 234 c 128,-1,7
 596 212 596 212 564 132 c 0,8,9
 526 48 526 48 487 22 c 128,-1,10
 448 -4 448 -4 362 0 c 0,11,12
 264 4 264 4 264 46 c 128,-1,13
 264 88 264 88 236 102 c 0,14,0
 214 114 214 114 230 192 c 128,-1,1
EndSplineSet
EndChar

StartChar: slash
Encoding: 47 47 19
Width: 1697
GlyphClass: 2
Flags: MW
LayerCount: 2
Fore
SplineSet
1542 1981 m 128,-1,1
 1612 1944 1612 1944 1612 1914 c 0,2,3
 1612 1894 1612 1894 1542 1793 c 128,-1,4
 1472 1692 1472 1692 1472 1674 c 0,5,6
 1472 1644 1472 1644 1424 1600 c 0,7,8
 1380 1562 1380 1562 1344 1496 c 0,9,10
 1284 1378 1284 1378 1178 1190 c 0,11,12
 1044 940 1044 940 1044 924 c 0,13,14
 1044 900 1044 900 897 649 c 128,-1,15
 750 398 750 398 646 242 c 0,16,17
 514 48 514 48 413 -161 c 128,-1,18
 312 -370 312 -370 292 -484 c 0,19,20
 276 -592 276 -592 230 -612 c 128,-1,21
 184 -632 184 -632 124 -556 c 0,22,23
 90 -512 90 -512 87 -485 c 128,-1,24
 84 -458 84 -458 110 -374 c 0,25,26
 188 -98 188 -98 478 344 c 0,27,28
 666 630 666 630 706 712 c 0,29,30
 844 970 844 970 908 1093 c 128,-1,31
 972 1216 972 1216 996 1278 c 128,-1,32
 1020 1340 1020 1340 1020 1374 c 0,33,34
 1020 1448 1020 1448 1080 1532 c 0,35,36
 1130 1606 1130 1606 1135 1642 c 128,-1,37
 1140 1678 1140 1678 1114 1748 c 0,38,39
 1098 1798 1098 1798 1101 1798 c 128,-1,40
 1104 1798 1104 1798 1118 1786 c 0,41,42
 1168 1738 1168 1738 1208 1762 c 128,-1,43
 1248 1786 1248 1786 1292 1886 c 0,44,45
 1330 1968 1330 1968 1352 1993 c 128,-1,46
 1374 2018 1374 2018 1414 2018 c 0,47,0
 1472 2018 1472 2018 1542 1981 c 128,-1,1
EndSplineSet
EndChar

StartChar: zero
Encoding: 48 48 20
Width: 1117
GlyphClass: 2
Flags: MW
LayerCount: 2
Fore
SplineSet
536 1502 m 0,0,1
 550 1534 550 1534 670 1594 c 0,2,3
 850 1676 850 1676 966 1632 c 0,4,5
 1020 1612 1020 1612 1029 1573 c 128,-1,6
 1038 1534 1038 1534 1016 1450 c 0,7,8
 992 1350 992 1350 986 1252 c 0,9,10
 984 1196 984 1196 972 1114 c 0,11,12
 962 1036 962 1036 948 966 c 0,13,14
 934 900 934 900 922 876 c 0,15,16
 908 852 908 852 860 728 c 128,-1,17
 812 604 812 604 796 554 c 0,18,19
 782 512 782 512 804 480 c 128,-1,20
 826 448 826 448 862 456 c 0,21,22
 886 464 886 464 893 459 c 128,-1,23
 900 454 900 454 894 432 c 0,24,25
 890 396 890 396 848 398 c 0,26,27
 806 404 806 404 784 340 c 0,28,29
 726 190 726 190 651 73 c 128,-1,30
 576 -44 576 -44 538 -44 c 0,31,32
 514 -44 514 -44 494 -72 c 0,33,34
 466 -100 466 -100 360 -114 c 0,35,36
 142 -142 142 -142 98 20 c 0,37,38
 76 110 76 110 95 316 c 128,-1,39
 114 522 114 522 160 628 c 0,40,41
 178 670 178 670 184 716 c 0,42,43
 200 790 200 790 232 896 c 0,44,45
 264 1004 264 1004 276 1018 c 0,46,47
 294 1046 294 1046 302 1098 c 0,48,49
 316 1158 316 1158 374 1234 c 0,50,51
 432 1314 432 1314 432 1328 c 0,52,53
 432 1346 432 1346 478 1404 c 0,54,55
 518 1460 518 1460 536 1502 c 0,0,1
750 1306 m 0,56,57
 740 1330 740 1330 738 1344 c 0,58,59
 726 1378 726 1378 704 1378 c 128,-1,60
 682 1378 682 1378 670 1344 c 0,61,62
 658 1306 658 1306 546 1164 c 0,63,64
 432 1014 432 1014 432 998 c 0,65,66
 432 976 432 976 392 844 c 0,67,68
 264 410 264 410 254 200 c 2,69,-1
 248 82 l 1,70,-1
 314 78 l 2,71,72
 378 70 378 70 424 114 c 0,73,74
 488 174 488 174 541 271 c 128,-1,75
 594 368 594 368 618 472 c 0,76,77
 652 606 652 606 698 778 c 0,78,79
 742 946 742 946 742 1020 c 0,80,81
 742 1090 742 1090 762 1164 c 0,82,83
 772 1196 772 1196 772 1222 c 256,84,85
 772 1248 772 1248 768 1264 c 0,86,87
 762 1282 762 1282 750 1306 c 0,56,57
EndSplineSet
EndChar

StartChar: one
Encoding: 49 49 21
Width: 921
GlyphClass: 2
Flags: MW
LayerCount: 2
Fore
SplineSet
352 1568 m 1,0,-1
 446 1598 l 2,1,2
 684 1668 684 1668 808 1720 c 1,3,4
 810 1678 810 1678 816 1644 c 128,-1,5
 822 1610 822 1610 828 1575 c 128,-1,6
 834 1540 834 1540 836 1498 c 0,7,8
 836 1436 836 1436 818 1342 c 128,-1,9
 800 1248 800 1248 781 1186 c 128,-1,10
 762 1124 762 1124 725 1010 c 128,-1,11
 688 896 688 896 682 876 c 0,12,13
 674 852 674 852 621 712 c 128,-1,14
 568 572 568 572 556 496 c 0,15,16
 556 492 556 492 555 483 c 128,-1,17
 554 474 554 474 553 468 c 128,-1,18
 552 462 552 462 550 452 c 128,-1,19
 548 442 548 442 546 435 c 128,-1,20
 544 428 544 428 541 421 c 128,-1,21
 538 414 538 414 534 409 c 128,-1,22
 530 404 530 404 525 401 c 128,-1,23
 520 398 520 398 513 398 c 128,-1,24
 506 398 506 398 498 402 c 1,25,26
 462 314 462 314 458 300 c 0,27,28
 418 186 418 186 356 -2 c 0,29,30
 352 -16 352 -16 344 -42 c 128,-1,31
 336 -68 336 -68 329 -90 c 128,-1,32
 322 -112 322 -112 314 -130 c 0,33,34
 304 -160 304 -160 274 -168 c 128,-1,35
 244 -176 244 -176 217 -171 c 128,-1,36
 190 -166 190 -166 145 -153 c 128,-1,37
 100 -140 100 -140 86 -136 c 1,38,39
 102 -80 102 -80 133 22 c 128,-1,40
 164 124 164 124 178 168 c 0,41,42
 234 358 234 358 391 786 c 128,-1,43
 548 1214 548 1214 602 1398 c 1,44,45
 418 1320 418 1320 382 1318 c 0,46,47
 368 1318 368 1318 326 1291 c 128,-1,48
 284 1264 284 1264 264 1274 c 1,49,50
 262 1284 262 1284 258 1309 c 128,-1,51
 254 1334 254 1334 253 1346 c 128,-1,52
 252 1358 252 1358 254 1376 c 128,-1,53
 256 1394 256 1394 264 1408 c 0,54,55
 276 1430 276 1430 304 1453 c 128,-1,56
 332 1476 332 1476 346 1501 c 128,-1,57
 360 1526 360 1526 352 1568 c 1,0,-1
EndSplineSet
EndChar

StartChar: two
Encoding: 50 50 22
Width: 1583
GlyphClass: 2
Flags: MW
LayerCount: 2
Fore
SplineSet
1092 1620 m 0,0,1
 1176 1658 1176 1658 1200 1666 c 0,2,3
 1324 1710 1324 1710 1407 1608 c 128,-1,4
 1490 1506 1490 1506 1478 1320 c 0,5,6
 1474 1226 1474 1226 1492 1158 c 0,7,8
 1500 1118 1500 1118 1495 1100 c 128,-1,9
 1490 1082 1490 1082 1460 1064 c 0,10,11
 1410 1030 1410 1030 1360 942 c 0,12,13
 1216 690 1216 690 1084 538 c 0,14,15
 868 298 868 298 868 268 c 0,16,17
 868 254 868 254 826 206 c 0,18,19
 746 124 746 124 906 106 c 0,20,21
 964 102 964 102 1064 104 c 0,22,23
 1202 110 1202 110 1240 110 c 0,24,25
 1294 110 1294 110 1344 77 c 128,-1,26
 1394 44 1394 44 1394 8 c 0,27,28
 1394 -34 1394 -34 1352 -65 c 128,-1,29
 1310 -96 1310 -96 1255 -90 c 128,-1,30
 1200 -84 1200 -84 1094 -100 c 0,31,32
 1000 -118 1000 -118 942 -82 c 0,33,34
 924 -70 924 -70 900 -62 c 128,-1,35
 876 -54 876 -54 848 -48 c 0,36,37
 822 -42 822 -42 802 -40 c 0,38,39
 792 -38 792 -38 746 -32 c 0,40,41
 712 -26 712 -26 690 -24 c 0,42,43
 622 -10 622 -10 524 -54 c 0,44,45
 314 -146 314 -146 170 -74 c 0,46,47
 26 2 26 2 128 104 c 0,48,49
 152 126 152 126 183 133 c 128,-1,50
 214 140 214 140 286 138 c 0,51,52
 412 134 412 134 478 170 c 0,53,54
 536 200 536 200 617 282 c 128,-1,55
 698 364 698 364 762 456 c 0,56,57
 812 526 812 526 928 676 c 0,58,59
 1274 1124 1274 1124 1230 1302 c 0,60,61
 1218 1344 1218 1344 1171 1348 c 128,-1,62
 1124 1352 1124 1352 1006 1320 c 0,63,64
 936 1302 936 1302 899 1277 c 128,-1,65
 862 1252 862 1252 802 1182 c 0,66,67
 720 1094 720 1094 677 1083 c 128,-1,68
 634 1072 634 1072 586 1124 c 2,69,-1
 544 1168 l 1,70,-1
 682 1316 l 2,71,72
 804 1440 804 1440 882 1498 c 0,73,74
 962 1556 962 1556 1092 1620 c 0,0,1
EndSplineSet
EndChar

StartChar: three
Encoding: 51 51 23
Width: 1367
GlyphClass: 2
Flags: MW
LayerCount: 2
Fore
SplineSet
1182 692 m 128,-1,1
 1266 610 1266 610 1266 582 c 0,2,3
 1266 566 1266 566 1197 379 c 128,-1,4
 1128 192 1128 192 1128 178 c 0,5,6
 1128 168 1128 168 1116 161 c 128,-1,7
 1104 154 1104 154 1084 154 c 0,8,9
 1042 154 1042 154 1000 112 c 0,10,11
 970 76 970 76 790 -46 c 0,12,13
 680 -118 680 -118 636 -136 c 0,14,15
 594 -156 594 -156 560 -150 c 0,16,17
 506 -134 506 -134 440 -158 c 0,18,19
 398 -172 398 -172 366 -169 c 128,-1,20
 334 -166 334 -166 270 -144 c 0,21,22
 202 -122 202 -122 182 -104 c 128,-1,23
 162 -86 162 -86 152 -42 c 0,24,25
 138 26 138 26 166 54 c 0,26,27
 182 70 182 70 199 66 c 128,-1,28
 216 62 216 62 260 29 c 128,-1,29
 304 -4 304 -4 331 -12 c 128,-1,30
 358 -20 358 -20 404 -12 c 0,31,32
 632 26 632 26 832 234 c 0,33,34
 976 386 976 386 1004 483 c 128,-1,35
 1032 580 1032 580 950 650 c 0,36,37
 910 684 910 684 883 691 c 128,-1,38
 856 698 856 698 798 690 c 0,39,40
 716 680 716 680 668 650 c 0,41,42
 578 590 578 590 516 660 c 0,43,44
 470 710 470 710 502 761 c 128,-1,45
 534 812 534 812 652 876 c 0,46,47
 838 976 838 976 955 1147 c 128,-1,48
 1072 1318 1072 1318 1032 1428 c 0,49,50
 1020 1460 1020 1460 1003 1464 c 128,-1,51
 986 1468 986 1468 924 1456 c 0,52,53
 842 1440 842 1440 728 1367 c 128,-1,54
 614 1294 614 1294 588 1238 c 0,55,56
 572 1202 572 1202 551 1194 c 128,-1,57
 530 1186 530 1186 470 1186 c 0,58,59
 416 1186 416 1186 386 1195 c 128,-1,60
 356 1204 356 1204 344 1225 c 128,-1,61
 332 1246 332 1246 332 1282 c 0,62,63
 332 1330 332 1330 376 1381 c 128,-1,64
 420 1432 420 1432 486 1462 c 0,65,66
 820 1618 820 1618 874 1634 c 0,67,68
 936 1650 936 1650 1054 1635 c 128,-1,69
 1172 1620 1172 1620 1222 1590 c 128,-1,70
 1272 1560 1272 1560 1279 1542 c 128,-1,71
 1286 1524 1286 1524 1274 1440 c 0,72,73
 1260 1330 1260 1330 1244 1300 c 0,74,75
 1228 1266 1228 1266 1228 1214 c 0,76,77
 1228 1158 1228 1158 1192 1101 c 128,-1,78
 1156 1044 1156 1044 1072 962 c 0,79,80
 972 864 972 864 972 852 c 0,81,82
 972 834 972 834 1036 804 c 0,83,0
 1098 774 1098 774 1182 692 c 128,-1,1
EndSplineSet
EndChar

StartChar: four
Encoding: 52 52 24
Width: 1327
GlyphClass: 2
Flags: MW
LayerCount: 2
Fore
SplineSet
958 1652 m 0,0,1
 958 1678 958 1678 1028 1726 c 0,2,3
 1072 1760 1072 1760 1098 1766 c 0,4,5
 1122 1772 1122 1772 1158 1760 c 0,6,7
 1222 1744 1222 1744 1237 1723 c 128,-1,8
 1252 1702 1252 1702 1230 1666 c 0,9,10
 1210 1624 1210 1624 1196 1542 c 0,11,12
 1186 1490 1186 1490 1173 1473 c 128,-1,13
 1160 1456 1160 1456 1123 1450 c 128,-1,14
 1086 1444 1086 1444 1067 1417 c 128,-1,15
 1048 1390 1048 1390 1002 1284 c 0,16,17
 936 1134 936 1134 914 1054 c 0,18,19
 896 980 896 980 862 958 c 0,20,21
 834 938 834 938 808 882 c 128,-1,22
 782 826 782 826 792 808 c 0,23,24
 798 792 798 792 966 792 c 0,25,26
 1164 790 1164 790 1164 762 c 0,27,28
 1164 754 1164 754 1150 736 c 0,29,30
 1130 710 1130 710 1012 710 c 0,31,32
 906 710 906 710 837 683 c 128,-1,33
 768 656 768 656 754 610 c 0,34,35
 746 582 746 582 726 526 c 0,36,37
 716 500 716 500 676 342 c 0,38,39
 646 212 646 212 627 169 c 128,-1,40
 608 126 608 126 579 126 c 128,-1,41
 550 126 550 126 522 58 c 128,-1,42
 494 -10 494 -10 464 2 c 0,43,44
 424 14 424 14 426 59 c 128,-1,45
 428 104 428 104 472 220 c 0,46,47
 504 304 504 304 532 389 c 128,-1,48
 560 474 560 474 571 529 c 128,-1,49
 582 584 582 584 576 598 c 0,50,51
 566 612 566 612 532 596 c 0,52,53
 468 560 468 560 382 542 c 0,54,55
 294 524 294 524 258 538 c 0,56,57
 226 552 226 552 198 571 c 128,-1,58
 170 590 170 590 155 612 c 128,-1,59
 140 634 140 634 140 654 c 0,60,61
 140 690 140 690 282 842 c 0,62,63
 552 1138 552 1138 726 1345 c 128,-1,64
 900 1552 900 1552 890 1564 c 0,65,66
 882 1572 882 1572 920 1600 c 0,67,68
 958 1630 958 1630 958 1652 c 0,0,1
648 786 m 0,69,70
 660 810 660 810 682 876 c 0,71,72
 734 1042 734 1042 712 1050 c 0,73,74
 696 1054 696 1054 610 952 c 0,75,76
 524 856 524 856 486 804 c 0,77,78
 472 772 472 772 502 750 c 128,-1,79
 532 728 532 728 582 734 c 0,80,81
 608 736 608 736 622 747 c 128,-1,82
 636 758 636 758 648 786 c 0,69,70
684 496 m 0,83,84
 704 526 704 526 704 540 c 128,-1,85
 704 554 704 554 685 554 c 128,-1,86
 666 554 666 554 666 512 c 0,87,88
 666 480 666 480 672 480 c 0,89,90
 674 480 674 480 684 496 c 0,83,84
EndSplineSet
EndChar

StartChar: five
Encoding: 53 53 25
Width: 1485
GlyphClass: 2
Flags: MW
LayerCount: 2
Fore
SplineSet
1181 1553 m 128,-1,1
 1260 1610 1260 1610 1300 1628 c 0,2,3
 1352 1656 1352 1656 1431 1670 c 128,-1,4
 1510 1684 1510 1684 1568 1676 c 0,5,6
 1596 1672 1596 1672 1609 1664 c 128,-1,7
 1622 1656 1622 1656 1620 1642 c 256,8,9
 1618 1628 1618 1628 1590 1605 c 128,-1,10
 1562 1582 1562 1582 1528 1566 c 0,11,12
 1428 1512 1428 1512 1326 1430 c 0,13,14
 1214 1336 1214 1336 1179 1333 c 128,-1,15
 1144 1330 1144 1330 1070 1296 c 1,16,17
 992 1270 992 1270 946 1266 c 0,18,19
 898 1266 898 1266 804 1236 c 0,20,21
 746 1216 746 1216 721 1197 c 128,-1,22
 696 1178 696 1178 680 1142 c 0,23,24
 656 1086 656 1086 602 1000 c 0,25,26
 556 926 556 926 576 904 c 128,-1,27
 596 882 596 882 726 870 c 0,28,29
 806 866 806 866 856 856 c 256,30,31
 906 846 906 846 949 830 c 128,-1,32
 992 814 992 814 1026 790 c 0,33,34
 1058 766 1058 766 1094 728 c 0,35,36
 1152 666 1152 666 1163 641 c 128,-1,37
 1174 616 1174 616 1170 558 c 0,38,39
 1148 398 1148 398 1122 346 c 0,40,41
 1098 292 1098 292 976 162 c 0,42,43
 738 -96 738 -96 676 -98 c 0,44,45
 654 -98 654 -98 602 -138 c 0,46,47
 570 -166 570 -166 520 -170 c 0,48,49
 468 -174 468 -174 278 -172 c 0,50,51
 178 -170 178 -170 117 -167 c 128,-1,52
 56 -164 56 -164 36 -160 c 0,53,54
 -6 -152 -6 -152 -44 -114 c 0,55,56
 -156 6 -156 6 -4 56 c 0,57,58
 74 80 74 80 98 56 c 0,59,60
 126 36 126 36 278 24 c 0,61,62
 342 16 342 16 389 22 c 128,-1,63
 436 28 436 28 464 39 c 128,-1,64
 492 50 492 50 558 92 c 0,65,66
 768 216 768 216 882 414 c 0,67,68
 986 598 986 598 900 666 c 0,69,70
 890 678 890 678 874 684 c 0,71,72
 826 702 826 702 735 692 c 128,-1,73
 644 682 644 682 602 656 c 0,74,75
 556 624 556 624 528 624 c 0,76,77
 502 624 502 624 436 556 c 0,78,79
 308 424 308 424 224 544 c 0,80,81
 188 594 188 594 185 626 c 128,-1,82
 182 658 182 658 210 714 c 0,83,84
 278 850 278 850 342 1022 c 0,85,86
 406 1192 406 1192 398 1212 c 0,87,88
 378 1234 378 1234 398 1270 c 0,89,90
 412 1294 412 1294 476 1314 c 0,91,92
 542 1336 542 1336 732 1378 c 0,93,94
 808 1390 808 1390 848 1403 c 128,-1,95
 888 1416 888 1416 936 1436 c 0,96,97
 984 1458 984 1458 1030 1474 c 0,98,0
 1102 1496 1102 1496 1181 1553 c 128,-1,1
EndSplineSet
EndChar

StartChar: six
Encoding: 54 54 26
Width: 1321
GlyphClass: 2
Flags: MW
LayerCount: 2
Fore
SplineSet
650 1548 m 0,0,1
 714 1564 714 1564 736 1580 c 0,2,3
 762 1602 762 1602 813 1597 c 128,-1,4
 864 1592 864 1592 892 1562 c 0,5,6
 914 1536 914 1536 915 1520 c 128,-1,7
 916 1504 916 1504 894 1462 c 0,8,9
 864 1398 864 1398 786 1298 c 0,10,11
 728 1230 728 1230 672 1126 c 0,12,13
 616 1026 616 1026 576 966 c 0,14,15
 512 876 512 876 512 851 c 128,-1,16
 512 826 512 826 484 800 c 0,17,18
 458 782 458 782 416 696 c 0,19,20
 374 602 374 602 328 454 c 128,-1,21
 282 306 282 306 292 292 c 0,22,23
 294 288 294 288 318 302 c 0,24,25
 342 318 342 318 382 346 c 0,26,27
 424 378 424 378 470 414 c 0,28,29
 634 550 634 550 736 598 c 0,30,31
 802 626 802 626 844 632 c 128,-1,32
 886 638 886 638 994 630 c 0,33,34
 1146 616 1146 616 1190 581 c 128,-1,35
 1234 546 1234 546 1234 440 c 2,36,-1
 1234 342 l 1,37,-1
 1044 164 l 2,38,39
 858 -12 858 -12 822 -18 c 0,40,41
 792 -18 792 -18 766 -46 c 0,42,43
 722 -98 722 -98 484 -126 c 0,44,45
 368 -140 368 -140 332 -156 c 0,46,47
 266 -192 266 -192 190 -144 c 128,-1,48
 114 -96 114 -96 128 -26 c 0,49,50
 136 24 136 24 112 126 c 0,51,52
 86 226 86 226 86 297 c 128,-1,53
 86 368 86 368 114 476 c 0,54,55
 142 580 142 580 168 642 c 0,56,57
 194 708 194 708 288 898 c 0,58,59
 408 1140 408 1140 494 1276 c 0,60,61
 538 1348 538 1348 562 1442 c 0,62,63
 578 1498 578 1498 592 1516 c 128,-1,64
 606 1534 606 1534 650 1548 c 0,0,1
776 184 m 0,65,66
 950 306 950 306 958 338 c 0,67,68
 960 358 960 358 948 365 c 128,-1,69
 936 372 936 372 888 368 c 0,70,71
 822 368 822 368 713 308 c 128,-1,72
 604 248 604 248 516 162 c 0,73,74
 398 48 398 48 468 46 c 0,75,76
 556 40 556 40 776 184 c 0,65,66
EndSplineSet
EndChar

StartChar: seven
Encoding: 55 55 27
Width: 1807
GlyphClass: 2
Flags: MW
LayerCount: 2
Fore
SplineSet
1320 1616 m 0,0,1
 1414 1634 1414 1634 1468 1666 c 0,2,3
 1484 1678 1484 1678 1492 1684 c 0,4,5
 1508 1694 1508 1694 1514 1698 c 256,6,7
 1520 1702 1520 1702 1532 1709 c 128,-1,8
 1544 1716 1544 1716 1554 1718 c 128,-1,9
 1564 1720 1564 1720 1578 1724 c 128,-1,10
 1592 1728 1592 1728 1608 1728 c 2,11,-1
 1648 1728 l 2,12,13
 1700 1730 1700 1730 1710 1720 c 128,-1,14
 1720 1710 1720 1710 1720 1662 c 0,15,16
 1720 1600 1720 1600 1662 1534 c 256,17,18
 1604 1468 1604 1468 1398 1280 c 0,19,20
 1224 1128 1224 1128 1026 898 c 128,-1,21
 828 668 828 668 762 544 c 0,22,23
 532 120 532 120 532 68 c 0,24,25
 532 24 532 24 482 -48 c 0,26,27
 424 -134 424 -134 348 -138 c 128,-1,28
 272 -142 272 -142 264 -60 c 0,29,30
 256 -14 256 -14 334 142 c 0,31,32
 374 222 374 222 402 291 c 128,-1,33
 430 360 430 360 454 406 c 0,34,35
 480 456 480 456 536 544 c 0,36,37
 630 694 630 694 630 704 c 0,38,39
 630 718 630 718 784 930 c 0,40,41
 940 1142 940 1142 1016 1232 c 0,42,43
 1116 1346 1116 1346 1116 1366 c 0,44,45
 1116 1376 1116 1376 1087 1379 c 128,-1,46
 1058 1382 1058 1382 1027 1376 c 128,-1,47
 996 1370 996 1370 988 1360 c 0,48,49
 978 1340 978 1340 928 1340 c 0,50,51
 880 1340 880 1340 818 1312 c 0,52,53
 754 1282 754 1282 640 1254 c 0,54,55
 360 1188 360 1188 278 1114 c 0,56,57
 248 1088 248 1088 238 1088 c 128,-1,58
 228 1088 228 1088 208 1114 c 0,59,60
 184 1150 184 1150 140 1174 c 0,61,62
 96 1194 96 1194 86 1238 c 0,63,64
 82 1282 82 1282 132 1311 c 128,-1,65
 182 1340 182 1340 264 1340 c 0,66,67
 444 1340 444 1340 602 1410 c 0,68,69
 654 1434 654 1434 726 1450 c 0,70,71
 792 1460 792 1460 814 1476 c 0,72,73
 836 1496 836 1496 942 1512 c 0,74,75
 998 1522 998 1522 1066 1544 c 0,76,77
 1148 1568 1148 1568 1200 1584 c 0,78,79
 1268 1606 1268 1606 1320 1616 c 0,0,1
EndSplineSet
EndChar

StartChar: eight
Encoding: 56 56 28
Width: 1529
GlyphClass: 2
Flags: MW
LayerCount: 2
Fore
SplineSet
1618 1670 m 0,0,1
 1634 1670 1634 1670 1684 1736 c 0,2,3
 1722 1786 1722 1786 1747 1795 c 128,-1,4
 1772 1804 1772 1804 1864 1804 c 0,5,6
 1988 1804 1988 1804 1988 1782 c 0,7,8
 1988 1766 1988 1766 1916 1702 c 128,-1,9
 1844 1638 1844 1638 1739 1558 c 128,-1,10
 1634 1478 1634 1478 1540 1414 c 0,11,12
 1372 1304 1372 1304 1284 1222 c 0,13,14
 1196 1142 1196 1142 1092 1010 c 0,15,16
 942 820 942 820 910 782 c 0,17,18
 858 716 858 716 858 699 c 128,-1,19
 858 682 858 682 918 568 c 0,20,21
 988 434 988 434 968 312 c 128,-1,22
 948 190 948 190 832 56 c 0,23,24
 696 -98 696 -98 609 -138 c 128,-1,25
 522 -178 522 -178 390 -148 c 0,26,27
 310 -128 310 -128 230 -114 c 0,28,29
 174 -104 174 -104 126 -54 c 128,-1,30
 78 -4 78 -4 88 30 c 0,31,32
 100 84 100 84 108 132 c 0,33,34
 114 176 114 176 162 233 c 128,-1,35
 210 290 210 290 362 432 c 0,36,37
 628 680 628 680 600 706 c 1,38,-1
 576 714 l 1,39,40
 506 714 506 714 404 928 c 0,41,42
 342 1058 342 1058 342 1170 c 128,-1,43
 342 1282 342 1282 404 1418 c 0,44,45
 448 1506 448 1506 474 1534 c 128,-1,46
 500 1562 500 1562 580 1598 c 0,47,48
 746 1672 746 1672 847 1640 c 128,-1,49
 948 1608 948 1608 1026 1460 c 0,50,51
 1046 1422 1046 1422 1016 1366 c 0,52,53
 988 1306 988 1306 920 1246 c 0,54,55
 832 1164 832 1164 818 1174 c 0,56,57
 796 1188 796 1188 789 1247 c 128,-1,58
 782 1306 782 1306 800 1326 c 0,59,60
 830 1362 830 1362 799 1388 c 128,-1,61
 768 1414 768 1414 714 1404 c 0,62,63
 662 1396 662 1396 630 1374 c 0,64,65
 620 1364 620 1364 606 1328 c 128,-1,66
 592 1292 592 1292 578 1251 c 128,-1,67
 564 1210 564 1210 556 1166 c 128,-1,68
 548 1122 548 1122 548 1097 c 128,-1,69
 548 1072 548 1072 582 1016 c 128,-1,70
 616 960 616 960 658 916 c 128,-1,71
 700 872 700 872 722 872 c 0,72,73
 750 866 750 866 876 1030 c 0,74,75
 970 1146 970 1146 1056 1236 c 0,76,77
 1140 1326 1140 1326 1228 1400 c 0,78,79
 1316 1476 1316 1476 1422 1548 c 0,80,81
 1606 1670 1606 1670 1618 1670 c 0,0,1
598 140 m 0,82,83
 760 280 760 280 760 428 c 0,84,85
 760 474 760 474 752 498 c 128,-1,86
 744 522 744 522 726 520 c 128,-1,87
 708 518 708 518 680 496 c 128,-1,88
 652 474 652 474 608 424 c 0,89,90
 520 322 520 322 455 214 c 128,-1,91
 390 106 390 106 398 78 c 0,92,93
 412 40 412 40 467 57 c 128,-1,94
 522 74 522 74 598 140 c 0,82,83
EndSplineSet
EndChar

StartChar: nine
Encoding: 57 57 29
Width: 1167
GlyphClass: 2
Flags: MW
LayerCount: 2
Fore
SplineSet
842 1591 m 128,-1,1
 860 1596 860 1596 894 1628 c 0,2,3
 944 1678 944 1678 994 1667 c 128,-1,4
 1044 1656 1044 1656 1067 1621 c 128,-1,5
 1090 1586 1090 1586 1080 1542 c 0,6,7
 1070 1512 1070 1512 1056 1454 c 0,8,9
 1044 1398 1044 1398 1030 1350 c 0,10,11
 1018 1306 1018 1306 996 1266 c 0,12,13
 954 1180 954 1180 954 1133 c 128,-1,14
 954 1086 954 1086 936 1052 c 0,15,16
 916 1016 916 1016 904 880 c 0,17,18
 900 792 900 792 884 722 c 0,19,20
 868 648 868 648 850 574 c 0,21,22
 830 496 830 496 820 410 c 0,23,24
 762 -8 762 -8 736 -62 c 0,25,26
 720 -98 720 -98 671 -94 c 128,-1,27
 622 -90 622 -90 596 -54 c 0,28,29
 570 -16 570 -16 566 94 c 128,-1,30
 562 204 562 204 584 228 c 0,31,32
 596 240 596 240 612 382 c 256,33,34
 628 524 628 524 634 648 c 0,35,36
 640 770 640 770 628 804 c 1,37,38
 612 820 612 820 490 782 c 0,39,40
 400 754 400 754 338 746 c 0,41,42
 274 740 274 740 227 756 c 128,-1,43
 180 772 180 772 150 810 c 128,-1,44
 120 848 120 848 100 912 c 0,45,46
 76 988 76 988 96 1120 c 128,-1,47
 116 1252 116 1252 166 1326 c 0,48,49
 216 1406 216 1406 290 1476 c 0,50,51
 362 1544 362 1544 432 1578 c 0,52,53
 504 1610 504 1610 613 1617 c 128,-1,54
 722 1624 722 1624 792 1600 c 0,55,0
 824 1586 824 1586 842 1591 c 128,-1,1
712 1332 m 0,56,57
 706 1342 706 1342 700 1356 c 0,58,59
 684 1406 684 1406 628 1404 c 0,60,61
 568 1400 568 1400 519 1375 c 128,-1,62
 470 1350 470 1350 402 1282 c 0,63,64
 316 1196 316 1196 302 1114 c 256,65,66
 288 1032 288 1032 316 1005 c 128,-1,67
 344 978 344 978 424 988 c 0,68,69
 510 1002 510 1002 561 1037 c 128,-1,70
 612 1072 612 1072 654 1146 c 0,71,72
 706 1234 706 1234 736 1274 c 0,73,74
 766 1306 766 1306 742 1306 c 0,75,76
 736 1306 736 1306 728 1313 c 128,-1,77
 720 1320 720 1320 712 1332 c 0,56,57
EndSplineSet
EndChar

StartChar: colon
Encoding: 58 58 30
Width: 615
GlyphClass: 2
Flags: MW
LayerCount: 2
Fore
SplineSet
122 172 m 0,0,1
 122 240 122 240 166 262 c 0,2,3
 224 300 224 300 316 290 c 128,-1,4
 408 280 408 280 452 232 c 0,5,6
 490 192 490 192 493 173 c 128,-1,7
 496 154 496 154 466 102 c 0,8,9
 386 -64 386 -64 216 40 c 0,10,11
 180 64 180 64 160 82 c 256,12,13
 140 100 140 100 131 121 c 128,-1,14
 122 142 122 142 122 172 c 0,0,1
185 923 m 128,-1,16
 228 974 228 974 294 984 c 0,17,18
 308 988 308 988 334 990 c 0,19,20
 370 994 370 994 376 996 c 0,21,22
 394 998 394 998 398 998 c 0,23,24
 416 998 416 998 434 979 c 128,-1,25
 452 960 452 960 466 930 c 256,26,27
 480 900 480 900 480 873 c 128,-1,28
 480 846 480 846 448 802 c 128,-1,29
 416 758 416 758 374 724 c 128,-1,30
 332 690 332 690 304 690 c 0,31,32
 260 690 260 690 222 727 c 128,-1,33
 184 764 184 764 160 818 c 0,34,15
 142 872 142 872 185 923 c 128,-1,16
EndSplineSet
EndChar

StartChar: semicolon
Encoding: 59 59 31
Width: 789
GlyphClass: 2
Flags: MW
LayerCount: 2
Fore
SplineSet
204 198 m 128,-1,1
 212 270 212 270 266 314 c 0,2,3
 326 362 326 362 377 362 c 128,-1,4
 428 362 428 362 502 314 c 0,5,6
 556 280 556 280 569 257 c 128,-1,7
 582 234 582 234 582 174 c 0,8,9
 582 86 582 86 533 -69 c 128,-1,10
 484 -224 484 -224 438 -284 c 0,11,12
 394 -346 394 -346 348 -346 c 128,-1,13
 302 -346 302 -346 242 -288 c 0,14,15
 174 -224 174 -224 192 -188 c 0,16,17
 248 -52 248 -52 259 -2 c 128,-1,18
 270 48 270 48 238 78 c 0,19,0
 196 126 196 126 204 198 c 128,-1,1
398 918 m 0,20,21
 238 1080 238 1080 430 1136 c 0,22,23
 526 1166 526 1166 546 1166 c 0,24,25
 568 1170 568 1170 622 1118 c 128,-1,26
 676 1066 676 1066 676 1038 c 0,27,28
 676 1004 676 1004 602 920 c 128,-1,29
 528 836 528 836 502 836 c 0,30,31
 472 836 472 836 398 918 c 0,20,21
EndSplineSet
EndChar

StartChar: less
Encoding: 60 60 32
Width: 1055
GlyphClass: 2
Flags: MW
LayerCount: 2
Fore
SplineSet
738 752 m 0,0,1
 702 712 702 712 660 673 c 128,-1,2
 618 634 618 634 545 569 c 128,-1,3
 472 504 472 504 438 472 c 1,4,5
 832 334 832 334 852 328 c 0,6,7
 888 314 888 314 923 252 c 128,-1,8
 958 190 958 190 966 129 c 128,-1,9
 974 68 974 68 950 32 c 0,10,11
 934 12 934 12 898 4 c 128,-1,12
 862 -4 862 -4 834 4 c 0,13,14
 822 8 822 8 809 13 c 128,-1,15
 796 18 796 18 780 30 c 128,-1,16
 764 42 764 42 758 46 c 128,-1,17
 752 50 752 50 731 68 c 128,-1,18
 710 86 710 86 708 86 c 0,19,20
 496 260 496 260 204 294 c 0,21,22
 182 296 182 296 157 306 c 128,-1,23
 132 316 132 316 112 331 c 128,-1,24
 92 346 92 346 88 360 c 0,25,26
 82 384 82 384 100 423 c 128,-1,27
 118 462 118 462 144 484 c 0,28,29
 268 592 268 592 628 884 c 0,30,31
 664 914 664 914 702 909 c 128,-1,32
 740 904 740 904 760 866 c 0,33,34
 770 844 770 844 763 807 c 128,-1,35
 756 770 756 770 738 752 c 0,0,1
EndSplineSet
EndChar

StartChar: equal
Encoding: 61 61 33
Width: 1250
GlyphClass: 2
Flags: MW
LayerCount: 2
Fore
SplineSet
1080 372 m 0,0,1
 1088 372 1088 372 1099 367 c 128,-1,2
 1110 362 1110 362 1118 356 c 128,-1,3
 1126 350 1126 350 1139 341 c 128,-1,4
 1152 332 1152 332 1162 326 c 1,5,6
 1104 206 1104 206 970 226 c 0,7,8
 592 282 592 282 288 236 c 0,9,10
 218 224 218 224 185 254 c 128,-1,11
 152 284 152 284 146 374 c 1,12,13
 882 374 882 374 1080 372 c 0,0,1
286 532 m 0,14,15
 214 526 214 526 182 564 c 128,-1,16
 150 602 150 602 156 692 c 1,17,18
 868 692 868 692 982 690 c 0,19,20
 1086 690 1086 690 1128 578 c 1,21,22
 1118 572 1118 572 1104 564 c 128,-1,23
 1090 556 1090 556 1080 550 c 128,-1,24
 1070 544 1070 544 1060 541 c 128,-1,25
 1050 538 1050 538 1042 540 c 0,26,27
 988 550 988 550 934 557 c 128,-1,28
 880 564 880 564 823 565 c 128,-1,29
 766 566 766 566 719 566 c 128,-1,30
 672 566 672 566 607 561 c 128,-1,31
 542 556 542 556 502 553 c 128,-1,32
 462 550 462 550 391 543 c 128,-1,33
 320 536 320 536 286 532 c 0,14,15
EndSplineSet
EndChar

StartChar: greater
Encoding: 62 62 34
Width: 1067
GlyphClass: 2
Flags: MW
LayerCount: 2
Fore
SplineSet
86 150 m 1,0,1
 202 278 202 278 650 770 c 1,2,3
 612 780 612 780 553 793 c 128,-1,4
 494 806 494 806 459 814 c 128,-1,5
 424 822 424 822 377 839 c 128,-1,6
 330 856 330 856 300 877 c 128,-1,7
 270 898 270 898 239 934 c 128,-1,8
 208 970 208 970 188 1020 c 1,9,10
 202 1022 202 1022 223 1026 c 128,-1,11
 244 1030 244 1030 258 1033 c 128,-1,12
 272 1036 272 1036 287 1036 c 128,-1,13
 302 1036 302 1036 312 1030 c 0,14,15
 378 996 378 996 484 966 c 128,-1,16
 590 936 590 936 670 917 c 128,-1,17
 750 898 750 898 838 847 c 128,-1,18
 926 796 926 796 982 718 c 1,19,20
 872 598 872 598 654 361 c 128,-1,21
 436 124 436 124 322 0 c 1,22,23
 302 14 302 14 221 65 c 128,-1,24
 140 116 140 116 86 150 c 1,0,1
EndSplineSet
EndChar

StartChar: question
Encoding: 63 63 35
Width: 1647
GlyphClass: 2
Flags: MW
LayerCount: 2
Fore
SplineSet
439 -124 m 128,-1,1
 444 -106 444 -106 480 -78 c 0,2,3
 530 -38 530 -38 566 -37 c 128,-1,4
 602 -36 602 -36 658 -72 c 0,5,6
 712 -106 712 -106 719 -165 c 128,-1,7
 726 -224 726 -224 682 -241 c 128,-1,8
 638 -258 638 -258 554 -231 c 128,-1,9
 470 -204 470 -204 450 -170 c 0,10,0
 434 -142 434 -142 439 -124 c 128,-1,1
986 1760 m 0,11,12
 1096 1764 1096 1764 1116 1776 c 0,13,14
 1134 1790 1134 1790 1150 1788 c 0,15,16
 1168 1786 1168 1786 1262 1766 c 0,17,18
 1342 1750 1342 1750 1437 1681 c 128,-1,19
 1532 1612 1532 1612 1554 1554 c 0,20,21
 1572 1508 1572 1508 1543 1395 c 128,-1,22
 1514 1282 1514 1282 1450 1151 c 128,-1,23
 1386 1020 1386 1020 1253 860 c 128,-1,24
 1120 700 1120 700 1052 672 c 0,25,26
 828 582 828 582 772 524 c 128,-1,27
 716 466 716 466 790 392 c 0,28,29
 850 332 850 332 834 276 c 128,-1,30
 818 220 818 220 730 194 c 0,31,32
 682 180 682 180 605 249 c 128,-1,33
 528 318 528 318 490 406 c 0,34,35
 440 528 440 528 534 654 c 128,-1,36
 628 780 628 780 850 888 c 0,37,38
 908 918 908 918 978 982 c 256,39,40
 1048 1046 1048 1046 1112 1122 c 0,41,42
 1174 1198 1174 1198 1204 1258 c 0,43,44
 1246 1340 1246 1340 1248 1440 c 0,45,46
 1252 1508 1252 1508 1242 1526 c 128,-1,47
 1232 1544 1232 1544 1188 1562 c 0,48,49
 1114 1584 1114 1584 1066 1562 c 0,50,51
 1012 1530 1012 1530 938 1520 c 0,52,53
 904 1510 904 1510 872 1490 c 256,54,55
 840 1470 840 1470 804 1428 c 0,56,57
 766 1386 766 1386 712 1308 c 0,58,59
 670 1248 670 1248 588 1248 c 0,60,61
 510 1248 510 1248 497 1275 c 128,-1,62
 484 1302 484 1302 518 1400 c 0,63,64
 628 1732 628 1732 986 1760 c 0,11,12
EndSplineSet
Substitution2: "'aalt' Access All Alternates lookup 0 subtable" question.alt1
EndChar

StartChar: at
Encoding: 64 64 36
Width: 2137
GlyphClass: 2
Flags: MW
LayerCount: 2
Fore
SplineSet
876 1390 m 0,0,1
 988 1446 988 1446 1136 1490 c 0,2,3
 1440 1588 1440 1588 1678 1506 c 0,4,5
 1782 1470 1782 1470 1880 1359 c 128,-1,6
 1978 1248 1978 1248 1992 1150 c 0,7,8
 2008 1058 2008 1058 2032 1022 c 0,9,10
 2052 978 2052 978 2052 920 c 0,11,12
 2052 866 2052 866 2026 760 c 0,13,14
 1998 654 1998 654 1962 552 c 0,15,16
 1924 448 1924 448 1898 408 c 0,17,18
 1800 268 1800 268 1868 200 c 0,19,20
 1884 180 1884 180 1876 158 c 128,-1,21
 1868 136 1868 136 1847 119 c 128,-1,22
 1826 102 1826 102 1810 102 c 0,23,24
 1790 102 1790 102 1696 22 c 0,25,26
 1592 -66 1592 -66 1388 -160 c 0,27,28
 1308 -198 1308 -198 1183 -223 c 128,-1,29
 1058 -248 1058 -248 1008 -242 c 0,30,31
 880 -214 880 -214 755 -130 c 128,-1,32
 630 -46 630 -46 630 16 c 0,33,34
 630 62 630 62 594 136 c 0,35,36
 544 230 544 230 564 335 c 128,-1,37
 584 440 584 440 692 654 c 0,38,39
 726 720 726 720 726 756 c 0,40,41
 726 786 726 786 844 912 c 2,42,-1
 964 1032 l 1,43,-1
 1180 1016 l 2,44,45
 1274 1012 1274 1012 1323 1004 c 128,-1,46
 1372 996 1372 996 1400 984 c 0,47,48
 1430 972 1430 972 1452 952 c 0,49,50
 1494 914 1494 914 1500 881 c 128,-1,51
 1506 848 1506 848 1496 742 c 0,52,53
 1480 514 1480 514 1396 356 c 0,54,55
 1372 308 1372 308 1372 291 c 128,-1,56
 1372 274 1372 274 1398 248 c 0,57,58
 1452 186 1452 186 1432 156 c 0,59,60
 1430 150 1430 150 1420 150 c 0,61,62
 1406 150 1406 150 1362 186 c 0,63,64
 1332 214 1332 214 1312 209 c 128,-1,65
 1292 204 1292 204 1224 150 c 0,66,67
 1154 92 1154 92 1069 69 c 128,-1,68
 984 46 984 46 950 72 c 0,69,70
 904 102 904 102 862 173 c 128,-1,71
 820 244 820 244 820 284 c 0,72,73
 820 346 820 346 918 504 c 0,74,75
 1012 668 1012 668 1120 730 c 0,76,77
 1164 756 1164 756 1192 784 c 0,78,79
 1220 810 1220 810 1216 820 c 0,80,81
 1210 844 1210 844 1121 840 c 128,-1,82
 1032 836 1032 836 982 810 c 0,83,84
 944 790 944 790 860 650 c 128,-1,85
 776 510 776 510 748 420 c 0,86,87
 718 324 718 324 694 294 c 0,88,89
 668 264 668 264 702 136 c 0,90,91
 718 52 718 52 740 22 c 128,-1,92
 762 -8 762 -8 822 -42 c 0,93,94
 894 -76 894 -76 1018 -86 c 128,-1,95
 1142 -96 1142 -96 1160 -66 c 0,96,97
 1176 -46 1176 -46 1270 -32 c 0,98,99
 1372 -22 1372 -22 1534 92 c 128,-1,100
 1696 206 1696 206 1762 312 c 0,101,102
 1834 420 1834 420 1884 536 c 128,-1,103
 1934 652 1934 652 1928 678 c 0,104,105
 1918 706 1918 706 1938 760 c 128,-1,106
 1958 814 1958 814 1930 924 c 0,107,108
 1920 982 1920 982 1888 1134 c 0,109,110
 1854 1288 1854 1288 1702 1359 c 128,-1,111
 1550 1430 1550 1430 1344 1382 c 0,112,113
 1248 1362 1248 1362 1170 1332 c 128,-1,114
 1092 1302 1092 1302 874 1200 c 0,115,116
 756 1150 756 1150 560 954 c 0,117,118
 368 762 368 762 368 742 c 128,-1,119
 368 722 368 722 290 584 c 0,120,121
 210 442 210 442 196 312 c 0,122,123
 186 224 186 224 196 175 c 128,-1,124
 206 126 206 126 260 14 c 0,125,126
 466 -410 466 -410 886 -402 c 0,127,128
 1024 -406 1024 -406 1024 -426 c 0,129,130
 1018 -460 1018 -460 948 -464 c 0,131,132
 880 -470 880 -470 850 -494 c 0,133,134
 802 -534 802 -534 644 -460 c 128,-1,135
 486 -386 486 -386 374 -274 c 0,136,137
 274 -170 274 -170 180 14 c 0,138,139
 108 146 108 146 95 197 c 128,-1,140
 82 248 82 248 88 358 c 0,141,142
 92 404 92 404 102 454 c 256,143,144
 112 504 112 504 122 541 c 128,-1,145
 132 578 132 578 150 622 c 0,146,147
 170 668 170 668 182 696 c 0,148,149
 194 728 194 728 214 772 c 0,150,151
 238 820 238 820 246 844 c 0,152,153
 300 952 300 952 388 1008 c 0,154,155
 486 1072 486 1072 566 1174 c 0,156,157
 604 1220 604 1220 643 1254 c 128,-1,158
 682 1288 682 1288 702 1300 c 128,-1,159
 722 1312 722 1312 788 1344 c 256,160,161
 854 1376 854 1376 876 1390 c 0,0,1
1140 382 m 0,162,163
 1254 480 1254 480 1230 538 c 0,164,165
 1220 578 1220 578 1186 578 c 0,166,167
 1164 578 1164 578 1110 519 c 128,-1,168
 1056 460 1056 460 1056 432 c 0,169,170
 1056 420 1056 420 1042 376 c 0,171,172
 1028 338 1028 338 1062 341 c 128,-1,173
 1096 344 1096 344 1140 382 c 0,162,163
EndSplineSet
EndChar

StartChar: A
Encoding: 65 65 37
Width: 1731
GlyphClass: 2
Flags: MW
LayerCount: 2
Fore
SplineSet
1762 264 m 0,0,1
 1806 302 1806 302 1839 295 c 128,-1,2
 1872 288 1872 288 1872 230 c 0,3,4
 1872 214 1872 214 1864 196 c 128,-1,5
 1856 178 1856 178 1846 165 c 128,-1,6
 1836 152 1836 152 1816 135 c 128,-1,7
 1796 118 1796 118 1785 110 c 128,-1,8
 1774 102 1774 102 1751 87 c 128,-1,9
 1728 72 1728 72 1724 68 c 0,10,11
 1676 36 1676 36 1626 14 c 0,12,13
 1618 12 1618 12 1592 -3 c 128,-1,14
 1566 -18 1566 -18 1539 -32 c 128,-1,15
 1512 -46 1512 -46 1476 -63 c 128,-1,16
 1440 -80 1440 -80 1412 -88 c 128,-1,17
 1384 -96 1384 -96 1354 -100 c 128,-1,18
 1324 -104 1324 -104 1312 -92 c 1,19,20
 1236 -88 1236 -88 1116 -18 c 0,21,22
 952 76 952 76 932 164 c 0,23,24
 914 224 914 224 892 224 c 0,25,26
 872 224 872 224 670 58 c 0,27,28
 500 -72 500 -72 423 -103 c 128,-1,29
 346 -134 346 -134 274 -92 c 0,30,31
 204 -58 204 -58 145 17 c 128,-1,32
 86 92 86 92 86 146 c 0,33,34
 86 210 86 210 122 340 c 128,-1,35
 158 470 158 470 178 490 c 0,36,37
 204 518 204 518 204 582 c 0,38,39
 204 618 204 618 239 682 c 128,-1,40
 274 746 274 746 274 784 c 0,41,42
 274 836 274 836 298 852 c 128,-1,43
 322 868 322 868 394 1022 c 256,44,45
 466 1176 466 1176 494 1278 c 0,46,47
 518 1362 518 1362 565 1433 c 128,-1,48
 612 1504 612 1504 632 1492 c 128,-1,49
 652 1480 652 1480 820 1616 c 0,50,51
 952 1726 952 1726 1038 1775 c 128,-1,52
 1124 1824 1124 1824 1262 1868 c 0,53,54
 1382 1904 1382 1904 1412 1902 c 0,55,56
 1440 1898 1440 1898 1518 1834 c 0,57,58
 1572 1790 1572 1790 1589 1760 c 128,-1,59
 1606 1730 1606 1730 1606 1668 c 0,60,61
 1606 1572 1606 1572 1512 1348 c 0,62,63
 1488 1298 1488 1298 1436 1150 c 0,64,65
 1390 1002 1390 1002 1342 924 c 0,66,67
 1302 858 1302 858 1286 756 c 0,68,69
 1272 666 1272 666 1248 614 c 0,70,71
 1242 602 1242 602 1178 422 c 0,72,73
 1140 322 1140 322 1139 288 c 128,-1,74
 1138 254 1138 254 1164 204 c 0,75,76
 1204 130 1204 130 1256 130 c 0,77,78
 1316 122 1316 122 1372 72 c 0,79,80
 1376 70 1376 70 1378 69 c 128,-1,81
 1380 68 1380 68 1382 65 c 128,-1,82
 1384 62 1384 62 1386 62 c 0,83,84
 1406 72 1406 72 1453 88 c 128,-1,85
 1500 104 1500 104 1518 114 c 0,86,87
 1672 194 1672 194 1762 264 c 0,0,1
1032 852 m 256,88,89
 1100 958 1100 958 1134 1060 c 0,90,91
 1182 1204 1182 1204 1214 1254 c 0,92,93
 1248 1302 1248 1302 1248 1356 c 0,94,95
 1248 1406 1248 1406 1272 1424 c 0,96,97
 1288 1434 1288 1434 1342 1530 c 128,-1,98
 1396 1626 1396 1626 1373 1646 c 128,-1,99
 1350 1666 1350 1666 1260 1644 c 128,-1,100
 1170 1622 1170 1622 1104 1582 c 0,101,102
 1040 1540 1040 1540 954 1444 c 128,-1,103
 868 1348 868 1348 868 1318 c 0,104,105
 868 1296 868 1296 762 1171 c 128,-1,106
 656 1046 656 1046 656 1016 c 128,-1,107
 656 986 656 986 574 870 c 0,108,109
 490 746 490 746 466 648 c 0,110,111
 434 534 434 534 416 504 c 0,112,113
 396 460 396 460 396 430 c 0,114,115
 396 396 396 396 356 322 c 0,116,117
 322 254 322 254 336 227 c 128,-1,118
 350 200 350 200 420 200 c 0,119,120
 464 200 464 200 553 259 c 128,-1,121
 642 318 642 318 682 378 c 0,122,123
 690 382 690 382 702 400 c 0,124,125
 718 422 718 422 736 446 c 0,126,127
 756 474 756 474 774 496 c 0,128,129
 964 746 964 746 1032 852 c 256,88,89
EndSplineSet
EndChar

StartChar: B
Encoding: 66 66 38
Width: 1813
GlyphClass: 2
Flags: MW
LayerCount: 2
Fore
SplineSet
798 1838 m 0,0,1
 864 1886 864 1886 954 1944 c 0,2,3
 1044 2006 1044 2006 1100 2006 c 128,-1,4
 1156 2006 1156 2006 1187 1965 c 128,-1,5
 1218 1924 1218 1924 1200 1872 c 0,6,7
 1182 1802 1182 1802 1246 1806 c 0,8,9
 1286 1808 1286 1808 1360 1846 c 0,10,11
 1450 1894 1450 1894 1562 1898 c 128,-1,12
 1674 1902 1674 1902 1752 1864 c 0,13,14
 1826 1824 1826 1824 1886 1730 c 0,15,16
 1930 1668 1930 1668 1936 1632 c 128,-1,17
 1942 1596 1942 1596 1920 1500 c 0,18,19
 1864 1224 1864 1224 1570 960 c 1,20,-1
 1420 832 l 1,21,-1
 1476 736 l 2,22,23
 1528 646 1528 646 1546 516 c 0,24,25
 1558 464 1558 464 1552 423 c 128,-1,26
 1546 382 1546 382 1533 352 c 128,-1,27
 1520 322 1520 322 1484 266 c 0,28,29
 1376 110 1376 110 1194 8 c 0,30,31
 1014 -94 1014 -94 842 -98 c 0,32,33
 760 -98 760 -98 708 -82 c 128,-1,34
 656 -66 656 -66 570 -2 c 2,35,-1
 426 100 l 1,36,-1
 348 24 l 2,37,38
 292 -32 292 -32 275 -34 c 128,-1,39
 258 -36 258 -36 216 2 c 0,40,41
 180 32 180 32 172 64 c 0,42,43
 164 94 164 94 176 174 c 0,44,45
 188 256 188 256 182 282 c 128,-1,46
 176 308 176 308 138 326 c 0,47,48
 86 356 86 356 86 382 c 0,49,50
 86 430 86 430 142 469 c 128,-1,51
 198 508 198 508 262 508 c 0,52,53
 290 508 290 508 310 512 c 0,54,55
 328 516 328 516 347 531 c 128,-1,56
 366 546 366 546 382 568 c 0,57,58
 404 598 404 598 430 632 c 0,59,60
 462 686 462 686 489 788 c 128,-1,61
 516 890 516 890 534 932 c 0,62,63
 546 956 546 956 562 983 c 128,-1,64
 578 1010 578 1010 595 1038 c 128,-1,65
 612 1066 612 1066 622 1088 c 0,66,67
 648 1140 648 1140 650 1192 c 128,-1,68
 652 1244 652 1244 646 1302 c 128,-1,69
 640 1360 640 1360 644 1402 c 0,70,71
 646 1412 646 1412 658 1448 c 128,-1,72
 670 1484 670 1484 684 1524 c 128,-1,73
 698 1564 698 1564 712 1597 c 128,-1,74
 726 1630 726 1630 732 1630 c 1,75,76
 598 1594 598 1594 530 1614 c 0,77,78
 464 1632 464 1632 444 1670 c 128,-1,79
 424 1708 424 1708 448 1745 c 128,-1,80
 472 1782 472 1782 524 1802 c 0,81,82
 560 1816 560 1816 660 1812 c 128,-1,83
 760 1808 760 1808 798 1838 c 0,0,1
1294 508 m 0,84,85
 1294 638 1294 638 1242 682 c 0,86,87
 1212 710 1212 710 1161 712 c 128,-1,88
 1110 714 1110 714 1039 706 c 128,-1,89
 968 698 968 698 924 702 c 0,90,91
 802 714 802 714 762 694 c 0,92,93
 736 680 736 680 713 608 c 128,-1,94
 690 536 690 536 678 453 c 128,-1,95
 666 370 666 370 670 294 c 128,-1,96
 674 218 674 218 696 196 c 0,97,98
 736 156 736 156 795 149 c 128,-1,99
 854 142 854 142 916 160 c 128,-1,100
 978 178 978 178 1030 204 c 128,-1,101
 1082 230 1082 230 1122 260 c 0,102,103
 1294 386 1294 386 1294 508 c 0,84,85
1554 1578 m 0,104,105
 1502 1640 1502 1640 1428 1652 c 0,106,107
 1342 1664 1342 1664 1238 1608 c 128,-1,108
 1134 1552 1134 1552 1054 1466 c 128,-1,109
 974 1380 974 1380 922 1280 c 128,-1,110
 870 1180 870 1180 876 1110 c 0,111,112
 890 960 890 960 1066 976 c 0,113,114
 1232 992 1232 992 1412 1124 c 0,115,116
 1590 1256 1590 1256 1604 1376 c 0,117,118
 1618 1504 1618 1504 1554 1578 c 0,104,105
EndSplineSet
EndChar

StartChar: C
Encoding: 67 67 39
Width: 1479
GlyphClass: 2
Flags: MW
LayerCount: 2
Fore
SplineSet
998 1782 m 0,0,1
 1088 1842 1088 1842 1126 1842 c 0,2,3
 1146 1842 1146 1842 1198 1866 c 128,-1,4
 1250 1890 1250 1890 1300 1907 c 128,-1,5
 1350 1924 1350 1924 1378 1916 c 0,6,7
 1428 1904 1428 1904 1520 1894 c 0,8,9
 1654 1872 1654 1872 1696 1748 c 128,-1,10
 1738 1624 1738 1624 1660 1468 c 0,11,12
 1640 1424 1640 1424 1606 1340 c 0,13,14
 1580 1274 1580 1274 1476 1205 c 128,-1,15
 1372 1136 1372 1136 1310 1146 c 0,16,17
 1266 1156 1266 1156 1212 1203 c 128,-1,18
 1158 1250 1158 1250 1120 1310 c 128,-1,19
 1082 1370 1082 1370 1082 1412 c 0,20,21
 1082 1482 1082 1482 1062 1496 c 0,22,23
 1044 1506 1044 1506 972 1434 c 0,24,25
 900 1364 900 1364 816 1262 c 256,26,27
 732 1160 732 1160 688 1082 c 0,28,29
 266 340 266 340 432 202 c 0,30,31
 466 178 466 178 466 148 c 0,32,33
 466 114 466 114 523 66 c 128,-1,34
 580 18 580 18 636 6 c 0,35,36
 700 -10 700 -10 796 18 c 0,37,38
 846 30 846 30 920 76 c 128,-1,39
 994 122 994 122 1049 171 c 128,-1,40
 1104 220 1104 220 1104 240 c 0,41,42
 1104 300 1104 300 1192 317 c 128,-1,43
 1280 334 1280 334 1328 280 c 0,44,45
 1388 212 1388 212 1302 98 c 128,-1,46
 1216 -16 1216 -16 1034 -108 c 0,47,48
 952 -148 952 -148 894 -161 c 128,-1,49
 836 -174 836 -174 728 -174 c 0,50,51
 610 -174 610 -174 562 -164 c 0,52,53
 516 -152 516 -152 442 -104 c 0,54,55
 320 -24 320 -24 250 94 c 0,56,57
 192 182 192 182 180 231 c 128,-1,58
 168 280 168 280 166 432 c 0,59,60
 162 562 162 562 169 609 c 128,-1,61
 176 656 176 656 211 714 c 128,-1,62
 246 772 246 772 266 822 c 0,63,64
 310 928 310 928 370 1024 c 0,65,66
 536 1266 536 1266 536 1328 c 0,67,68
 536 1354 536 1354 719 1536 c 128,-1,69
 902 1718 902 1718 998 1782 c 0,0,1
1446 1552 m 0,70,71
 1462 1580 1462 1580 1462 1590 c 0,72,73
 1462 1634 1462 1634 1402 1586 c 0,74,75
 1370 1560 1370 1560 1350 1522 c 0,76,77
 1280 1414 1280 1414 1344 1414 c 0,78,79
 1350 1414 1350 1414 1371 1438 c 128,-1,80
 1392 1462 1392 1462 1410 1492 c 256,81,82
 1428 1522 1428 1522 1446 1552 c 0,70,71
EndSplineSet
EndChar

StartChar: D
Encoding: 68 68 40
Width: 1947
GlyphClass: 2
Flags: MW
LayerCount: 2
Fore
SplineSet
747 1711 m 128,-1,1
 784 1758 784 1758 898 1856 c 0,2,3
 914 1868 914 1868 958 1908 c 128,-1,4
 1002 1948 1002 1948 1034 1973 c 128,-1,5
 1066 1998 1066 1998 1098 2014 c 0,6,7
 1192 2056 1192 2056 1332 2061 c 128,-1,8
 1472 2066 1472 2066 1570 2044 c 0,9,10
 1788 2004 1788 2004 1866 1850 c 0,11,12
 1918 1744 1918 1744 1996 1648 c 0,13,14
 2080 1546 2080 1546 2102 1442 c 128,-1,15
 2124 1338 2124 1338 2098 1168 c 0,16,17
 2068 990 2068 990 2047 967 c 128,-1,18
 2026 944 2026 944 2026 882 c 0,19,20
 2026 832 2026 832 2002 784 c 0,21,22
 1976 734 1976 734 1882 596 c 0,23,24
 1734 380 1734 380 1597 278 c 128,-1,25
 1460 176 1460 176 1236 108 c 0,26,27
 1088 64 1088 64 1064 44 c 0,28,29
 1030 24 1030 24 916 60 c 0,30,31
 798 102 798 102 790 102 c 0,32,33
 778 102 778 102 694 20 c 0,34,35
 622 -44 622 -44 550 -68 c 0,36,37
 478 -94 478 -94 346 -98 c 0,38,39
 268 -100 268 -100 246 -85 c 128,-1,40
 224 -70 224 -70 174 26 c 0,41,42
 108 162 108 162 108 208 c 0,43,44
 108 270 108 270 165 367 c 128,-1,45
 222 464 222 464 268 482 c 0,46,47
 332 506 332 506 432 502 c 128,-1,48
 532 498 532 498 572 468 c 0,49,50
 666 398 666 398 690 474 c 0,51,52
 692 484 692 484 704 512 c 128,-1,53
 716 540 716 540 733 585 c 128,-1,54
 750 630 750 630 760 664 c 0,55,56
 834 846 834 846 836 905 c 128,-1,57
 838 964 838 964 774 1044 c 0,58,59
 704 1132 704 1132 662 1276 c 0,60,61
 640 1374 640 1374 641 1416 c 128,-1,62
 642 1458 642 1458 680 1566 c 0,63,0
 710 1664 710 1664 747 1711 c 128,-1,1
545 215 m 128,-1,65
 542 232 542 232 498 276 c 0,66,67
 438 336 438 336 416 336 c 0,68,69
 390 336 390 336 356 271 c 128,-1,70
 322 206 322 206 332 172 c 0,71,72
 346 124 346 124 412 123 c 128,-1,73
 478 122 478 122 522 168 c 0,74,64
 548 198 548 198 545 215 c 128,-1,65
1764 1614 m 0,75,76
 1676 1738 1676 1738 1660 1796 c 0,77,78
 1652 1820 1652 1820 1636 1844 c 0,79,80
 1620 1870 1620 1870 1596 1885 c 128,-1,81
 1572 1900 1572 1900 1548 1900 c 0,82,83
 1542 1896 1542 1896 1394 1880 c 0,84,85
 1300 1870 1300 1870 1252 1848 c 256,86,87
 1204 1826 1204 1826 1118 1748 c 0,88,89
 996 1644 996 1644 946 1576 c 128,-1,90
 896 1508 896 1508 878 1428 c 0,91,92
 864 1364 864 1364 885 1290 c 128,-1,93
 906 1216 906 1216 936 1216 c 0,94,95
 956 1216 956 1216 978 1253 c 128,-1,96
 1000 1290 1000 1290 1018 1349 c 128,-1,97
 1036 1408 1036 1408 1040 1468 c 0,98,99
 1044 1492 1044 1492 1045 1521 c 128,-1,100
 1046 1550 1046 1550 1046 1560 c 128,-1,101
 1046 1570 1046 1570 1050 1586 c 256,102,103
 1054 1602 1054 1602 1057 1608 c 128,-1,104
 1060 1614 1060 1614 1072 1624 c 128,-1,105
 1084 1634 1084 1634 1094 1641 c 128,-1,106
 1104 1648 1104 1648 1128 1664 c 0,107,108
 1192 1698 1192 1698 1249 1696 c 128,-1,109
 1306 1694 1306 1694 1336 1657 c 128,-1,110
 1366 1620 1366 1620 1340 1570 c 0,111,112
 1306 1502 1306 1502 1282 1392 c 0,113,114
 1242 1252 1242 1252 1172 1118 c 0,115,116
 1118 1010 1118 1010 1113 985 c 128,-1,117
 1108 960 1108 960 1142 936 c 0,118,119
 1188 906 1188 906 1344 920 c 0,120,121
 1464 932 1464 932 1533 912 c 128,-1,122
 1602 892 1602 892 1602 846 c 0,123,124
 1602 794 1602 794 1527 778 c 128,-1,125
 1452 762 1452 762 1280 772 c 0,126,127
 1224 774 1224 774 1196 776 c 256,128,129
 1168 778 1168 778 1134 776 c 0,130,131
 1098 774 1098 774 1088 774 c 0,132,133
 1074 772 1074 772 1054 762 c 128,-1,134
 1034 752 1034 752 1029 743 c 128,-1,135
 1024 734 1024 734 1014 710 c 0,136,137
 1004 688 1004 688 998 668 c 0,138,139
 994 650 994 650 986 610 c 0,140,141
 956 488 956 488 908 410 c 0,142,143
 864 334 864 334 882 286 c 0,144,145
 888 256 888 256 907 249 c 128,-1,146
 926 242 926 242 982 252 c 0,147,148
 1078 266 1078 266 1132 266 c 0,149,150
 1198 266 1198 266 1266 334 c 0,151,152
 1330 398 1330 398 1408 432 c 0,153,154
 1482 464 1482 464 1482 480 c 128,-1,155
 1482 496 1482 496 1606 636 c 0,156,157
 1714 762 1714 762 1763 863 c 128,-1,158
 1812 964 1812 964 1848 1152 c 0,159,160
 1886 1324 1886 1324 1871 1411 c 128,-1,161
 1856 1498 1856 1498 1764 1614 c 0,75,76
EndSplineSet
EndChar

StartChar: E
Encoding: 69 69 41
Width: 1255
GlyphClass: 2
Flags: MW
LayerCount: 2
Fore
SplineSet
1462 1723 m 128,-1,1
 1488 1680 1488 1680 1489 1644 c 128,-1,2
 1490 1608 1490 1608 1461 1567 c 128,-1,3
 1432 1526 1432 1526 1391 1500 c 128,-1,4
 1350 1474 1350 1474 1310 1474 c 0,5,6
 1198 1474 1198 1474 978 1630 c 0,7,8
 856 1720 856 1720 676 1564 c 0,9,10
 594 1500 594 1500 572 1500 c 0,11,12
 558 1500 558 1500 536 1464 c 128,-1,13
 514 1428 514 1428 500 1376 c 256,14,15
 486 1324 486 1324 479 1272 c 128,-1,16
 472 1220 472 1220 475 1182 c 128,-1,17
 478 1144 478 1144 496 1140 c 0,18,19
 500 1140 500 1140 520 1138 c 0,20,21
 538 1136 538 1136 578 1134 c 0,22,23
 614 1134 614 1134 644 1134 c 0,24,25
 702 1130 702 1130 734 1124 c 128,-1,26
 766 1118 766 1118 788 1102 c 128,-1,27
 810 1086 810 1086 834 1054 c 0,28,29
 888 990 888 990 928 896 c 0,30,31
 942 860 942 860 941 831 c 128,-1,32
 940 802 940 802 932 785 c 128,-1,33
 924 768 924 768 899 750 c 128,-1,34
 874 732 874 732 857 725 c 128,-1,35
 840 718 840 718 804 704 c 128,-1,36
 768 690 768 690 754 684 c 0,37,38
 718 668 718 668 655 646 c 128,-1,39
 592 624 592 624 564 611 c 128,-1,40
 536 598 536 598 491 562 c 128,-1,41
 446 526 446 526 400 470 c 0,42,43
 332 384 332 384 340 330 c 0,44,45
 354 226 354 226 444 186 c 128,-1,46
 534 146 534 146 655 163 c 128,-1,47
 776 180 776 180 907 221 c 128,-1,48
 1038 262 1038 262 1138 311 c 128,-1,49
 1238 360 1238 360 1280 394 c 0,50,51
 1326 432 1326 432 1361 425 c 128,-1,52
 1396 418 1396 418 1398 358 c 0,53,54
 1398 334 1398 334 1378 301 c 128,-1,55
 1358 268 1358 268 1337 245 c 128,-1,56
 1316 222 1316 222 1281 186 c 128,-1,57
 1246 150 1246 150 1240 144 c 0,58,59
 1162 58 1162 58 1027 8 c 128,-1,60
 892 -42 892 -42 738 -68 c 0,61,62
 406 -122 406 -122 206 18 c 0,63,64
 176 40 176 40 154 62 c 128,-1,65
 132 84 132 84 119 109 c 128,-1,66
 106 134 106 134 97 157 c 128,-1,67
 88 180 88 180 87 209 c 128,-1,68
 86 238 86 238 87 261 c 128,-1,69
 88 284 88 284 95 317 c 128,-1,70
 102 350 102 350 107 372 c 128,-1,71
 112 394 112 394 122 432 c 0,72,73
 138 488 138 488 238 668 c 0,74,75
 354 882 354 882 392 862 c 0,76,77
 396 860 396 860 398 858 c 1,78,79
 298 986 298 986 244 1102 c 128,-1,80
 190 1218 190 1218 206 1340 c 0,81,82
 220 1460 220 1460 276 1556 c 128,-1,83
 332 1652 332 1652 436 1738 c 0,84,85
 510 1798 510 1798 595 1832 c 128,-1,86
 680 1866 680 1866 856 1902 c 0,87,88
 910 1914 910 1914 924 1926 c 128,-1,89
 938 1938 938 1938 936 1978 c 0,90,91
 932 1996 932 1996 937 2014 c 128,-1,92
 942 2032 942 2032 953 2048 c 128,-1,93
 964 2064 964 2064 980 2080 c 128,-1,94
 996 2096 996 2096 1014 2107 c 128,-1,95
 1032 2118 1032 2118 1050 2125 c 128,-1,96
 1068 2132 1068 2132 1086 2132 c 0,97,98
 1122 2132 1122 2132 1216 2095 c 128,-1,99
 1310 2058 1310 2058 1310 2040 c 0,100,101
 1310 2024 1310 2024 1258 1964 c 0,102,103
 1216 1906 1216 1906 1225 1883 c 128,-1,104
 1234 1860 1234 1860 1310 1842 c 0,105,106
 1352 1830 1352 1830 1394 1798 c 128,-1,0
 1436 1766 1436 1766 1462 1723 c 128,-1,1
EndSplineSet
EndChar

StartChar: F
Encoding: 70 70 42
Width: 2263
GlyphClass: 2
Flags: MW
LayerCount: 2
Fore
SplineSet
2876 2116 m 0,0,1
 2900 2090 2900 2090 2866 2024 c 256,2,3
 2832 1958 2832 1958 2774 1926 c 0,4,5
 2766 1922 2766 1922 2674 1862 c 0,6,7
 2522 1762 2522 1762 2391 1703 c 128,-1,8
 2260 1644 2260 1644 2126 1644 c 0,9,10
 2074 1640 2074 1640 2051 1640 c 128,-1,11
 2028 1640 2028 1640 1999 1624 c 128,-1,12
 1970 1608 1970 1608 1958 1592 c 0,13,14
 1948 1578 1948 1578 1927 1525 c 128,-1,15
 1906 1472 1906 1472 1896 1424 c 0,16,17
 1892 1402 1892 1402 1882 1362 c 1,18,-1
 1976 1378 l 2,19,20
 2028 1380 2028 1380 2063 1373 c 128,-1,21
 2098 1366 2098 1366 2115 1353 c 128,-1,22
 2132 1340 2132 1340 2139 1324 c 128,-1,23
 2146 1308 2146 1308 2144 1291 c 128,-1,24
 2142 1274 2142 1274 2138 1261 c 128,-1,25
 2134 1248 2134 1248 2130 1240 c 2,26,-1
 2124 1230 l 2,27,28
 2100 1194 2100 1194 2065 1186 c 128,-1,29
 2030 1178 2030 1178 2006 1190 c 2,30,-1
 1984 1200 l 1,31,32
 1906 1206 1906 1206 1836 1176 c 1,33,34
 1794 1010 1794 1010 1772 978 c 0,35,36
 1738 916 1738 916 1776 914 c 0,37,38
 1798 914 1798 914 1832 936 c 128,-1,39
 1866 958 1866 958 1878 962 c 0,40,41
 1924 976 1924 976 1994 964 c 0,42,43
 2110 944 2110 944 2178 856 c 0,44,45
 2192 836 2192 836 2192 822 c 0,46,47
 2192 798 2192 798 2150 774 c 0,48,49
 2090 742 2090 742 2056 736 c 0,50,51
 2024 732 2024 732 2005 742 c 128,-1,52
 1986 752 1986 752 1980 767 c 128,-1,53
 1974 782 1974 782 1962 798 c 128,-1,54
 1950 814 1950 814 1932 818 c 0,55,56
 1922 822 1922 822 1892 796 c 0,57,58
 1860 768 1860 768 1754 724 c 0,59,60
 1702 702 1702 702 1657 662 c 128,-1,61
 1612 622 1612 622 1581 576 c 128,-1,62
 1550 530 1550 530 1519 470 c 128,-1,63
 1488 410 1488 410 1467 359 c 128,-1,64
 1446 308 1446 308 1418 247 c 128,-1,65
 1390 186 1390 186 1370 146 c 0,66,67
 1350 110 1350 110 1325 83 c 128,-1,68
 1300 56 1300 56 1268 41 c 128,-1,69
 1236 26 1236 26 1208 16 c 128,-1,70
 1180 6 1180 6 1137 3 c 128,-1,71
 1094 0 1094 0 1067 0 c 128,-1,72
 1040 0 1040 0 990 1 c 128,-1,73
 940 2 940 2 916 2 c 0,74,75
 758 0 758 0 690 18 c 0,76,77
 646 28 646 28 596 56 c 256,78,79
 546 84 546 84 504 116 c 0,80,81
 460 150 460 150 422 192 c 0,82,83
 382 234 382 234 353 276 c 128,-1,84
 324 318 324 318 308 360 c 128,-1,85
 292 402 292 402 292 434 c 0,86,87
 292 478 292 478 270 510 c 0,88,89
 244 534 244 534 214 650 c 1,90,91
 174 770 174 770 130 826 c 0,92,93
 82 892 82 892 86 923 c 128,-1,94
 90 954 90 954 152 968 c 0,95,96
 248 994 248 994 342 876 c 0,97,98
 390 822 390 822 500 807 c 128,-1,99
 610 792 610 792 946 796 c 2,100,-1
 1410 800 l 1,101,-1
 1468 870 l 2,102,103
 1526 932 1526 932 1526 972 c 0,104,105
 1526 998 1526 998 1542 1038 c 1,106,-1
 1384 990 l 1,107,108
 1404 1034 1404 1034 1390 1046 c 128,-1,109
 1376 1058 1376 1058 1350 1052 c 2,110,-1
 1322 1044 l 1,111,-1
 1246 1006 l 2,112,113
 1230 992 1230 992 1201 990 c 128,-1,114
 1172 988 1172 988 1150 992 c 2,115,-1
 1130 996 l 1,116,117
 1078 1034 1078 1034 1059 1076 c 128,-1,118
 1040 1118 1040 1118 1050 1150 c 128,-1,119
 1060 1182 1060 1182 1077 1209 c 128,-1,120
 1094 1236 1094 1236 1112 1250 c 2,121,-1
 1130 1266 l 1,122,-1
 1402 1282 l 1,123,-1
 1620 1318 l 1,124,125
 1650 1478 1650 1478 1640 1508 c 0,126,127
 1622 1552 1622 1552 1666 1630 c 0,128,129
 1706 1714 1706 1714 1706 1718 c 0,130,131
 1706 1724 1706 1724 1604 1794 c 0,132,133
 1502 1868 1502 1868 1454 1940 c 0,134,135
 1410 2014 1410 2014 1388 2014 c 0,136,137
 1362 2014 1362 2014 1230 1896 c 0,138,139
 1004 1706 1004 1706 906 1824 c 0,140,141
 868 1868 868 1868 782 1912 c 0,142,143
 686 1958 686 1958 654 2024 c 0,144,145
 628 2068 628 2068 635 2097 c 128,-1,146
 642 2126 642 2126 700 2218 c 0,147,148
 766 2320 766 2320 862 2406 c 0,149,150
 956 2492 956 2492 1022 2510 c 0,151,152
 1150 2544 1150 2544 1296 2482 c 128,-1,153
 1442 2420 1442 2420 1468 2320 c 0,154,155
 1476 2276 1476 2276 1500 2230 c 0,156,157
 1522 2182 1522 2182 1538 2138 c 0,158,159
 1542 2108 1542 2108 1556 2086 c 128,-1,160
 1570 2064 1570 2064 1582 2064 c 0,161,162
 1614 2064 1614 2064 1724 1948 c 0,163,164
 1772 1900 1772 1900 1800 1878 c 0,165,166
 1830 1856 1830 1856 1870 1840 c 256,167,168
 1910 1824 1910 1824 1960 1826 c 0,169,170
 2002 1826 2002 1826 2094 1830 c 0,171,172
 2162 1834 2162 1834 2298 1873 c 128,-1,173
 2434 1912 2434 1912 2466 1936 c 0,174,175
 2496 1958 2496 1958 2668 2054 c 0,176,177
 2846 2146 2846 2146 2876 2116 c 0,0,1
1253 2223 m 128,-1,179
 1260 2236 1260 2236 1228 2272 c 0,180,181
 1176 2332 1176 2332 1090 2313 c 128,-1,182
 1004 2294 1004 2294 949 2214 c 128,-1,183
 894 2134 894 2134 920 2101 c 128,-1,184
 946 2068 946 2068 1034 2112 c 0,185,186
 1082 2142 1082 2142 1172 2182 c 0,187,178
 1246 2210 1246 2210 1253 2223 c 128,-1,179
1282 504 m 0,188,189
 1366 676 1366 676 1348 686 c 0,190,191
 1334 694 1334 694 1260 658 c 0,192,193
 1190 620 1190 620 1118 636 c 0,194,195
 1070 646 1070 646 904 652 c 0,196,197
 736 658 736 658 590 658 c 256,198,199
 444 658 444 658 444 646 c 0,200,201
 444 624 444 624 523 438 c 128,-1,202
 602 252 602 252 616 234 c 0,203,204
 652 196 652 196 861 220 c 128,-1,205
 1070 244 1070 244 1136 296 c 0,206,207
 1198 336 1198 336 1282 504 c 0,188,189
EndSplineSet
Substitution2: "'aalt' Access All Alternates lookup 0 subtable" F.alt1
EndChar

StartChar: G
Encoding: 71 71 43
Width: 2245
GlyphClass: 2
Flags: MW
LayerCount: 2
Fore
SplineSet
2294 370 m 0,0,1
 2340 408 2340 408 2374 401 c 128,-1,2
 2408 394 2408 394 2410 334 c 0,3,4
 2410 318 2410 318 2405 303 c 128,-1,5
 2400 288 2400 288 2388 274 c 128,-1,6
 2376 260 2376 260 2365 248 c 128,-1,7
 2354 236 2354 236 2337 223 c 128,-1,8
 2320 210 2320 210 2309 202 c 128,-1,9
 2298 194 2298 194 2279 182 c 128,-1,10
 2260 170 2260 170 2254 164 c 0,11,12
 2058 30 2058 30 1934 4 c 0,13,14
 1872 -12 1872 -12 1720 4 c 128,-1,15
 1568 20 1568 20 1504 13 c 128,-1,16
 1440 6 1440 6 1412 -22 c 0,17,18
 1362 -64 1362 -64 1295 -64 c 128,-1,19
 1228 -64 1228 -64 1166 -104 c 0,20,21
 1110 -146 1110 -146 934 -160 c 0,22,23
 810 -166 810 -166 763 -154 c 128,-1,24
 716 -142 716 -142 590 -68 c 0,25,26
 552 -48 552 -48 487 -23 c 128,-1,27
 422 2 422 2 368 21 c 128,-1,28
 314 40 314 40 255 71 c 128,-1,29
 196 102 196 102 157 137 c 128,-1,30
 118 172 118 172 99 227 c 128,-1,31
 80 282 80 282 90 350 c 0,32,33
 106 432 106 432 168 526 c 0,34,35
 210 592 210 592 253 616 c 128,-1,36
 296 640 296 640 333 632 c 128,-1,37
 370 624 370 624 414 611 c 128,-1,38
 458 598 458 598 503 589 c 128,-1,39
 548 580 548 580 608 606 c 0,40,41
 668 630 668 630 726 724 c 128,-1,42
 784 818 784 818 802 894 c 0,43,44
 812 960 812 960 810 992 c 128,-1,45
 808 1024 808 1024 788 1054 c 128,-1,46
 768 1084 768 1084 747 1101 c 128,-1,47
 726 1118 726 1118 699 1155 c 128,-1,48
 672 1192 672 1192 654 1238 c 0,49,50
 642 1270 642 1270 646 1332 c 0,51,52
 648 1390 648 1390 662 1461 c 128,-1,53
 676 1532 676 1532 703 1610 c 128,-1,54
 730 1688 730 1688 766 1759 c 128,-1,55
 802 1830 802 1830 852 1884 c 128,-1,56
 902 1938 902 1938 957 1964 c 128,-1,57
 1012 1990 1012 1990 1083 1975 c 128,-1,58
 1154 1960 1154 1960 1228 1898 c 0,59,60
 1292 1846 1292 1846 1302 1776 c 128,-1,61
 1312 1706 1312 1706 1278 1534 c 0,62,63
 1250 1386 1250 1386 1278 1363 c 128,-1,64
 1306 1340 1306 1340 1436 1404 c 0,65,66
 1572 1466 1572 1466 1594 1466 c 0,67,68
 1640 1466 1640 1466 1846 1726 c 0,69,70
 1960 1864 1960 1864 2028 1887 c 128,-1,71
 2096 1910 2096 1910 2162 1836 c 0,72,73
 2222 1772 2222 1772 2215 1626 c 128,-1,74
 2208 1480 2208 1480 2142 1392 c 0,75,76
 2082 1316 2082 1316 2062 1234 c 0,77,78
 2046 1168 2046 1168 1994 1056 c 256,79,80
 1942 944 1942 944 1864 794 c 0,81,82
 1786 642 1786 642 1766 602 c 0,83,84
 1720 504 1720 504 1644 392 c 0,85,86
 1528 224 1528 224 1622 192 c 0,87,88
 1664 178 1664 178 1706 152 c 0,89,90
 1762 124 1762 124 1856 138 c 0,91,92
 1862 140 1862 140 1870 142 c 0,93,94
 1900 158 1900 158 1961 180 c 128,-1,95
 2022 202 2022 202 2040 212 c 0,96,97
 2202 294 2202 294 2294 370 c 0,0,1
972 1542 m 128,-1,99
 930 1492 930 1492 940 1478 c 0,100,101
 958 1460 958 1460 1007 1493 c 128,-1,102
 1056 1526 1056 1526 1056 1554 c 0,103,104
 1056 1592 1056 1592 1040 1592 c 0,105,98
 1014 1592 1014 1592 972 1542 c 128,-1,99
804 66 m 0,106,107
 842 72 842 72 804 94 c 0,108,109
 798 96 798 96 780 104 c 0,110,111
 720 128 720 128 698 152 c 1,112,113
 684 180 684 180 661 180 c 128,-1,114
 638 180 638 180 624 156 c 0,115,116
 618 142 618 142 651 118 c 128,-1,117
 684 94 684 94 732 76 c 128,-1,118
 780 58 780 58 804 66 c 0,106,107
1446 498 m 0,119,120
 1524 632 1524 632 1592 774 c 0,121,122
 1660 918 1660 918 1692 1010 c 128,-1,123
 1724 1102 1724 1102 1790 1202 c 0,124,125
 1850 1294 1850 1294 1836 1318 c 0,126,127
 1798 1386 1798 1386 1702 1284 c 0,128,129
 1664 1242 1664 1242 1516 1188 c 0,130,131
 1370 1136 1370 1136 1356 1130 c 0,132,133
 1292 1098 1292 1098 1240 1098 c 0,134,135
 1200 1098 1200 1098 1104 996 c 128,-1,136
 1008 894 1008 894 1008 848 c 0,137,138
 1008 824 1008 824 966 756 c 0,139,140
 762 452 762 452 762 434 c 0,141,142
 762 398 762 398 860 323 c 128,-1,143
 958 248 958 248 1040 220 c 0,144,145
 1152 180 1152 180 1203 196 c 128,-1,146
 1254 212 1254 212 1320 296 c 0,147,148
 1370 364 1370 364 1446 498 c 0,119,120
EndSplineSet
EndChar

StartChar: H
Encoding: 72 72 44
Width: 1873
GlyphClass: 2
Flags: MW
LayerCount: 2
Fore
SplineSet
978 1734 m 0,0,1
 1030 1572 1030 1572 1000 1396 c 0,2,3
 984 1302 984 1302 946 1208 c 0,4,5
 942 1198 942 1198 918 1151 c 128,-1,6
 894 1104 894 1104 877 1063 c 128,-1,7
 860 1022 860 1022 845 973 c 128,-1,8
 830 924 830 924 836 887 c 128,-1,9
 842 850 842 850 870 834 c 0,10,11
 886 828 886 828 912 828 c 0,12,13
 944 828 944 828 1013 760 c 128,-1,14
 1082 692 1082 692 1112 634 c 0,15,16
 1140 580 1140 580 1170 584 c 128,-1,17
 1200 588 1200 588 1216 648 c 0,18,19
 1228 714 1228 714 1260 740 c 0,20,21
 1288 762 1288 762 1304 834 c 0,22,23
 1318 894 1318 894 1418 1110 c 0,24,25
 1516 1316 1516 1316 1516 1340 c 0,26,27
 1516 1362 1516 1362 1584 1490 c 0,28,29
 1646 1598 1646 1598 1652 1644 c 0,30,31
 1652 1682 1652 1682 1690 1752 c 0,32,33
 1752 1850 1752 1850 1888 1796 c 0,34,35
 1908 1790 1908 1790 1913 1766 c 128,-1,36
 1918 1742 1918 1742 1909 1707 c 128,-1,37
 1900 1672 1900 1672 1886 1632 c 128,-1,38
 1872 1592 1872 1592 1851 1550 c 128,-1,39
 1830 1508 1830 1508 1813 1475 c 128,-1,40
 1796 1442 1796 1442 1780 1413 c 128,-1,41
 1764 1384 1764 1384 1762 1378 c 0,42,43
 1732 1318 1732 1318 1722 1284 c 0,44,45
 1720 1274 1720 1274 1714 1245 c 128,-1,46
 1708 1216 1708 1216 1702 1200 c 0,47,48
 1696 1182 1696 1182 1684 1161 c 128,-1,49
 1672 1140 1672 1140 1657 1118 c 128,-1,50
 1642 1096 1642 1096 1634 1080 c 0,51,52
 1608 1030 1608 1030 1567 928 c 128,-1,53
 1526 826 1526 826 1504 784 c 0,54,55
 1498 772 1498 772 1483 745 c 128,-1,56
 1468 718 1468 718 1458 697 c 128,-1,57
 1448 676 1448 676 1437 650 c 128,-1,58
 1426 624 1426 624 1420 600 c 128,-1,59
 1414 576 1414 576 1416 556 c 0,60,61
 1418 512 1418 512 1516 518 c 0,62,63
 1536 518 1536 518 1560 520 c 0,64,65
 1694 536 1694 536 1814 612 c 0,66,67
 1938 692 1938 692 1948 714 c 0,68,69
 1964 740 1964 740 2040 740 c 0,70,71
 2102 740 2102 740 2136 700 c 128,-1,72
 2170 660 2170 660 2150 604 c 0,73,74
 2138 562 2138 562 2057 503 c 128,-1,75
 1976 444 1976 444 1868 398 c 128,-1,76
 1760 352 1760 352 1682 344 c 0,77,78
 1574 330 1574 330 1546 308 c 0,79,80
 1504 280 1504 280 1314 328 c 0,81,82
 1282 338 1282 338 1246 268 c 128,-1,83
 1210 198 1210 198 1194 106 c 0,84,85
 1174 24 1174 24 1155 11 c 128,-1,86
 1136 -2 1136 -2 1136 -62 c 0,87,88
 1136 -96 1136 -96 1116 -139 c 128,-1,89
 1096 -182 1096 -182 1066 -212 c 128,-1,90
 1036 -242 1036 -242 1014 -242 c 0,91,92
 982 -242 982 -242 944 -188 c 0,93,94
 922 -150 922 -150 916 -104 c 0,95,96
 912 -58 912 -58 922 52 c 0,97,98
 934 240 934 240 912 270 c 0,99,100
 906 284 906 284 879 293 c 128,-1,101
 852 302 852 302 810 308 c 0,102,103
 768 312 768 312 740 314 c 0,104,105
 710 314 710 314 660 316 c 256,106,107
 610 318 610 318 604 318 c 0,108,109
 550 324 550 324 530 308 c 128,-1,110
 510 292 510 292 468 214 c 0,111,112
 408 102 408 102 380 2 c 0,113,114
 338 -132 338 -132 296 -187 c 128,-1,115
 254 -242 254 -242 190 -242 c 0,116,117
 120 -242 120 -242 98 -213 c 128,-1,118
 76 -184 76 -184 96 -118 c 0,119,120
 156 94 156 94 200 192 c 0,121,122
 210 212 210 212 265 307 c 128,-1,123
 320 402 320 402 334 460 c 0,124,125
 346 508 346 508 346 594 c 2,126,-1
 346 746 l 1,127,-1
 450 828 l 2,128,129
 550 900 550 900 614 1028 c 0,130,131
 680 1172 680 1172 716 1236 c 0,132,133
 750 1312 750 1312 769 1467 c 128,-1,134
 788 1622 788 1622 764 1638 c 0,135,136
 744 1652 744 1652 672 1516 c 0,137,138
 662 1494 662 1494 650 1470 c 0,139,140
 596 1362 596 1362 560 1306 c 0,141,142
 526 1248 526 1248 494 1214 c 128,-1,143
 462 1180 462 1180 418 1150 c 0,144,145
 368 1120 368 1120 300 1127 c 128,-1,146
 232 1134 232 1134 196 1176 c 0,147,148
 164 1214 164 1214 172 1350 c 128,-1,149
 180 1486 180 1486 218 1546 c 0,150,151
 276 1636 276 1636 366 1713 c 128,-1,152
 456 1790 456 1790 536 1816 c 0,153,154
 630 1848 630 1848 746 1849 c 128,-1,155
 862 1850 862 1850 912 1826 c 0,156,157
 956 1804 956 1804 978 1734 c 0,0,1
396 1398 m 128,-1,159
 434 1424 434 1424 452 1484 c 0,160,161
 488 1572 488 1572 444 1568 c 0,162,163
 412 1562 412 1562 368 1508 c 0,164,165
 304 1426 304 1426 331 1399 c 128,-1,158
 358 1372 358 1372 396 1398 c 128,-1,159
838 514 m 0,166,167
 864 524 864 524 864 542 c 0,168,169
 854 568 854 568 786 597 c 128,-1,170
 718 626 718 626 702 610 c 0,171,172
 690 594 690 594 728 556 c 0,173,174
 770 508 770 508 838 514 c 0,166,167
EndSplineSet
EndChar

StartChar: I
Encoding: 73 73 45
Width: 2173
GlyphClass: 2
Flags: MW
LayerCount: 2
Fore
SplineSet
2234 690 m 0,0,1
 2352 576 2352 576 2102 544 c 0,2,3
 1980 532 1980 532 1842 492 c 0,4,5
 1706 452 1706 452 1630 450 c 2,6,-1
 1626 450 l 2,7,8
 1566 446 1566 446 1561 419 c 128,-1,9
 1556 392 1556 392 1578 242 c 0,10,11
 1578 228 1578 228 1582 216 c 0,12,13
 1590 144 1590 144 1584 110 c 256,14,15
 1578 76 1578 76 1552 46 c 0,16,17
 1468 -40 1468 -40 1356 36 c 0,18,19
 1294 76 1294 76 1310 123 c 128,-1,20
 1326 170 1326 170 1302 184 c 0,21,22
 1284 196 1284 196 1202 168 c 1,23,-1
 1192 160 l 1,24,25
 1180 140 1180 140 1120 108 c 0,26,27
 1092 94 1092 94 1082 88 c 2,28,-1
 1000 38 l 1,29,-1
 986 32 l 1,30,-1
 926 24 l 2,31,32
 882 24 882 24 870 18 c 0,33,34
 842 10 842 10 780 2 c 0,35,36
 764 0 764 0 750 2 c 0,37,38
 680 6 680 6 609 38 c 128,-1,39
 538 70 538 70 480 120 c 128,-1,40
 422 170 422 170 373 221 c 128,-1,41
 324 272 324 272 284 331 c 128,-1,42
 244 390 244 390 223 422 c 128,-1,43
 202 454 202 454 188 482 c 1,44,45
 150 504 150 504 135 538 c 128,-1,46
 120 572 120 572 112 618 c 128,-1,47
 104 664 104 664 90 690 c 0,48,49
 80 710 80 710 94 728 c 0,50,51
 108 748 108 748 130 744 c 2,52,-1
 246 732 l 1,53,54
 334 762 334 762 374 746 c 128,-1,55
 414 730 414 730 466 658 c 0,56,57
 494 618 494 618 530 597 c 128,-1,58
 566 576 566 576 624 558 c 2,59,-1
 634 556 l 2,60,61
 646 552 646 552 668 538 c 2,62,-1
 678 532 l 2,63,64
 692 532 692 532 762 524 c 0,65,66
 838 514 838 514 850 514 c 0,67,68
 866 514 866 514 924 514 c 0,69,70
 1008 514 1008 514 1018 516 c 2,71,-1
 1050 522 l 2,72,73
 1114 532 1114 532 1144 538 c 1,74,-1
 1138 542 l 1,75,76
 1160 552 1160 552 1168 574 c 1,77,78
 1136 658 1136 658 1109 749 c 128,-1,79
 1082 840 1082 840 1055 970 c 128,-1,80
 1028 1100 1028 1100 1031 1224 c 128,-1,81
 1034 1348 1034 1348 1074 1438 c 1,82,-1
 1078 1526 l 2,83,84
 1078 1542 1078 1542 1086 1584 c 0,85,86
 1092 1616 1092 1616 1092 1622 c 0,87,88
 1094 1640 1094 1640 1112 1724 c 2,89,-1
 1120 1756 l 2,90,91
 1126 1784 1126 1784 1128 1840 c 0,92,93
 1128 1844 1128 1844 1122 1856 c 0,94,95
 1104 1892 1104 1892 1110 1928 c 0,96,97
 1116 1962 1116 1962 1142 2004 c 0,98,99
 1154 2024 1154 2024 1172 2057 c 128,-1,100
 1190 2090 1190 2090 1200 2106 c 128,-1,101
 1210 2122 1210 2122 1228 2144 c 128,-1,102
 1246 2166 1246 2166 1268 2184 c 128,-1,103
 1290 2202 1290 2202 1322 2220 c 0,104,105
 1496 2320 1496 2320 1608 2320 c 0,106,107
 1686 2320 1686 2320 1752 2266 c 1,108,109
 1852 2242 1852 2242 1906 2162 c 0,110,111
 1982 2048 1982 2048 1928 1858 c 0,112,113
 1836 1502 1836 1502 1804 1442 c 0,114,115
 1792 1420 1792 1420 1746 1284 c 0,116,117
 1710 1180 1710 1180 1696 1150 c 1,118,-1
 1698 1148 l 1,119,-1
 1694 1144 l 2,120,121
 1684 1124 1684 1124 1676 1116 c 0,122,123
 1662 1102 1662 1102 1612 1036 c 1,124,125
 1564 920 1564 920 1538 810 c 1,126,-1
 1542 814 l 1,127,128
 1528 686 1528 686 1618 666 c 1,129,-1
 1624 670 l 1,130,131
 1650 656 1650 656 1914 700 c 0,132,133
 2110 732 2110 732 2151 732 c 128,-1,134
 2192 732 2192 732 2234 690 c 0,0,1
872 210 m 1,135,-1
 1058 294 l 1,136,-1
 970 308 l 1,137,-1
 794 348 l 2,138,139
 720 372 720 372 684 374 c 0,140,141
 666 374 666 374 640 384 c 128,-1,142
 614 394 614 394 578 398 c 0,143,144
 500 406 500 406 458 428 c 0,145,146
 448 434 448 434 430 438 c 128,-1,147
 412 442 412 442 400 444 c 2,148,-1
 386 444 l 1,149,150
 470 360 470 360 484 340 c 0,151,152
 488 336 488 336 493 331 c 128,-1,153
 498 326 498 326 503 322 c 128,-1,154
 508 318 508 318 516 312 c 128,-1,155
 524 306 524 306 531 302 c 128,-1,156
 538 298 538 298 551 291 c 128,-1,157
 564 284 564 284 574 278 c 0,158,159
 658 228 658 228 714 220 c 2,160,-1
 872 210 l 1,135,-1
1456 1414 m 1,161,-1
 1546 1642 l 1,162,163
 1562 1758 1562 1758 1570 1778 c 0,164,165
 1570 1784 1570 1784 1574 1822 c 0,166,167
 1580 1868 1580 1868 1582 1884 c 0,168,169
 1590 1908 1590 1908 1587 1972 c 128,-1,170
 1584 2036 1584 2036 1570 2050 c 1,171,172
 1566 2048 l 0,173,174
 1562 2046 1562 2046 1554 2040 c 128,-1,175
 1546 2034 1546 2034 1538 2026 c 2,176,-1
 1522 2012 l 1,177,-1
 1506 2016 l 1,178,179
 1452 1982 1452 1982 1416 1770 c 1,180,181
 1366 1600 1366 1600 1362 1580 c 0,182,183
 1362 1568 1362 1568 1348 1538 c 0,184,185
 1326 1490 1326 1490 1312 1446 c 0,186,187
 1290 1370 1290 1370 1278 1090 c 1,188,-1
 1284 970 l 1,189,-1
 1302 894 l 1,190,191
 1310 912 1310 912 1318 934 c 2,192,-1
 1366 1060 l 1,193,-1
 1456 1414 l 1,161,-1
EndSplineSet
EndChar

StartChar: J
Encoding: 74 74 46
Width: 1711
GlyphClass: 2
Flags: MW
LayerCount: 2
Fore
SplineSet
1760 334 m 0,0,1
 1804 370 1804 370 1837 364 c 128,-1,2
 1870 358 1870 358 1870 300 c 0,3,4
 1870 282 1870 282 1862 264 c 128,-1,5
 1854 246 1854 246 1844 233 c 128,-1,6
 1834 220 1834 220 1815 204 c 128,-1,7
 1796 188 1796 188 1784 180 c 128,-1,8
 1772 172 1772 172 1749 157 c 128,-1,9
 1726 142 1726 142 1722 138 c 0,10,11
 1674 106 1674 106 1624 84 c 0,12,13
 1598 72 1598 72 1505 42 c 128,-1,14
 1412 12 1412 12 1277 -23 c 128,-1,15
 1142 -58 1142 -58 1027 -71 c 128,-1,16
 912 -84 912 -84 844 -58 c 0,17,18
 818 -46 818 -46 793 -45 c 128,-1,19
 768 -44 768 -44 748 -53 c 128,-1,20
 728 -62 728 -62 709 -79 c 128,-1,21
 690 -96 690 -96 674 -116 c 128,-1,22
 658 -136 658 -136 641 -164 c 128,-1,23
 624 -192 624 -192 611 -216 c 128,-1,24
 598 -240 598 -240 582 -269 c 128,-1,25
 566 -298 566 -298 554 -318 c 0,26,27
 434 -506 434 -506 386 -536 c 0,28,29
 320 -584 320 -584 242 -648 c 0,30,31
 182 -698 182 -698 136 -706 c 0,32,33
 90 -716 90 -716 -94 -718 c 2,34,-1
 -348 -722 l 1,35,-1
 -348 -554 l 2,36,37
 -348 -438 -348 -438 -336 -398 c 128,-1,38
 -324 -358 -324 -358 -264 -284 c 0,39,40
 -186 -186 -186 -186 14 -42 c 0,41,42
 202 94 202 94 218 130 c 0,43,44
 232 164 232 164 366 204 c 0,45,46
 522 256 522 256 548 288 c 0,47,48
 572 320 572 320 539 422 c 128,-1,49
 506 524 506 524 451 640 c 128,-1,50
 396 756 396 756 390 772 c 0,51,52
 276 1150 276 1150 346 1500 c 0,53,54
 404 1790 404 1790 566 1938 c 1,55,56
 568 1940 l 0,57,58
 698 2056 698 2056 871 2057 c 128,-1,59
 1044 2058 1044 2058 1164 1928 c 0,60,61
 1206 1882 1206 1882 1206 1660 c 0,62,63
 1206 1508 1206 1508 1187 1383 c 128,-1,64
 1168 1258 1168 1258 1112 1010 c 0,65,66
 1050 726 1050 726 1026 602 c 2,67,-1
 1010 498 l 1,68,-1
 1118 514 l 2,69,70
 1184 524 1184 524 1216 516 c 0,71,72
 1246 508 1246 508 1292 468 c 2,73,-1
 1360 410 l 1,74,-1
 1310 360 l 2,75,76
 1260 306 1260 306 1144 286 c 0,77,78
 1112 278 1112 278 1063 258 c 128,-1,79
 1014 238 1014 238 966 205 c 128,-1,80
 918 172 918 172 910 134 c 128,-1,81
 902 96 902 96 952 54 c 0,82,83
 978 34 978 34 1012 29 c 128,-1,84
 1046 24 1046 24 1092 33 c 128,-1,85
 1138 42 1138 42 1173 53 c 128,-1,86
 1208 64 1208 64 1265 84 c 128,-1,87
 1322 104 1322 104 1348 112 c 0,88,89
 1378 130 1378 130 1439 152 c 128,-1,90
 1500 174 1500 174 1516 182 c 0,91,92
 1672 262 1672 262 1760 334 c 0,0,1
322 -278 m 0,93,94
 494 -38 494 -38 494 2 c 0,95,96
 494 86 494 86 290 -92 c 2,97,-1
 272 -108 l 2,98,99
 158 -210 158 -210 128 -210 c 0,100,101
 80 -210 80 -210 -31 -331 c 128,-1,102
 -142 -452 -142 -452 -152 -506 c 0,103,104
 -156 -556 -156 -556 -146 -566 c 128,-1,105
 -136 -576 -136 -576 -88 -570 c 0,106,107
 -8 -564 -8 -564 119 -473 c 128,-1,108
 246 -382 246 -382 322 -278 c 0,93,94
852 760 m 0,109,110
 1050 1716 1050 1716 970 1822 c 0,111,112
 940 1852 940 1852 866 1852 c 0,113,114
 842 1852 842 1852 823 1848 c 128,-1,115
 804 1844 804 1844 786 1829 c 128,-1,116
 768 1814 768 1814 748 1792 c 0,117,118
 726 1770 726 1770 696 1734 c 0,119,120
 616 1632 616 1632 581 1518 c 128,-1,121
 546 1404 546 1404 528 1198 c 0,122,123
 518 1070 518 1070 523 1026 c 128,-1,124
 528 982 528 982 562 938 c 0,125,126
 612 864 612 864 636 734 c 0,127,128
 664 598 664 598 686 586 c 0,129,130
 706 568 706 568 706 522 c 0,131,132
 706 434 706 434 754 500 c 0,133,134
 814 588 814 588 852 760 c 0,109,110
EndSplineSet
EndChar

StartChar: K
Encoding: 75 75 47
Width: 1779
GlyphClass: 2
Flags: MW
LayerCount: 2
Fore
SplineSet
1764 244 m 0,0,1
 1806 280 1806 280 1838 273 c 128,-1,2
 1870 266 1870 266 1870 212 c 0,3,4
 1870 196 1870 196 1865 182 c 128,-1,5
 1860 168 1860 168 1850 155 c 128,-1,6
 1840 142 1840 142 1830 131 c 128,-1,7
 1820 120 1820 120 1803 108 c 128,-1,8
 1786 96 1786 96 1776 88 c 128,-1,9
 1766 80 1766 80 1749 69 c 128,-1,10
 1732 58 1732 58 1726 54 c 0,11,12
 1660 8 1660 8 1584 -22 c 1,13,14
 1542 -50 1542 -50 1456 -54 c 0,15,16
 1428 -56 1428 -56 1404 -54 c 0,17,18
 1388 -54 1388 -54 1384 -54 c 0,19,20
 1246 -50 1246 -50 1176 -11 c 128,-1,21
 1106 28 1106 28 932 194 c 0,22,23
 708 414 708 414 678 400 c 0,24,25
 652 390 652 390 591 299 c 128,-1,26
 530 208 530 208 530 176 c 0,27,28
 530 146 530 146 478 60 c 0,29,30
 424 -20 424 -20 406 -80 c 0,31,32
 390 -146 390 -146 343 -168 c 128,-1,33
 296 -190 296 -190 253 -151 c 128,-1,34
 210 -112 210 -112 213 -80 c 128,-1,35
 216 -48 216 -48 280 84 c 0,36,37
 334 202 334 202 333 238 c 128,-1,38
 332 274 332 274 270 274 c 0,39,40
 220 274 220 274 156 328 c 0,41,42
 110 362 110 362 98 389 c 128,-1,43
 86 416 86 416 86 472 c 0,44,45
 92 694 92 694 138 776 c 0,46,47
 158 812 158 812 186 819 c 128,-1,48
 214 826 214 826 332 818 c 0,49,50
 502 806 502 806 534 790 c 0,51,52
 622 756 622 756 712 899 c 128,-1,53
 802 1042 802 1042 802 1212 c 0,54,55
 802 1342 802 1342 771 1352 c 128,-1,56
 740 1362 740 1362 668 1250 c 0,57,58
 612 1166 612 1166 544 1142 c 0,59,60
 504 1132 504 1132 454 1142 c 128,-1,61
 404 1152 404 1152 361 1178 c 128,-1,62
 318 1204 318 1204 302 1238 c 0,63,64
 280 1280 280 1280 286 1378 c 128,-1,65
 292 1476 292 1476 318 1544 c 0,66,67
 348 1610 348 1610 348 1633 c 128,-1,68
 348 1656 348 1656 446 1770 c 0,69,70
 538 1876 538 1876 628 1938 c 128,-1,71
 718 2000 718 2000 842 2026 c 0,72,73
 914 2042 914 2042 956 2030 c 0,74,75
 1026 2010 1026 2010 1062 1926 c 0,76,77
 1136 1756 1136 1756 1098 1444 c 0,78,79
 1080 1296 1080 1296 1056 1274 c 0,80,81
 1038 1256 1038 1256 1038 1166 c 0,82,83
 1038 1094 1038 1094 986 984 c 0,84,85
 932 874 932 874 860 800 c 0,86,87
 792 728 792 728 824 694 c 0,88,89
 834 688 834 688 851 688 c 128,-1,90
 868 688 868 688 994 798 c 256,91,92
 1120 908 1120 908 1266 1054 c 0,93,94
 1398 1186 1398 1186 1476 1295 c 128,-1,95
 1554 1404 1554 1404 1554 1456 c 0,96,97
 1560 1506 1560 1506 1576 1534 c 0,98,99
 1592 1560 1592 1560 1645 1560 c 128,-1,100
 1698 1560 1698 1560 1734 1534 c 0,101,102
 1786 1496 1786 1496 1735 1371 c 128,-1,103
 1684 1246 1684 1246 1556 1096 c 0,104,105
 1442 962 1442 962 1238 773 c 128,-1,106
 1034 584 1034 584 986 564 c 0,107,108
 932 548 932 548 949 486 c 128,-1,109
 966 424 966 424 1048 342 c 0,110,111
 1152 244 1152 244 1152 214 c 0,112,113
 1152 188 1152 188 1198 146 c 0,114,115
 1210 134 1210 134 1226 126 c 128,-1,116
 1242 118 1242 118 1265 114 c 128,-1,117
 1288 110 1288 110 1306 107 c 128,-1,118
 1324 104 1324 104 1353 106 c 128,-1,119
 1382 108 1382 108 1398 109 c 128,-1,120
 1414 110 1414 110 1447 115 c 128,-1,121
 1480 120 1480 120 1489 122 c 128,-1,122
 1498 124 1498 124 1530 130 c 0,123,-1
 1562 136 l 2,124,125
 1592 142 1592 142 1618 152 c 128,-1,126
 1644 162 1644 162 1671 179 c 128,-1,127
 1698 196 1698 196 1715 208 c 128,-1,128
 1732 220 1732 220 1764 244 c 0,0,1
628 1482 m 0,129,130
 756 1604 756 1604 688 1672 c 0,131,132
 658 1702 658 1702 620 1700 c 128,-1,133
 582 1698 582 1698 560 1672 c 0,134,135
 524 1626 524 1626 493 1541 c 128,-1,136
 462 1456 462 1456 472 1434 c 0,137,138
 502 1354 502 1354 628 1482 c 0,129,130
451 538 m 128,-1,140
 482 564 482 564 478 580 c 0,141,142
 468 610 468 610 411 613 c 128,-1,143
 354 616 354 616 328 590 c 0,144,145
 306 568 306 568 302 537 c 128,-1,146
 298 506 298 506 324 492 c 0,147,148
 338 482 338 482 379 497 c 128,-1,139
 420 512 420 512 451 538 c 128,-1,140
EndSplineSet
EndChar

StartChar: L
Encoding: 76 76 48
Width: 1911
GlyphClass: 2
Flags: MW
LayerCount: 2
Fore
SplineSet
1924 386 m 2,0,1
 1926 388 l 256,2,3
 1928 390 1928 390 1930 390 c 0,4,5
 1978 432 1978 432 2008 418 c 0,6,7
 2030 406 2030 406 2036 376 c 0,8,9
 2048 298 2048 298 1932 212 c 0,10,11
 1764 90 1764 90 1586 -20 c 0,12,13
 1560 -36 1560 -36 1546 -40 c 0,14,15
 1526 -44 1526 -44 1488 -34 c 0,16,17
 1372 -4 1372 -4 1124 74 c 0,18,19
 1016 100 1016 100 954 112 c 0,20,21
 848 132 848 132 812 154 c 0,22,23
 780 174 780 174 684 114 c 0,24,25
 604 66 604 66 528 40 c 128,-1,26
 452 14 452 14 376 14 c 128,-1,27
 300 14 300 14 231 56 c 128,-1,28
 162 98 162 98 112 182 c 0,29,30
 102 198 102 198 96 215 c 128,-1,31
 90 232 90 232 88 252 c 128,-1,32
 86 272 86 272 86 285 c 128,-1,33
 86 298 86 298 90 323 c 128,-1,34
 94 348 94 348 96 357 c 128,-1,35
 98 366 98 366 105 395 c 128,-1,36
 112 424 112 424 112 430 c 0,37,38
 128 498 128 498 167 557 c 128,-1,39
 206 616 206 616 258 634 c 0,40,41
 324 658 324 658 435 647 c 128,-1,42
 546 636 546 636 586 604 c 0,43,44
 702 516 702 516 767 539 c 128,-1,45
 832 562 832 562 908 716 c 0,46,47
 948 800 948 800 1016 942 c 0,48,49
 1152 1222 1152 1222 854 1196 c 0,50,51
 750 1186 750 1186 676 1226 c 0,52,53
 544 1300 544 1300 458 1326 c 0,54,55
 402 1342 402 1342 377 1378 c 128,-1,56
 352 1414 352 1414 376 1444 c 0,57,58
 396 1470 396 1470 446 1450 c 0,59,60
 548 1406 548 1406 616 1384 c 256,61,62
 684 1362 684 1362 746 1356 c 0,63,64
 810 1350 810 1350 904 1352 c 0,65,66
 1098 1352 1098 1352 1146 1384 c 0,67,68
 1166 1402 1166 1402 1196 1451 c 128,-1,69
 1226 1500 1226 1500 1247 1562 c 128,-1,70
 1268 1624 1268 1624 1278 1676 c 0,71,72
 1284 1730 1284 1730 1353 1825 c 128,-1,73
 1422 1920 1422 1920 1492 1966 c 0,74,75
 1578 2024 1578 2024 1722 1940 c 0,76,77
 1772 1910 1772 1910 1782 1885 c 128,-1,78
 1792 1860 1792 1860 1790 1772 c 0,79,80
 1786 1660 1786 1660 1758 1578 c 128,-1,81
 1730 1496 1730 1496 1670 1435 c 128,-1,82
 1610 1374 1610 1374 1512 1326 c 0,83,84
 1418 1280 1418 1280 1375 1215 c 128,-1,85
 1332 1150 1332 1150 1250 934 c 0,86,87
 1110 572 1110 572 1024 430 c 0,88,89
 974 348 974 348 1001 296 c 128,-1,90
 1028 244 1028 244 1126 236 c 0,91,92
 1256 224 1256 224 1412 174 c 0,93,94
 1510 140 1510 140 1624 184 c 0,95,96
 1666 198 1666 198 1703 218 c 128,-1,97
 1740 238 1740 238 1786 274 c 128,-1,98
 1832 310 1832 310 1850 324 c 128,-1,99
 1868 338 1868 338 1924 386 c 2,0,1
1468 1700 m 1,100,101
 1386 1564 1386 1564 1464 1560 c 0,102,103
 1492 1564 1492 1564 1532 1601 c 128,-1,104
 1572 1638 1572 1638 1597 1684 c 128,-1,105
 1622 1730 1622 1730 1610 1750 c 0,106,107
 1564 1840 1564 1840 1468 1700 c 1,100,101
530 288 m 0,108,109
 614 336 614 336 612 368 c 128,-1,110
 610 400 610 400 520 432 c 0,111,112
 440 466 440 466 423 464 c 128,-1,113
 406 462 406 462 358 424 c 0,114,115
 314 386 314 386 317 354 c 128,-1,116
 320 322 320 322 374 280 c 0,117,118
 418 246 418 246 437 248 c 128,-1,119
 456 250 456 250 530 288 c 0,108,109
EndSplineSet
EndChar

StartChar: M
Encoding: 77 77 49
Width: 2321
GlyphClass: 2
Flags: MW
LayerCount: 2
Fore
SplineSet
430 1930 m 0,0,1
 558 2004 558 2004 570 2014 c 0,2,3
 610 2054 610 2054 652 2010 c 0,4,5
 680 1982 680 1982 730 2010 c 0,6,7
 780 2036 780 2036 854 2000 c 0,8,9
 900 1976 900 1976 916 1947 c 128,-1,10
 932 1918 932 1918 942 1838 c 0,11,12
 960 1728 960 1728 986 1707 c 128,-1,13
 1012 1686 1012 1686 1068 1736 c 0,14,15
 1118 1788 1118 1788 1152 1788 c 128,-1,16
 1186 1788 1186 1788 1246 1828 c 0,17,18
 1344 1894 1344 1894 1438 1827 c 128,-1,19
 1532 1760 1532 1760 1532 1622 c 0,20,21
 1532 1548 1532 1548 1555 1544 c 128,-1,22
 1578 1540 1578 1540 1648 1598 c 0,23,24
 1832 1750 1832 1750 1933 1776 c 128,-1,25
 2034 1802 2034 1802 2130 1722 c 2,26,-1
 2208 1654 l 1,27,-1
 2192 1466 l 2,28,29
 2172 1276 2172 1276 2112 1156 c 0,30,31
 2052 1028 2052 1028 2052 1007 c 128,-1,32
 2052 986 2052 986 2020 916 c 0,33,34
 1956 794 1956 794 1970 561 c 128,-1,35
 1984 328 1984 328 2058 304 c 0,36,37
 2108 294 2108 294 2192 342 c 0,38,39
 2274 396 2274 396 2338 396 c 0,40,41
 2390 396 2390 396 2435 348 c 128,-1,42
 2480 300 2480 300 2462 262 c 0,43,44
 2444 218 2444 218 2343 169 c 128,-1,45
 2242 120 2242 120 2144 106 c 0,46,47
 2076 98 2076 98 2041 105 c 128,-1,48
 2006 112 2006 112 1956 148 c 0,49,50
 1850 226 1850 226 1815 320 c 128,-1,51
 1780 414 1780 414 1780 612 c 0,52,53
 1780 852 1780 852 1800 930 c 0,54,55
 1842 1062 1842 1062 1876 1210 c 256,56,57
 1910 1358 1910 1358 1918 1444 c 0,58,59
 1928 1530 1928 1530 1910 1540 c 1,60,61
 1840 1540 1840 1540 1598 1238 c 128,-1,62
 1356 936 1356 936 1326 810 c 0,63,64
 1312 742 1312 742 1228 548 c 128,-1,65
 1144 354 1144 354 1058 194 c 0,66,67
 1016 116 1016 116 958 100 c 128,-1,68
 900 84 900 84 864 137 c 128,-1,69
 828 190 828 190 850 280 c 0,70,71
 860 350 860 350 910 448 c 0,72,73
 960 540 960 540 960 590 c 128,-1,74
 960 640 960 640 1008 704 c 0,75,76
 1062 770 1062 770 1067 830 c 128,-1,77
 1072 890 1072 890 1112 936 c 0,78,79
 1164 992 1164 992 1251 1261 c 128,-1,80
 1338 1530 1338 1530 1316 1570 c 0,81,82
 1306 1586 1306 1586 1207 1537 c 128,-1,83
 1108 1488 1108 1488 1108 1465 c 128,-1,84
 1108 1442 1108 1442 966 1208 c 1,85,86
 826 994 826 994 768 828 c 0,87,88
 708 672 708 672 648 584 c 0,89,90
 584 484 584 484 584 460 c 0,91,92
 582 420 582 420 490 250 c 0,93,94
 444 164 444 164 414 117 c 128,-1,95
 384 70 384 70 370 64 c 0,96,97
 334 46 334 46 308 64 c 0,98,99
 176 150 176 150 276 330 c 0,100,101
 334 436 334 436 362 488 c 0,102,103
 420 590 420 590 446 646 c 0,104,105
 480 718 480 718 511 811 c 128,-1,106
 542 904 542 904 561 980 c 128,-1,107
 580 1056 580 1056 609 1150 c 128,-1,108
 638 1244 638 1244 670 1314 c 0,109,110
 730 1452 730 1452 740 1505 c 128,-1,111
 750 1558 750 1558 740 1658 c 2,112,-1
 722 1802 l 1,113,-1
 634 1796 l 2,114,115
 550 1784 550 1784 513 1751 c 128,-1,116
 476 1718 476 1718 506 1678 c 0,117,118
 574 1600 574 1600 416 1434 c 0,119,120
 242 1254 242 1254 140 1314 c 0,121,122
 86 1342 86 1342 86 1448 c 128,-1,123
 86 1554 86 1554 136 1672 c 0,124,125
 174 1756 174 1756 224 1800 c 128,-1,126
 274 1844 274 1844 430 1930 c 0,0,1
EndSplineSet
EndChar

StartChar: N
Encoding: 78 78 50
Width: 2401
GlyphClass: 2
Flags: MW
LayerCount: 2
Fore
SplineSet
2428 428 m 0,0,1
 2476 468 2476 468 2512 461 c 128,-1,2
 2548 454 2548 454 2550 390 c 0,3,4
 2550 346 2550 346 2517 301 c 128,-1,5
 2484 256 2484 256 2429 218 c 128,-1,6
 2374 180 2374 180 2308 145 c 128,-1,7
 2242 110 2242 110 2174 84 c 128,-1,8
 2106 58 2106 58 2051 41 c 128,-1,9
 1996 24 1996 24 1958 16 c 0,10,11
 1864 -2 1864 -2 1769 -3 c 128,-1,12
 1674 -4 1674 -4 1579 16 c 128,-1,13
 1484 36 1484 36 1403 89 c 128,-1,14
 1322 142 1322 142 1270 224 c 0,15,16
 1180 364 1180 364 1199 539 c 128,-1,17
 1218 714 1218 714 1352 1008 c 0,18,19
 1426 1172 1426 1172 1446 1244 c 0,20,21
 1460 1302 1460 1302 1528 1426 c 0,22,23
 1620 1594 1620 1594 1546 1590 c 0,24,25
 1494 1586 1494 1586 1390 1492 c 0,26,27
 1302 1416 1302 1416 1214 1348 c 0,28,29
 1154 1306 1154 1306 987 1075 c 128,-1,30
 820 844 820 844 778 752 c 0,31,32
 742 658 742 658 668 554 c 0,33,34
 544 370 544 370 418 142 c 0,35,36
 354 14 354 14 332 14 c 0,37,38
 318 14 318 14 258 0 c 0,39,40
 202 -16 202 -16 142 66 c 2,41,-1
 86 148 l 1,42,-1
 160 260 l 2,43,44
 210 332 210 332 310 514 c 128,-1,45
 410 696 410 696 458 762 c 0,46,47
 496 818 496 818 550 920 c 0,48,49
 604 1020 604 1020 648 1120 c 256,50,51
 692 1220 692 1220 708 1272 c 0,52,53
 726 1340 726 1340 782 1444 c 0,54,55
 824 1518 824 1518 835 1613 c 128,-1,56
 846 1708 846 1708 816 1734 c 0,57,58
 808 1746 808 1746 753 1725 c 128,-1,59
 698 1704 698 1704 632 1672 c 0,60,61
 568 1638 568 1638 506 1600 c 0,62,63
 444 1564 444 1564 422 1538 c 0,64,65
 374 1486 374 1486 331 1487 c 128,-1,66
 288 1488 288 1488 232 1552 c 0,67,68
 172 1620 172 1620 172 1626 c 0,69,70
 172 1656 172 1656 425 1801 c 128,-1,71
 678 1946 678 1946 802 1992 c 0,72,73
 860 2010 860 2010 950 2003 c 128,-1,74
 1040 1996 1040 1996 1084 1966 c 0,75,76
 1110 1950 1110 1950 1121 1930 c 128,-1,77
 1132 1910 1132 1910 1136 1874 c 256,78,79
 1140 1838 1140 1838 1140 1768 c 2,80,-1
 1140 1616 l 1,81,-1
 1296 1734 l 2,82,83
 1400 1816 1400 1816 1451 1839 c 128,-1,84
 1502 1862 1502 1862 1598 1862 c 0,85,86
 1710 1864 1710 1864 1734 1851 c 128,-1,87
 1758 1838 1758 1838 1780 1768 c 0,88,89
 1814 1682 1814 1682 1796 1556 c 0,90,91
 1770 1400 1770 1400 1710 1197 c 128,-1,92
 1650 994 1650 994 1598 898 c 0,93,94
 1534 770 1534 770 1534 708 c 0,95,96
 1534 648 1534 648 1498 622 c 0,97,98
 1452 582 1452 582 1438 516 c 128,-1,99
 1424 450 1424 450 1439 387 c 128,-1,100
 1454 324 1454 324 1495 273 c 128,-1,101
 1536 222 1536 222 1590 208 c 0,102,103
 1694 190 1694 190 1830 199 c 128,-1,104
 1966 208 1966 208 2092 234 c 0,105,106
 2138 250 2138 250 2158 260 c 0,107,108
 2330 350 2330 350 2428 428 c 0,0,1
EndSplineSet
EndChar

StartChar: O
Encoding: 79 79 51
Width: 1595
GlyphClass: 2
Flags: MW
LayerCount: 2
Fore
SplineSet
1021 1785 m 128,-1,1
 1040 1790 1040 1790 1094 1830 c 0,2,3
 1178 1894 1178 1894 1322 1914 c 0,4,5
 1352 1914 1352 1914 1458 1820 c 0,6,7
 1700 1594 1700 1594 1552 1302 c 0,8,9
 1460 1122 1460 1122 1500 1112 c 0,10,11
 1504 1112 1504 1112 1510 1116 c 0,12,13
 1602 1156 1602 1156 1661 1175 c 128,-1,14
 1720 1194 1720 1194 1757 1195 c 128,-1,15
 1794 1196 1794 1196 1809 1179 c 128,-1,16
 1824 1162 1824 1162 1824 1126 c 0,17,18
 1824 1062 1824 1062 1752 1006 c 128,-1,19
 1680 950 1680 950 1554 920 c 0,20,21
 1466 900 1466 900 1430 878 c 128,-1,22
 1394 856 1394 856 1362 810 c 0,23,24
 500 -564 500 -564 156 142 c 0,25,26
 114 236 114 236 95 371 c 128,-1,27
 76 506 76 506 100 564 c 0,28,29
 146 678 146 678 208 1014 c 0,30,31
 238 1154 238 1154 294 1264 c 0,32,33
 352 1392 352 1392 352 1406 c 0,34,35
 352 1440 352 1440 542 1591 c 128,-1,36
 732 1742 732 1742 824 1786 c 0,37,38
 902 1824 902 1824 929 1827 c 128,-1,39
 956 1830 956 1830 978 1806 c 0,40,0
 1002 1780 1002 1780 1021 1785 c 128,-1,1
908 1358 m 0,41,42
 874 1406 874 1406 874 1470 c 0,43,44
 874 1540 874 1540 851 1542 c 128,-1,45
 828 1544 828 1544 746 1480 c 0,46,47
 508 1292 508 1292 446 1146 c 0,48,49
 392 1024 392 1024 325 723 c 128,-1,50
 258 422 258 422 272 364 c 0,51,52
 282 300 282 300 282 234 c 0,53,54
 282 180 282 180 324 136 c 128,-1,55
 366 92 366 92 416 92 c 0,56,57
 534 92 534 92 768 322 c 256,58,59
 1002 552 1002 552 1128 792 c 2,60,-1
 1192 918 l 1,61,-1
 1084 1022 l 2,62,63
 972 1132 972 1132 956 1220 c 0,64,65
 938 1312 938 1312 908 1358 c 0,41,42
1399 1481 m 128,-1,67
 1416 1584 1416 1584 1386 1632 c 0,68,69
 1370 1654 1370 1654 1299 1654 c 128,-1,70
 1228 1654 1228 1654 1208 1598 c 0,71,72
 1198 1570 1198 1570 1181 1553 c 128,-1,73
 1164 1536 1164 1536 1150 1536 c 0,74,75
 1116 1536 1116 1536 1108 1459 c 128,-1,76
 1100 1382 1100 1382 1124 1286 c 256,77,78
 1148 1190 1148 1190 1188 1142 c 0,79,80
 1204 1122 1204 1122 1216 1116 c 128,-1,81
 1228 1110 1228 1110 1245 1125 c 128,-1,82
 1262 1140 1262 1140 1280 1172 c 128,-1,83
 1298 1204 1298 1204 1330 1268 c 0,84,66
 1382 1378 1382 1378 1399 1481 c 128,-1,67
EndSplineSet
EndChar

StartChar: P
Encoding: 80 80 52
Width: 1799
GlyphClass: 2
Flags: MW
LayerCount: 2
Fore
SplineSet
690 1146 m 0,0,1
 812 1406 812 1406 812 1448 c 0,2,3
 812 1470 812 1470 826 1486 c 256,4,5
 840 1502 840 1502 852 1518 c 0,6,7
 866 1534 866 1534 866 1558 c 0,8,9
 850 1604 850 1604 763 1577 c 128,-1,10
 676 1550 676 1550 652 1528 c 0,11,12
 572 1462 572 1462 477 1487 c 128,-1,13
 382 1512 382 1512 382 1600 c 0,14,15
 382 1634 382 1634 466 1695 c 128,-1,16
 550 1756 550 1756 600 1756 c 0,17,18
 630 1756 630 1756 736 1801 c 128,-1,19
 842 1846 842 1846 850 1846 c 0,20,21
 896 1858 896 1858 1162 1849 c 128,-1,22
 1428 1840 1428 1840 1562 1820 c 0,23,24
 1684 1804 1684 1804 1828 1690 c 1,25,26
 2012 1558 2012 1558 2008 1415 c 128,-1,27
 2004 1272 2004 1272 1818 1002 c 0,28,29
 1726 872 1726 872 1672 806 c 0,30,31
 1620 740 1620 740 1585 713 c 128,-1,32
 1550 686 1550 686 1520 686 c 0,33,34
 1468 686 1468 686 1422 640 c 0,35,36
 1342 550 1342 550 1125 472 c 128,-1,37
 908 394 908 394 782 408 c 0,38,39
 744 408 744 408 717 412 c 128,-1,40
 690 416 690 416 666 400 c 0,41,42
 640 386 640 386 622 370 c 0,43,44
 604 356 604 356 582 316 c 0,45,46
 562 274 562 274 542 230 c 0,47,48
 524 184 524 184 496 108 c 0,49,50
 462 8 462 8 443 -33 c 128,-1,51
 424 -74 424 -74 405 -90 c 128,-1,52
 386 -106 386 -106 356 -106 c 0,53,54
 292 -106 292 -106 254 -36 c 0,55,56
 226 12 226 12 236 54 c 256,57,58
 246 96 246 96 314 240 c 0,59,60
 410 446 410 446 398 470 c 0,61,62
 382 488 382 488 242 476 c 0,63,64
 142 470 142 470 112 479 c 128,-1,65
 82 488 82 488 52 538 c 0,66,67
 18 590 18 590 18 609 c 128,-1,68
 18 628 18 628 56 678 c 0,69,70
 102 744 102 744 257 795 c 128,-1,71
 412 846 412 846 454 812 c 0,72,73
 482 792 482 792 527 815 c 128,-1,74
 572 838 572 838 572 872 c 0,75,76
 572 900 572 900 690 1146 c 0,0,1
1727 1550 m 128,-1,78
 1710 1572 1710 1572 1650 1608 c 0,79,80
 1582 1642 1582 1642 1430 1656 c 0,81,82
 1216 1676 1216 1676 1134 1636 c 128,-1,83
 1052 1596 1052 1596 1052 1474 c 0,84,85
 1052 1382 1052 1382 1026 1367 c 128,-1,86
 1000 1352 1000 1352 1000 1306 c 0,87,88
 1000 1250 1000 1250 744 732 c 0,89,90
 688 614 688 614 804 614 c 0,91,92
 882 614 882 614 1000 664 c 0,93,94
 1436 842 1436 842 1668 1204 c 0,95,96
 1738 1302 1738 1302 1755 1350 c 128,-1,97
 1772 1398 1772 1398 1760 1448 c 0,98,77
 1744 1528 1744 1528 1727 1550 c 128,-1,78
EndSplineSet
EndChar

StartChar: Q
Encoding: 81 81 53
Width: 1509
GlyphClass: 2
Flags: MW
LayerCount: 2
Fore
SplineSet
1772 258 m 0,0,1
 1764 200 1764 200 1732 154 c 0,2,3
 1656 42 1656 42 1518 -18 c 0,4,5
 1388 -72 1388 -72 1252 -44 c 128,-1,6
 1116 -16 1116 -16 1020 90 c 2,7,-1
 894 220 l 1,8,-1
 798 122 l 1,9,10
 692 26 692 26 610 -13 c 128,-1,11
 528 -52 528 -52 416 -52 c 0,12,13
 292 -52 292 -52 238 -10 c 128,-1,14
 184 32 184 32 136 156 c 0,15,16
 104 238 104 238 95 317 c 128,-1,17
 86 396 86 396 86 570 c 0,18,19
 90 772 90 772 104 864 c 0,20,21
 120 954 120 954 158 982 c 0,22,23
 184 992 184 992 184 1032 c 0,24,25
 184 1070 184 1070 272 1252 c 0,26,27
 342 1402 342 1402 502 1576 c 128,-1,28
 662 1750 662 1750 786 1814 c 0,29,30
 904 1878 904 1878 1034 1863 c 128,-1,31
 1164 1848 1164 1848 1262 1756 c 0,32,33
 1312 1710 1312 1710 1329 1678 c 128,-1,34
 1346 1646 1346 1646 1346 1584 c 0,35,36
 1346 1498 1346 1498 1366 1476 c 1,37,38
 1390 1466 1390 1466 1406 1358 c 0,39,40
 1416 1294 1416 1294 1404 1242 c 0,41,42
 1394 1188 1394 1188 1350 1076 c 0,43,44
 1276 900 1276 900 1276 840 c 128,-1,45
 1276 780 1276 780 1252 766 c 128,-1,46
 1228 752 1228 752 1228 702 c 0,47,48
 1228 654 1228 654 1130 510 c 2,49,-1
 1030 366 l 1,50,-1
 1090 258 l 2,51,52
 1130 184 1130 184 1154 167 c 128,-1,53
 1178 150 1178 150 1256 144 c 0,54,55
 1370 136 1370 136 1490 186 c 0,56,57
 1538 208 1538 208 1576 216 c 1,58,59
 1634 254 1634 254 1678 288 c 0,60,61
 1738 330 1738 330 1758 318 c 128,-1,62
 1778 306 1778 306 1772 258 c 0,0,1
997 649 m 128,-1,64
 1032 708 1032 708 1058 789 c 128,-1,65
 1084 870 1084 870 1084 932 c 0,66,67
 1084 1006 1084 1006 1158 1146 c 0,68,69
 1228 1282 1228 1282 1228 1332 c 0,70,71
 1228 1368 1228 1368 1188 1441 c 128,-1,72
 1148 1514 1148 1514 1128 1514 c 0,73,74
 1114 1514 1114 1514 1090 1592 c 0,75,76
 1076 1648 1076 1648 1048 1663 c 128,-1,77
 1020 1678 1020 1678 948 1662 c 0,78,79
 922 1658 922 1658 875 1623 c 128,-1,80
 828 1588 828 1588 774 1536 c 128,-1,81
 720 1484 720 1484 664 1421 c 128,-1,82
 608 1358 608 1358 562 1294 c 0,83,84
 514 1232 514 1232 488 1180 c 0,85,86
 466 1142 466 1142 410 1040 c 0,87,88
 356 944 356 944 338 914 c 0,89,90
 302 844 302 844 289 775 c 128,-1,91
 276 706 276 706 268 548 c 0,92,93
 252 308 252 308 272 231 c 128,-1,94
 292 154 292 154 372 136 c 0,95,96
 424 126 424 126 452 132 c 0,97,98
 480 140 480 140 524 176 c 0,99,100
 592 234 592 234 622 234 c 0,101,102
 656 234 656 234 744 342 c 0,103,104
 804 416 804 416 812 440 c 0,105,106
 820 462 820 462 798 484 c 0,107,108
 774 510 774 510 742 512 c 128,-1,109
 710 514 710 514 626 494 c 0,110,111
 514 470 514 470 467 488 c 128,-1,112
 420 506 420 506 420 568 c 0,113,114
 420 592 420 592 435 610 c 128,-1,115
 450 628 450 628 479 645 c 128,-1,116
 508 662 508 662 548 674 c 128,-1,117
 588 686 588 686 636 692 c 0,118,119
 702 698 702 698 739 692 c 128,-1,120
 776 686 776 686 830 648 c 0,121,122
 914 588 914 588 936 588 c 0,123,63
 962 590 962 590 997 649 c 128,-1,64
EndSplineSet
EndChar

StartChar: R
Encoding: 82 82 54
Width: 1985
GlyphClass: 2
Flags: MW
LayerCount: 2
Fore
SplineSet
2156 390 m 0,0,1
 2156 376 2156 376 2151 362 c 128,-1,2
 2146 348 2146 348 2140 336 c 128,-1,3
 2134 324 2134 324 2121 311 c 128,-1,4
 2108 298 2108 298 2099 289 c 128,-1,5
 2090 280 2090 280 2073 268 c 128,-1,6
 2056 256 2056 256 2047 249 c 128,-1,7
 2038 242 2038 242 2021 231 c 128,-1,8
 2004 220 2004 220 1998 216 c 0,9,10
 1958 172 1958 172 1836 128 c 1,11,12
 1662 32 1662 32 1590 28 c 1,13,14
 1564 18 1564 18 1544 18 c 0,15,16
 1508 16 1508 16 1424 34 c 0,17,18
 1312 60 1312 60 1257 80 c 128,-1,19
 1202 100 1202 100 1052 166 c 0,20,21
 924 228 924 228 758 228 c 0,22,23
 622 228 622 228 600 214 c 0,24,25
 578 192 578 192 530 24 c 0,26,27
 526 16 526 16 526 8 c 0,28,29
 516 -28 516 -28 498 -41 c 128,-1,30
 480 -54 480 -54 432 -54 c 0,31,32
 376 -54 376 -54 365 -36 c 128,-1,33
 354 -18 354 -18 354 96 c 2,34,-1
 354 248 l 1,35,36
 228 288 228 288 98 332 c 1,37,-1
 90 534 l 2,38,39
 82 680 82 680 91 712 c 128,-1,40
 100 744 100 744 152 766 c 0,41,42
 226 794 226 794 406 798 c 0,43,44
 474 802 474 802 494 802 c 0,45,46
 516 802 516 802 551 817 c 128,-1,47
 586 832 586 832 593 839 c 128,-1,48
 600 846 600 846 624 896 c 0,49,50
 648 944 648 944 658 978 c 0,51,52
 666 1008 666 1008 696 1110 c 0,53,54
 736 1266 736 1266 758 1290 c 0,55,56
 792 1338 792 1338 836 1485 c 128,-1,57
 880 1632 880 1632 863 1647 c 128,-1,58
 846 1662 846 1662 680 1584 c 0,59,60
 460 1478 460 1478 446 1566 c 1,61,-1
 446 1584 l 2,62,63
 446 1618 446 1618 479 1667 c 128,-1,64
 512 1716 512 1716 554 1755 c 128,-1,65
 596 1794 596 1794 622 1794 c 0,66,67
 656 1794 656 1794 806 1860 c 0,68,69
 942 1922 942 1922 1078 1948 c 0,70,71
 1448 2010 1448 2010 1610 1930 c 0,72,73
 1706 1878 1706 1878 1777 1731 c 128,-1,74
 1848 1584 1848 1584 1848 1438 c 0,75,76
 1848 1306 1848 1306 1773 1129 c 128,-1,77
 1698 952 1698 952 1606 876 c 0,78,79
 1532 820 1532 820 1430 684 c 0,80,81
 1332 560 1332 560 1232 464 c 0,82,83
 1152 386 1152 386 1155 344 c 128,-1,84
 1158 302 1158 302 1254 254 c 0,85,86
 1332 214 1332 214 1432 212 c 0,87,88
 1588 210 1588 210 1754 286 c 0,89,90
 1780 298 1780 298 1854 308 c 1,91,92
 1964 370 1964 370 2036 426 c 0,93,94
 2084 466 2084 466 2120 459 c 128,-1,95
 2156 452 2156 452 2156 390 c 0,0,1
464 486 m 128,-1,97
 508 548 508 548 472 592 c 0,98,99
 446 626 446 626 417 628 c 128,-1,100
 388 630 388 630 328 604 c 0,101,102
 240 570 240 570 251 519 c 128,-1,103
 262 468 262 468 362 438 c 0,104,96
 420 424 420 424 464 486 c 128,-1,97
1034 604 m 2,105,106
 1126 684 1126 684 1220 788 c 0,107,108
 1400 970 1400 970 1496 1117 c 128,-1,109
 1592 1264 1592 1264 1616 1399 c 128,-1,110
 1640 1534 1640 1534 1592 1654 c 2,111,-1
 1544 1782 l 1,112,-1
 1416 1786 l 2,113,114
 1280 1790 1280 1790 1196 1772 c 0,115,116
 1130 1760 1130 1760 1117 1738 c 128,-1,117
 1104 1716 1104 1716 1092 1602 c 0,118,119
 1078 1442 1078 1442 1012 1342 c 0,120,121
 942 1242 942 1242 898 1096 c 0,122,123
 858 952 858 952 836 916 c 0,124,125
 810 872 810 872 798 770 c 0,126,127
 788 702 788 702 797 673 c 128,-1,128
 806 644 806 644 858 596 c 2,129,-1
 934 520 l 1,130,-1
 1034 604 l 2,105,106
EndSplineSet
EndChar

StartChar: S
Encoding: 83 83 55
Width: 1979
GlyphClass: 2
Flags: MW
LayerCount: 2
Fore
SplineSet
2200 354 m 0,0,1
 2202 292 2202 292 2098 222 c 1,2,3
 2076 172 2076 172 2016 134 c 0,4,5
 1918 70 1918 70 1844 52 c 0,6,7
 1574 -28 1574 -28 1424 -55 c 128,-1,8
 1274 -82 1274 -82 1140 -76 c 0,9,10
 1102 -72 1102 -72 1075 -74 c 128,-1,11
 1048 -76 1048 -76 1027 -81 c 128,-1,12
 1006 -86 1006 -86 985 -96 c 128,-1,13
 964 -106 964 -106 944 -122 c 0,14,15
 850 -190 850 -190 668 -168 c 128,-1,16
 486 -146 486 -146 388 -52 c 0,17,18
 324 8 324 8 291 17 c 128,-1,19
 258 26 258 26 210 -4 c 0,20,21
 136 -48 136 -48 101 6 c 128,-1,22
 66 60 66 60 116 140 c 0,23,24
 142 188 142 188 112 319 c 128,-1,25
 82 450 82 450 108 474 c 128,-1,26
 134 498 134 498 240 436 c 2,27,-1
 356 372 l 1,28,-1
 460 478 l 2,29,30
 534 548 534 548 714 763 c 128,-1,31
 894 978 894 978 948 1036 c 2,32,-1
 1042 1134 l 1,33,-1
 1028 1288 l 2,34,35
 1016 1444 1016 1444 978 1514 c 0,36,37
 920 1622 920 1622 950 1720 c 0,38,39
 978 1818 978 1818 1106 1952 c 0,40,41
 1156 2002 1156 2002 1190 2021 c 128,-1,42
 1224 2040 1224 2040 1274 2040 c 0,43,44
 1332 2040 1332 2040 1421 1998 c 128,-1,45
 1510 1956 1510 1956 1514 1928 c 0,46,47
 1540 1750 1540 1750 1510 1720 c 0,48,49
 1496 1702 1496 1702 1454 1564 c 0,50,51
 1410 1436 1410 1436 1338 1342 c 0,52,53
 1274 1248 1274 1248 1274 1224 c 0,54,55
 1274 1198 1274 1198 1242 1164 c 0,56,57
 1208 1124 1208 1124 1228 1006 c 0,58,59
 1346 404 1346 404 1252 210 c 0,60,61
 1208 120 1208 120 1228 106 c 0,62,63
 1244 94 1244 94 1348 120 c 0,64,65
 1430 140 1430 140 1582 164 c 0,66,67
 1616 170 1616 170 1653 183 c 128,-1,68
 1690 196 1690 196 1730 212 c 128,-1,69
 1770 228 1770 228 1800 238 c 0,70,71
 1838 248 1838 248 1850 258 c 0,72,73
 1858 262 1858 262 1865 269 c 128,-1,74
 1872 276 1872 276 1877 282 c 128,-1,75
 1882 288 1882 288 1890 295 c 128,-1,76
 1898 302 1898 302 1904 306 c 0,77,78
 1930 328 1930 328 2000 352 c 128,-1,79
 2070 376 2070 376 2092 388 c 256,80,81
 2114 400 2114 400 2130 406 c 128,-1,82
 2146 412 2146 412 2164 413 c 128,-1,83
 2182 414 2182 414 2191 399 c 128,-1,84
 2200 384 2200 384 2200 354 c 0,0,1
1108 368 m 128,-1,86
 1130 444 1130 444 1116 638 c 0,87,88
 1096 862 1096 862 1072 872 c 0,89,90
 1052 878 1052 878 942 754 c 0,91,92
 862 664 862 664 698 484 c 0,93,94
 560 342 560 342 560 302 c 0,95,96
 560 272 560 272 655 211 c 128,-1,97
 750 150 750 150 826 130 c 0,98,99
 868 120 868 120 898 133 c 128,-1,100
 928 146 928 146 986 198 c 0,101,85
 1086 292 1086 292 1108 368 c 128,-1,86
1184 1450 m 0,102,103
 1208 1460 1208 1460 1277 1627 c 128,-1,104
 1346 1794 1346 1794 1332 1818 c 0,105,106
 1312 1882 1312 1882 1234 1814 c 0,107,108
 1180 1770 1180 1770 1156 1696 c 0,109,110
 1124 1596 1124 1596 1154 1484 c 0,111,112
 1170 1450 1170 1450 1184 1450 c 0,102,103
EndSplineSet
EndChar

StartChar: T
Encoding: 84 84 56
Width: 2363
GlyphClass: 2
Flags: MW
LayerCount: 2
Fore
SplineSet
2618 1766 m 0,0,1
 2694 1696 2694 1696 2606 1608 c 0,2,3
 2556 1562 2556 1562 2436 1538 c 0,4,5
 2314 1512 2314 1512 2022 1488 c 2,6,-1
 1806 1470 l 1,7,-1
 1748 1278 l 2,8,9
 1690 1084 1690 1084 1656 1046 c 0,10,11
 1614 992 1614 992 1586 930 c 0,12,13
 1432 592 1432 592 1432 538 c 0,14,15
 1432 496 1432 496 1374 422 c 0,16,17
 1314 350 1314 350 1319 319 c 128,-1,18
 1324 288 1324 288 1386 226 c 0,19,20
 1388 224 1388 224 1391 220 c 128,-1,21
 1394 216 1394 216 1396 214 c 0,22,23
 1524 286 1524 286 1604 352 c 0,24,25
 1660 396 1660 396 1700 388 c 128,-1,26
 1740 380 1740 380 1742 310 c 0,27,28
 1742 288 1742 288 1732 266 c 128,-1,29
 1722 244 1722 244 1709 228 c 128,-1,30
 1696 212 1696 212 1672 191 c 128,-1,31
 1648 170 1648 170 1634 160 c 128,-1,32
 1620 150 1620 150 1592 132 c 128,-1,33
 1564 114 1564 114 1558 108 c 0,34,35
 1446 32 1446 32 1218 -20 c 0,36,37
 1160 -34 1160 -34 1106 -18 c 1,38,39
 884 -50 884 -50 706 -50 c 0,40,41
 606 -50 606 -50 558 -46 c 256,42,43
 510 -42 510 -42 481 -27 c 128,-1,44
 452 -12 452 -12 416 26 c 0,45,46
 332 100 332 100 262 112 c 0,47,48
 194 118 194 118 128 204 c 0,49,50
 86 258 86 258 86 277 c 128,-1,51
 86 296 86 296 120 334 c 0,52,53
 148 362 148 362 173 367 c 128,-1,54
 198 372 198 372 244 346 c 0,55,56
 316 312 316 312 391 312 c 128,-1,57
 466 312 466 312 478 284 c 0,58,59
 494 254 494 254 544 254 c 128,-1,60
 594 254 594 254 682 208 c 0,61,62
 744 176 744 176 771 182 c 128,-1,63
 798 188 798 188 882 246 c 0,64,65
 990 318 990 318 1070 412 c 0,66,67
 1124 476 1124 476 1248 726 c 0,68,69
 1374 976 1374 976 1374 1016 c 0,70,71
 1374 1042 1374 1042 1444 1196 c 0,72,73
 1524 1372 1524 1372 1524 1425 c 128,-1,74
 1524 1478 1524 1478 1432 1524 c 0,75,76
 1324 1574 1324 1574 1098 1566 c 2,77,-1
 866 1558 l 1,78,-1
 810 1384 l 2,79,80
 724 1104 724 1104 574 1104 c 0,81,82
 516 1104 516 1104 374 1224 c 0,83,84
 278 1304 278 1304 259 1339 c 128,-1,85
 240 1374 240 1374 248 1446 c 0,86,87
 266 1546 266 1546 228 1628 c 0,88,89
 194 1712 194 1712 228 1775 c 128,-1,90
 262 1838 262 1838 282 1838 c 0,91,92
 286 1838 286 1838 330 1830 c 0,93,94
 378 1824 378 1824 458 1814 c 0,95,96
 540 1804 540 1804 612 1796 c 0,97,98
 916 1754 916 1754 1044 1778 c 0,99,100
 1136 1796 1136 1796 1265 1767 c 128,-1,101
 1394 1738 1394 1738 1448 1688 c 0,102,103
 1498 1638 1498 1638 1881 1671 c 128,-1,104
 2264 1704 2264 1704 2390 1770 c 0,105,106
 2530 1842 2530 1842 2618 1766 c 0,0,1
605 1402 m 128,-1,108
 640 1466 640 1466 640 1516 c 0,109,110
 640 1578 640 1578 562 1508 c 0,111,112
 462 1424 462 1424 482 1366 c 0,113,114
 490 1338 490 1338 540 1338 c 0,115,107
 570 1338 570 1338 605 1402 c 128,-1,108
EndSplineSet
EndChar

StartChar: U
Encoding: 85 85 57
Width: 1693
GlyphClass: 2
Flags: MW
LayerCount: 2
Fore
SplineSet
1654 376 m 0,0,1
 1702 416 1702 416 1737 409 c 128,-1,2
 1772 402 1772 402 1774 340 c 0,3,4
 1774 322 1774 322 1765 302 c 128,-1,5
 1756 282 1756 282 1745 268 c 128,-1,6
 1734 254 1734 254 1713 236 c 128,-1,7
 1692 218 1692 218 1680 209 c 128,-1,8
 1668 200 1668 200 1643 184 c 128,-1,9
 1618 168 1618 168 1612 164 c 0,10,11
 1594 152 1594 152 1578 137 c 128,-1,12
 1562 122 1562 122 1544 104 c 128,-1,13
 1526 86 1526 86 1514 74 c 0,14,15
 1498 60 1498 60 1466 56 c 1,16,17
 1440 40 1440 40 1370 32 c 0,18,19
 1268 16 1268 16 1184 52 c 0,20,21
 1174 52 1174 52 1158 52 c 1,22,23
 1154 60 1154 60 1156 68 c 1,24,25
 1154 68 1154 68 1146 72 c 128,-1,26
 1138 76 1138 76 1134 78 c 0,27,28
 1032 146 1032 146 1032 254 c 0,29,30
 1032 382 1032 382 950 234 c 0,31,32
 906 160 906 160 749 35 c 128,-1,33
 592 -90 592 -90 516 -106 c 0,34,35
 456 -116 456 -116 424 -102 c 128,-1,36
 392 -88 392 -88 290 2 c 0,37,38
 214 68 214 68 201 97 c 128,-1,39
 188 126 188 126 190 224 c 0,40,41
 194 360 194 360 252 478 c 0,42,43
 288 550 288 550 350 700 c 0,44,45
 410 848 410 848 464 944 c 0,46,47
 546 1090 546 1090 546 1108 c 0,48,49
 546 1132 546 1132 578 1204 c 0,50,51
 628 1326 628 1326 664 1464 c 128,-1,52
 700 1602 700 1602 690 1644 c 0,53,54
 674 1726 674 1726 630 1744 c 0,55,56
 614 1750 614 1750 604 1734 c 0,57,58
 588 1714 588 1714 614 1698 c 0,59,60
 654 1670 654 1670 634 1595 c 128,-1,61
 614 1520 614 1520 546 1438 c 0,62,63
 428 1294 428 1294 387 1259 c 128,-1,64
 346 1224 346 1224 280 1214 c 0,65,66
 116 1182 116 1182 88 1374 c 0,67,68
 82 1434 82 1434 94 1472 c 128,-1,69
 106 1510 106 1510 148 1576 c 0,70,71
 220 1680 220 1680 220 1710 c 0,72,73
 220 1726 220 1726 258 1766 c 256,74,75
 296 1806 296 1806 342 1838 c 0,76,77
 388 1872 388 1872 410 1872 c 0,78,79
 450 1874 450 1874 522 1918 c 0,80,81
 594 1956 594 1956 614 1956 c 128,-1,82
 634 1956 634 1956 704 1918 c 0,83,84
 808 1852 808 1852 852 1678 c 128,-1,85
 896 1504 896 1504 834 1384 c 0,86,87
 762 1240 762 1240 716 1044 c 0,88,89
 700 968 700 968 684 954 c 0,90,91
 668 944 668 944 623 849 c 128,-1,92
 578 754 578 754 522 618 c 0,93,94
 468 486 468 486 454 448 c 0,95,96
 382 288 382 288 377 237 c 128,-1,97
 372 186 372 186 414 136 c 2,98,-1
 470 80 l 1,99,-1
 532 134 l 2,100,101
 598 182 598 182 628 182 c 0,102,103
 650 182 650 182 678 216 c 0,104,105
 706 252 706 252 828 436 c 0,106,107
 900 544 900 544 1000 741 c 128,-1,108
 1100 938 1100 938 1100 970 c 0,109,110
 1100 998 1100 998 1158 1080 c 128,-1,111
 1216 1162 1216 1162 1216 1234 c 0,112,113
 1216 1302 1216 1302 1262 1384 c 0,114,115
 1304 1458 1304 1458 1354 1562 c 0,116,117
 1390 1638 1390 1638 1454 1699 c 128,-1,118
 1518 1760 1518 1760 1548 1746 c 0,119,120
 1566 1740 1566 1740 1604 1694 c 0,121,122
 1622 1664 1622 1664 1619 1644 c 128,-1,123
 1616 1624 1616 1624 1586 1586 c 0,124,125
 1554 1542 1554 1542 1515 1401 c 128,-1,126
 1476 1260 1476 1260 1446 1220 c 0,127,128
 1406 1164 1406 1164 1372 1048 c 0,129,130
 1336 930 1336 930 1264 612 c 0,131,132
 1218 416 1218 416 1212 330 c 128,-1,133
 1206 244 1206 244 1236 214 c 0,134,135
 1258 188 1258 188 1316 184 c 1,136,137
 1370 202 1370 202 1390 212 c 0,138,139
 1558 300 1558 300 1654 376 c 0,0,1
403 1554 m 128,-1,141
 454 1608 454 1608 454 1634 c 0,142,143
 454 1698 454 1698 378 1622 c 128,-1,144
 302 1546 302 1546 316 1510 c 0,145,146
 322 1500 322 1500 332 1500 c 0,147,140
 352 1500 352 1500 403 1554 c 128,-1,141
1482 86 m 2,148,149
 1484 86 1484 86 1485 86 c 0,150,-1
 1486 86 l 1,151,-1
 1482 86 l 2,148,149
EndSplineSet
EndChar

StartChar: V
Encoding: 86 86 58
Width: 1949
GlyphClass: 2
Flags: MW
LayerCount: 2
Fore
SplineSet
382 1840 m 0,0,1
 454 1876 454 1876 502 1918 c 0,2,3
 548 1962 548 1962 658 1953 c 128,-1,4
 768 1944 768 1944 832 1888 c 0,5,6
 928 1798 928 1798 979 1669 c 128,-1,7
 1030 1540 1030 1540 984 1492 c 0,8,9
 962 1462 962 1462 928 1298 c 0,10,11
 898 1140 898 1140 832 922 c 0,12,13
 764 704 764 704 730 652 c 0,14,15
 692 602 692 602 692 531 c 128,-1,16
 692 460 692 460 664 382 c 0,17,18
 636 300 636 300 674 214 c 128,-1,19
 712 128 712 128 768 150 c 0,20,21
 816 172 816 172 864 184 c 0,22,23
 910 192 910 192 1070 362 c 128,-1,24
 1230 532 1230 532 1254 598 c 0,25,26
 1272 648 1272 648 1298 800 c 0,27,28
 1328 1006 1328 1006 1433 1241 c 128,-1,29
 1538 1476 1538 1476 1626 1532 c 0,30,31
 1698 1574 1698 1574 1810 1690 c 0,32,33
 1944 1824 1944 1824 2056 1798 c 0,34,35
 2150 1776 2150 1776 2116 1652 c 0,36,37
 2098 1574 2098 1574 2016 1556 c 0,38,39
 1926 1540 1926 1540 1806 1430 c 128,-1,40
 1686 1320 1686 1320 1626 1204 c 0,41,42
 1568 1084 1568 1084 1508 796 c 0,43,44
 1480 670 1480 670 1462 602 c 256,45,46
 1444 534 1444 534 1416 488 c 128,-1,47
 1388 442 1388 442 1336 370 c 0,48,49
 1216 210 1216 210 1194 166 c 0,50,51
 1164 116 1164 116 1031 49 c 128,-1,52
 898 -18 898 -18 786 -32 c 0,53,54
 716 -44 716 -44 682 -35 c 128,-1,55
 648 -26 648 -26 596 16 c 0,56,57
 480 116 480 116 471 340 c 128,-1,58
 462 564 462 564 562 822 c 0,59,60
 686 1136 686 1136 756 1466 c 0,61,62
 786 1604 786 1604 783 1636 c 128,-1,63
 780 1668 780 1668 738 1712 c 2,64,-1
 678 1768 l 1,65,-1
 574 1716 l 2,66,67
 466 1664 466 1664 386 1570 c 0,68,69
 334 1506 334 1506 310 1495 c 128,-1,70
 286 1484 286 1484 248 1502 c 0,71,72
 166 1548 166 1548 211 1660 c 128,-1,73
 256 1772 256 1772 382 1840 c 0,0,1
EndSplineSet
EndChar

StartChar: W
Encoding: 87 87 59
Width: 2379
GlyphClass: 2
Flags: MW
LayerCount: 2
Fore
SplineSet
1754 926 m 0,0,1
 1826 1020 1826 1020 1826 1056 c 0,2,3
 1826 1074 1826 1074 1874 1147 c 128,-1,4
 1922 1220 1922 1220 1922 1241 c 128,-1,5
 1922 1262 1922 1262 1998 1344 c 0,6,7
 2072 1426 2072 1426 2170 1512 c 0,8,9
 2270 1598 2270 1598 2322 1628 c 0,10,11
 2428 1690 2428 1690 2466 1676 c 128,-1,12
 2504 1662 2504 1662 2614 1690 c 0,13,14
 2806 1742 2806 1742 2784 1594 c 0,15,16
 2782 1562 2782 1562 2768 1549 c 128,-1,17
 2754 1536 2754 1536 2720 1524 c 128,-1,18
 2686 1512 2686 1512 2596 1494 c 0,19,20
 2408 1454 2408 1454 2364 1426 c 0,21,22
 2312 1398 2312 1398 2170 1221 c 128,-1,23
 2028 1044 2028 1044 1978 944 c 0,24,25
 1952 890 1952 890 1922 816 c 0,26,27
 1892 738 1892 738 1862 676 c 0,28,29
 1834 616 1834 616 1790 556 c 0,30,31
 1718 464 1718 464 1666 358 c 0,32,33
 1628 276 1628 276 1469 149 c 128,-1,34
 1310 22 1310 22 1244 24 c 0,35,36
 1166 24 1166 24 1075 78 c 128,-1,37
 984 132 984 132 960 190 c 0,38,39
 930 266 930 266 906 280 c 128,-1,40
 882 294 882 294 724 136 c 0,41,42
 568 -26 568 -26 540 -24 c 0,43,44
 474 -22 474 -22 377 21 c 128,-1,45
 280 64 280 64 248 106 c 0,46,47
 184 190 184 190 210 418 c 128,-1,48
 236 646 236 646 318 746 c 0,49,50
 416 868 416 868 569 1316 c 128,-1,51
 722 1764 722 1764 674 1792 c 0,52,53
 656 1802 656 1802 579 1780 c 128,-1,54
 502 1758 502 1758 502 1744 c 0,55,56
 502 1734 502 1734 526 1694 c 0,57,58
 558 1646 558 1646 506 1545 c 128,-1,59
 454 1444 454 1444 364 1360 c 128,-1,60
 274 1276 274 1276 208 1276 c 128,-1,61
 142 1276 142 1276 117 1336 c 128,-1,62
 92 1396 92 1396 92 1552 c 0,63,64
 92 1624 92 1624 97 1657 c 128,-1,65
 102 1690 102 1690 118 1714 c 256,66,67
 134 1738 134 1738 170 1776 c 0,68,69
 310 1906 310 1906 560 1980 c 0,70,71
 666 2012 666 2012 714 2003 c 128,-1,72
 762 1994 762 1994 820 1936 c 0,73,74
 854 1894 854 1894 865 1857 c 128,-1,75
 876 1820 876 1820 872 1728 c 0,76,77
 872 1612 872 1612 831 1444 c 128,-1,78
 790 1276 790 1276 752 1168 c 256,79,80
 714 1060 714 1060 698 1030 c 0,81,82
 684 1000 684 1000 584 820 c 0,83,84
 510 676 510 676 486 650 c 0,85,86
 448 598 448 598 366 250 c 0,87,88
 352 194 352 194 406 166 c 0,89,90
 438 150 438 150 465 162 c 128,-1,91
 492 174 492 174 556 232 c 0,92,93
 690 352 690 352 789 490 c 128,-1,94
 888 628 888 628 1008 854 c 0,95,96
 1160 1148 1160 1148 1210 1218 c 0,97,98
 1266 1296 1266 1296 1316 1422 c 0,99,100
 1378 1580 1378 1580 1426 1645 c 128,-1,101
 1474 1710 1474 1710 1522 1710 c 0,102,103
 1590 1710 1590 1710 1613 1672 c 128,-1,104
 1636 1634 1636 1634 1604 1574 c 0,105,106
 1594 1556 1594 1556 1536 1402 c 256,107,108
 1478 1248 1478 1248 1440 1218 c 0,109,110
 1392 1174 1392 1174 1392 1138 c 0,111,112
 1392 1114 1392 1114 1344 1039 c 128,-1,113
 1296 964 1296 964 1296 936 c 0,114,115
 1296 892 1296 892 1272 878 c 0,116,117
 1232 854 1232 854 1170 656 c 128,-1,118
 1108 458 1108 458 1108 362 c 0,119,120
 1112 320 1112 320 1125 281 c 128,-1,121
 1138 242 1138 242 1161 216 c 128,-1,122
 1184 190 1184 190 1204 190 c 0,123,124
 1220 190 1220 190 1256 216 c 128,-1,125
 1292 242 1292 242 1328 275 c 128,-1,126
 1364 308 1364 308 1390 342 c 128,-1,127
 1416 376 1416 376 1416 392 c 0,128,129
 1416 438 1416 438 1498 516 c 0,130,131
 1556 568 1556 568 1620 667 c 128,-1,132
 1684 766 1684 766 1684 806 c 0,133,134
 1684 830 1684 830 1754 926 c 0,0,1
EndSplineSet
EndChar

StartChar: X
Encoding: 88 88 60
Width: 2461
GlyphClass: 2
Flags: MW
LayerCount: 2
Fore
SplineSet
2500 514 m 0,0,1
 2546 552 2546 552 2582 545 c 128,-1,2
 2618 538 2618 538 2618 476 c 0,3,4
 2618 464 2618 464 2615 451 c 128,-1,5
 2612 438 2612 438 2605 426 c 128,-1,6
 2598 414 2598 414 2590 404 c 128,-1,7
 2582 394 2582 394 2570 383 c 128,-1,8
 2558 372 2558 372 2548 363 c 128,-1,9
 2538 354 2538 354 2524 345 c 128,-1,10
 2510 336 2510 336 2500 329 c 128,-1,11
 2490 322 2490 322 2477 314 c 128,-1,12
 2464 306 2464 306 2458 300 c 0,13,14
 2406 266 2406 266 2352 242 c 0,15,16
 2344 240 2344 240 2297 214 c 128,-1,17
 2250 188 2250 188 2216 172 c 1,18,19
 2178 142 2178 142 2122 118 c 0,20,21
 2004 70 2004 70 1884 74 c 128,-1,22
 1764 78 1764 78 1646 124 c 0,23,24
 1542 164 1542 164 1410 292 c 0,25,26
 1304 398 1304 398 1264 398 c 0,27,28
 1196 398 1196 398 1083 314 c 128,-1,29
 970 230 970 230 864 98 c 0,30,31
 708 -90 708 -90 674 -90 c 0,32,33
 626 -90 626 -90 590 -36 c 128,-1,34
 554 18 554 18 568 62 c 0,35,36
 580 112 580 112 704 240 c 0,37,38
 944 488 944 488 1130 762 c 0,39,40
 1202 876 1202 876 1213 916 c 128,-1,41
 1224 956 1224 956 1214 1098 c 0,42,43
 1202 1254 1202 1254 1142 1398 c 128,-1,44
 1082 1542 1082 1542 1006 1594 c 0,45,46
 846 1698 846 1698 604 1444 c 0,47,48
 462 1298 462 1298 394 1298 c 0,49,50
 254 1298 254 1298 336 1454 c 0,51,52
 360 1506 360 1506 480 1612 c 128,-1,53
 600 1718 600 1718 744 1790 c 0,54,55
 846 1840 846 1840 895 1851 c 128,-1,56
 944 1862 944 1862 1042 1852 c 0,57,58
 1200 1834 1200 1834 1228 1820 c 0,59,60
 1294 1798 1294 1798 1378 1577 c 128,-1,61
 1462 1356 1462 1356 1466 1206 c 0,62,63
 1466 1156 1466 1156 1480 1142 c 0,64,65
 1490 1130 1490 1130 1676 1329 c 128,-1,66
 1862 1528 1862 1528 1862 1553 c 128,-1,67
 1862 1578 1862 1578 1964 1688 c 0,68,69
 2060 1794 2060 1794 2092 1856 c 0,70,71
 2118 1902 2118 1902 2132 1908 c 128,-1,72
 2146 1914 2146 1914 2202 1888 c 0,73,74
 2248 1860 2248 1860 2247 1796 c 128,-1,75
 2246 1732 2246 1732 2190 1662 c 0,76,77
 2132 1590 2132 1590 2096 1516 c 0,78,79
 2062 1454 2062 1454 1768 1152 c 1,80,-1
 1472 864 l 1,81,-1
 1488 758 l 2,82,83
 1528 470 1528 470 1626 404 c 0,84,85
 1676 368 1676 368 1750 302 c 0,86,87
 1794 256 1794 256 1873 251 c 128,-1,88
 1952 246 1952 246 2036 273 c 128,-1,89
 2120 300 2120 300 2165 318 c 128,-1,90
 2210 336 2210 336 2236 350 c 0,91,92
 2402 436 2402 436 2500 514 c 0,0,1
EndSplineSet
EndChar

StartChar: Y
Encoding: 89 89 61
Width: 1419
GlyphClass: 2
Flags: MW
LayerCount: 2
Fore
SplineSet
1646 1906 m 0,0,1
 1686 1874 1686 1874 1688 1778 c 128,-1,2
 1690 1682 1690 1682 1650 1624 c 0,3,4
 1612 1570 1612 1570 1612 1526 c 128,-1,5
 1612 1482 1612 1482 1552 1374 c 0,6,7
 1528 1330 1528 1330 1514 1300 c 0,8,9
 1502 1270 1502 1270 1508 1270 c 0,10,11
 1524 1270 1524 1270 1488 1234 c 0,12,13
 1458 1194 1458 1194 1392 1055 c 128,-1,14
 1326 916 1326 916 1326 886 c 128,-1,15
 1326 856 1326 856 1246 734 c 0,16,17
 1160 606 1160 606 1160 593 c 128,-1,18
 1160 580 1160 580 1118 522 c 0,19,20
 1070 462 1070 462 1030 342 c 0,21,22
 1028 338 1028 338 1023 324 c 128,-1,23
 1018 310 1018 310 1016 304 c 128,-1,24
 1014 298 1014 298 1010 285 c 128,-1,25
 1006 272 1006 272 1006 263 c 128,-1,26
 1006 254 1006 254 1005 243 c 128,-1,27
 1004 232 1004 232 1006 223 c 128,-1,28
 1008 214 1008 214 1014 206 c 1,29,30
 1046 218 1046 218 1172 244 c 0,31,32
 1188 246 1188 246 1234 267 c 128,-1,33
 1280 288 1280 288 1302 294 c 0,34,35
 1388 344 1388 344 1442 386 c 0,36,37
 1486 424 1486 424 1518 417 c 128,-1,38
 1550 410 1550 410 1552 354 c 0,39,40
 1552 340 1552 340 1547 327 c 128,-1,41
 1542 314 1542 314 1536 303 c 128,-1,42
 1530 292 1530 292 1518 279 c 128,-1,43
 1506 266 1506 266 1496 258 c 128,-1,44
 1486 250 1486 250 1472 239 c 128,-1,45
 1458 228 1458 228 1448 221 c 128,-1,46
 1438 214 1438 214 1424 205 c 128,-1,47
 1410 196 1410 196 1402 190 c 0,48,49
 1354 158 1354 158 1304 138 c 0,50,51
 1296 134 1296 134 1264 116 c 128,-1,52
 1232 98 1232 98 1210 86 c 0,53,54
 1154 28 1154 28 1114 -20 c 0,55,56
 986 -174 986 -174 954 -174 c 128,-1,57
 922 -174 922 -174 922 -198 c 0,58,59
 922 -218 922 -218 750 -398 c 0,60,61
 564 -588 564 -588 538 -630 c 0,62,63
 498 -694 498 -694 403 -711 c 128,-1,64
 308 -728 308 -728 244 -686 c 0,65,66
 208 -664 208 -664 201 -642 c 128,-1,67
 194 -620 194 -620 209 -574 c 128,-1,68
 224 -528 224 -528 228 -508 c 0,69,70
 242 -448 242 -448 380 -312 c 0,71,72
 520 -182 520 -182 520 -148 c 0,73,74
 520 -118 520 -118 578 28 c 0,75,76
 626 142 626 142 622 174 c 128,-1,77
 618 206 618 206 558 206 c 0,78,79
 508 206 508 206 436 276 c 0,80,81
 390 326 390 326 378 367 c 128,-1,82
 366 408 366 408 366 542 c 0,83,84
 366 738 366 738 416 846 c 0,85,86
 454 924 454 924 498 1072 c 128,-1,87
 542 1220 542 1220 562 1330 c 0,88,89
 572 1394 572 1394 594 1428 c 0,90,91
 616 1456 616 1456 626 1557 c 128,-1,92
 636 1658 636 1658 649 1671 c 128,-1,93
 662 1684 662 1684 638 1712 c 0,94,95
 616 1742 616 1742 554 1712 c 0,96,97
 504 1692 504 1692 501 1663 c 128,-1,98
 498 1634 498 1634 542 1594 c 0,99,100
 622 1520 622 1520 494 1330 c 0,101,102
 420 1220 420 1220 378 1196 c 128,-1,103
 336 1172 336 1172 242 1186 c 0,104,105
 134 1200 134 1200 106 1224 c 0,106,107
 76 1256 76 1256 91 1374 c 128,-1,108
 106 1492 106 1492 154 1564 c 0,109,110
 222 1664 222 1664 350 1789 c 128,-1,111
 478 1914 478 1914 514 1914 c 0,112,113
 554 1914 554 1914 592 1938 c 0,114,115
 626 1960 626 1960 646 1957 c 128,-1,116
 666 1954 666 1954 730 1920 c 0,117,118
 808 1884 808 1884 841 1826 c 128,-1,119
 874 1768 874 1768 884 1648 c 0,120,121
 894 1566 894 1566 884 1501 c 128,-1,122
 874 1436 874 1436 828 1294 c 0,123,124
 750 1062 750 1062 734 1024 c 0,125,126
 716 988 716 988 690 908 c 0,127,128
 666 830 666 830 640 744 c 0,129,130
 616 662 616 662 602 624 c 0,131,132
 568 532 568 532 570 499 c 128,-1,133
 572 466 572 466 618 438 c 0,134,135
 648 424 648 424 667 428 c 128,-1,136
 686 432 686 432 720 462 c 0,137,138
 758 500 758 500 858 590 c 0,139,140
 948 674 948 674 948 708 c 128,-1,141
 948 742 948 742 992 782 c 128,-1,142
 1036 822 1036 822 1054 916 c 0,143,144
 1070 1008 1070 1008 1104 1038 c 0,145,146
 1138 1062 1138 1062 1138 1096 c 0,147,148
 1138 1122 1138 1122 1170 1138 c 0,149,150
 1208 1152 1208 1152 1208 1210 c 0,151,152
 1208 1270 1208 1270 1232 1284 c 128,-1,153
 1256 1298 1256 1298 1256 1416 c 0,154,155
 1256 1486 1256 1486 1272 1528 c 128,-1,156
 1288 1570 1288 1570 1350 1640 c 0,157,158
 1444 1758 1444 1758 1444 1798 c 0,159,160
 1444 1826 1444 1826 1501 1882 c 128,-1,161
 1558 1938 1558 1938 1586 1938 c 0,162,163
 1598 1938 1598 1938 1646 1906 c 0,0,1
455 1589 m 128,-1,165
 474 1614 474 1614 474 1634 c 0,166,167
 474 1650 474 1650 450 1650 c 128,-1,168
 426 1650 426 1650 401 1602 c 128,-1,169
 376 1554 376 1554 390 1536 c 0,170,171
 396 1530 396 1530 416 1547 c 128,-1,164
 436 1564 436 1564 455 1589 c 128,-1,165
EndSplineSet
EndChar

StartChar: Z
Encoding: 90 90 62
Width: 1731
GlyphClass: 2
Flags: MW
LayerCount: 2
Fore
SplineSet
598 1964 m 0,0,1
 750 2038 750 2038 878 2074 c 0,2,3
 1006 2108 1006 2108 1020 2102 c 0,4,5
 1198 2028 1198 2028 1242 1970 c 128,-1,6
 1286 1912 1286 1912 1286 1762 c 0,7,8
 1286 1592 1286 1592 1238 1486 c 2,9,-1
 1192 1378 l 1,10,-1
 1290 1320 l 2,11,12
 1340 1290 1340 1290 1369 1260 c 128,-1,13
 1398 1230 1398 1230 1414 1182 c 128,-1,14
 1430 1134 1430 1134 1430 1070 c 0,15,16
 1428 1004 1428 1004 1420 912 c 0,17,18
 1408 734 1408 734 1340 582 c 0,19,20
 1276 448 1276 448 1300 424 c 0,21,22
 1316 408 1316 408 1410 435 c 128,-1,23
 1504 462 1504 462 1566 502 c 0,24,25
 1626 538 1626 538 1714 568 c 0,26,27
 1768 590 1768 590 1791 590 c 128,-1,28
 1814 590 1814 590 1836 572 c 0,29,30
 1876 538 1876 538 1876 512 c 0,31,32
 1876 472 1876 472 1782 399 c 128,-1,33
 1688 326 1688 326 1590 296 c 0,34,35
 1462 252 1462 252 1420 222 c 1,36,37
 1388 188 1388 188 1366 188 c 0,38,39
 1350 188 1350 188 1226 134 c 0,40,41
 1144 98 1144 98 1111 66 c 128,-1,42
 1078 34 1078 34 1046 -38 c 0,43,44
 990 -156 990 -156 858 -280 c 0,45,46
 714 -422 714 -422 515 -566 c 128,-1,47
 316 -710 316 -710 268 -710 c 0,48,49
 218 -710 218 -710 144 -624 c 0,50,51
 80 -546 80 -546 87 -479 c 128,-1,52
 94 -412 94 -412 174 -284 c 0,53,54
 232 -188 232 -188 372 -82 c 128,-1,55
 512 24 512 24 578 24 c 0,56,57
 598 24 598 24 726 84 c 0,58,59
 784 114 784 114 814 138 c 256,60,61
 844 162 844 162 870 196 c 0,62,63
 894 232 894 232 932 302 c 0,64,65
 1030 494 1030 494 1086 673 c 128,-1,66
 1142 852 1142 852 1132 942 c 0,67,68
 1118 1050 1118 1050 1100 1068 c 0,69,70
 1078 1092 1078 1092 956 1001 c 128,-1,71
 834 910 834 910 724 782 c 0,72,73
 582 616 582 616 501 581 c 128,-1,74
 420 546 420 546 370 622 c 0,75,76
 330 686 330 686 367 806 c 128,-1,77
 404 926 404 926 492 1006 c 0,78,79
 586 1092 586 1092 610 1092 c 0,80,81
 626 1092 626 1092 705 1201 c 128,-1,82
 784 1310 784 1310 860 1441 c 128,-1,83
 936 1572 936 1572 950 1624 c 0,84,85
 1004 1808 1004 1808 918 1858 c 0,86,87
 896 1876 896 1876 847 1862 c 128,-1,88
 798 1848 798 1848 746 1818 c 128,-1,89
 694 1788 694 1788 638 1743 c 128,-1,90
 582 1698 582 1698 552 1654 c 0,91,92
 484 1560 484 1560 422 1523 c 128,-1,93
 360 1486 360 1486 320 1518 c 0,94,95
 248 1580 248 1580 354 1720 c 0,96,97
 418 1808 418 1808 434 1852 c 0,98,99
 448 1890 448 1890 598 1964 c 0,0,1
EndSplineSet
EndChar

StartChar: bracketleft
Encoding: 91 91 63
Width: 1095
GlyphClass: 2
Flags: MW
LayerCount: 2
Fore
SplineSet
658 60 m 0,0,1
 574 48 574 48 86 0 c 1,2,3
 92 58 92 58 99 155 c 128,-1,4
 106 252 106 252 113 320 c 128,-1,5
 120 388 120 388 132 450 c 0,6,7
 210 852 210 852 326 1346 c 0,8,9
 338 1396 338 1396 339 1436 c 128,-1,10
 340 1476 340 1476 316 1511 c 128,-1,11
 292 1546 292 1546 238 1568 c 1,12,13
 490 1676 490 1676 688 1676 c 128,-1,14
 886 1676 886 1676 1010 1568 c 1,15,16
 952 1554 952 1554 884 1553 c 128,-1,17
 816 1552 816 1552 758 1556 c 128,-1,18
 700 1560 700 1560 635 1543 c 128,-1,19
 570 1526 570 1526 520 1482 c 1,20,21
 342 830 342 830 246 206 c 1,22,23
 596 206 596 206 648 204 c 0,24,25
 662 204 662 204 676 195 c 128,-1,26
 690 186 690 186 709 171 c 128,-1,27
 728 156 728 156 736 152 c 1,28,29
 728 142 728 142 713 117 c 128,-1,30
 698 92 698 92 685 77 c 128,-1,31
 672 62 672 62 658 60 c 0,0,1
EndSplineSet
EndChar

StartChar: backslash
Encoding: 92 92 64
Width: 1455
GlyphClass: 2
Flags: MW
LayerCount: 2
Fore
SplineSet
1350 -46 m 0,0,1
 1374 -116 1374 -116 1371 -139 c 128,-1,2
 1368 -162 1368 -162 1340 -198 c 0,3,4
 1288 -264 1288 -264 1250 -247 c 128,-1,5
 1212 -230 1212 -230 1198 -138 c 0,6,7
 1180 -42 1180 -42 1096 134 c 0,8,9
 1010 310 1010 310 900 474 c 0,10,11
 814 602 814 602 688 814 c 0,12,13
 566 1026 566 1026 566 1046 c 0,14,15
 566 1060 566 1060 452 1270 c 0,16,17
 362 1430 362 1430 314 1528 c 0,18,19
 282 1584 282 1584 246 1616 c 0,20,21
 206 1652 206 1652 206 1678 c 0,22,23
 206 1692 206 1692 146 1777 c 128,-1,24
 86 1862 86 1862 86 1878 c 0,25,26
 86 1904 86 1904 146 1936 c 0,27,28
 206 1966 206 1966 254 1966 c 0,29,30
 288 1966 288 1966 306 1945 c 128,-1,31
 324 1924 324 1924 356 1856 c 0,32,33
 392 1772 392 1772 426 1752 c 128,-1,34
 460 1732 460 1732 502 1772 c 0,35,36
 514 1782 514 1782 517 1782 c 128,-1,37
 520 1782 520 1782 506 1740 c 0,38,39
 484 1680 484 1680 488 1650 c 128,-1,40
 492 1620 492 1620 534 1558 c 0,41,42
 586 1488 586 1488 586 1426 c 0,43,44
 586 1398 586 1398 604 1344 c 0,45,46
 624 1292 624 1292 678 1188 c 0,47,48
 738 1076 738 1076 848 868 c 0,49,50
 882 800 882 800 1042 558 c 0,51,52
 1286 186 1286 186 1350 -46 c 0,0,1
EndSplineSet
EndChar

StartChar: bracketright
Encoding: 93 93 65
Width: 1087
GlyphClass: 2
Flags: MW
LayerCount: 2
Fore
SplineSet
246 0 m 0,0,1
 212 2 212 2 187 6 c 128,-1,2
 162 10 162 10 134 24 c 128,-1,3
 106 38 106 38 94 69 c 128,-1,4
 82 100 82 100 88 146 c 1,5,6
 142 146 142 146 144 146 c 0,7,8
 216 136 216 136 262 132 c 128,-1,9
 308 128 308 128 354 128 c 128,-1,10
 400 128 400 128 426 134 c 128,-1,11
 452 140 452 140 479 157 c 128,-1,12
 506 174 506 174 520 196 c 128,-1,13
 534 218 534 218 551 258 c 128,-1,14
 568 298 568 298 578 341 c 128,-1,15
 588 384 588 384 602 452 c 0,16,17
 636 612 636 612 666 780 c 128,-1,18
 696 948 696 948 739 1197 c 128,-1,19
 782 1446 782 1446 796 1526 c 0,20,21
 798 1540 798 1540 797 1545 c 128,-1,22
 796 1550 796 1550 793 1564 c 128,-1,23
 790 1578 790 1578 790 1586 c 0,24,25
 754 1602 754 1602 706 1602 c 128,-1,26
 658 1602 658 1602 613 1597 c 128,-1,27
 568 1592 568 1592 521 1592 c 128,-1,28
 474 1592 474 1592 426 1614 c 128,-1,29
 378 1636 378 1636 336 1684 c 1,30,31
 408 1690 408 1690 506 1708 c 128,-1,32
 604 1726 604 1726 668 1738 c 128,-1,33
 732 1750 732 1750 831 1757 c 128,-1,34
 930 1764 930 1764 1002 1748 c 1,35,36
 904 1176 904 1176 894 1120 c 0,37,38
 882 1050 882 1050 866 966 c 128,-1,39
 850 882 850 882 832 791 c 128,-1,40
 814 700 814 700 802 636 c 0,41,42
 774 486 774 486 760 390 c 0,43,44
 758 372 758 372 724 62 c 1,45,46
 722 60 l 0,47,48
 720 58 720 58 716 55 c 128,-1,49
 712 52 712 52 707 49 c 128,-1,50
 702 46 702 46 695 42 c 128,-1,51
 688 38 688 38 681 35 c 128,-1,52
 674 32 674 32 665 30 c 128,-1,53
 656 28 656 28 648 26 c 0,54,55
 388 -2 388 -2 246 0 c 0,0,1
EndSplineSet
EndChar

StartChar: asciicircum
Encoding: 94 94 66
Width: 1101
GlyphClass: 2
Flags: MW
LayerCount: 2
Fore
SplineSet
852 1458 m 0,0,1
 820 1502 820 1502 790 1550 c 128,-1,2
 760 1598 760 1598 710 1682 c 128,-1,3
 660 1766 660 1766 634 1808 c 1,4,5
 428 1456 428 1456 412 1430 c 0,6,7
 382 1376 382 1376 261 1360 c 128,-1,8
 140 1344 140 1344 102 1390 c 0,9,10
 88 1410 88 1410 87 1448 c 128,-1,11
 86 1486 86 1486 98 1510 c 0,12,13
 104 1520 104 1520 112 1531 c 128,-1,14
 120 1542 120 1542 126 1550 c 128,-1,15
 132 1558 132 1558 145 1569 c 128,-1,16
 158 1580 158 1580 164 1585 c 128,-1,17
 170 1590 170 1590 185 1602 c 128,-1,18
 200 1614 200 1614 204 1618 c 0,19,20
 416 1792 416 1792 506 2072 c 0,21,22
 516 2106 516 2106 544 2138 c 128,-1,23
 572 2170 572 2170 594 2172 c 0,24,25
 620 2174 620 2174 654 2148 c 128,-1,26
 688 2122 688 2122 706 2094 c 0,27,28
 786 1950 786 1950 1002 1538 c 0,29,30
 1024 1498 1024 1498 1012 1462 c 128,-1,31
 1000 1426 1000 1426 958 1414 c 0,32,33
 936 1408 936 1408 901 1422 c 128,-1,34
 866 1436 866 1436 852 1458 c 0,0,1
EndSplineSet
EndChar

StartChar: underscore
Encoding: 95 95 67
Width: 1585
GlyphClass: 2
Flags: MW
LayerCount: 2
Fore
SplineSet
828 -76 m 0,0,1
 870 -74 870 -74 1139 -66 c 128,-1,2
 1408 -58 1408 -58 1500 -54 c 1,3,4
 1488 -106 1488 -106 1463 -137 c 128,-1,5
 1438 -168 1438 -168 1410 -178 c 128,-1,6
 1382 -188 1382 -188 1342 -190 c 0,7,8
 1240 -196 1240 -196 1014 -201 c 128,-1,9
 788 -206 788 -206 530 -211 c 128,-1,10
 272 -216 272 -216 202 -218 c 0,11,12
 186 -218 186 -218 167 -212 c 128,-1,13
 148 -206 148 -206 124 -195 c 128,-1,14
 100 -184 100 -184 86 -178 c 1,15,16
 94 -158 94 -158 104 -142 c 128,-1,17
 114 -126 114 -126 128 -116 c 128,-1,18
 142 -106 142 -106 152 -100 c 128,-1,19
 162 -94 162 -94 181 -91 c 128,-1,20
 200 -88 200 -88 208 -87 c 128,-1,21
 216 -86 216 -86 238 -86 c 128,-1,22
 260 -86 260 -86 266 -86 c 0,23,24
 324 -84 324 -84 546 -81 c 128,-1,25
 768 -78 768 -78 828 -76 c 0,0,1
EndSplineSet
EndChar

StartChar: grave
Encoding: 96 96 68
Width: 673
GlyphClass: 2
Flags: MW
LayerCount: 2
Fore
SplineSet
462 1946 m 1,0,-1
 588 1634 l 1,1,2
 584 1598 584 1598 552 1582 c 128,-1,3
 520 1566 520 1566 492 1570 c 2,4,-1
 462 1574 l 2,5,6
 436 1576 436 1576 408 1590 c 128,-1,7
 380 1604 380 1604 357 1625 c 128,-1,8
 334 1646 334 1646 312 1672 c 128,-1,9
 290 1698 290 1698 273 1723 c 128,-1,10
 256 1748 256 1748 243 1769 c 128,-1,11
 230 1790 230 1790 224 1802 c 2,12,-1
 218 1816 l 1,13,-1
 116 1896 l 1,14,15
 80 1936 80 1936 88 1964 c 128,-1,16
 96 1992 96 1992 124 2006 c 2,17,-1
 152 2020 l 2,18,19
 202 2038 202 2038 245 2042 c 128,-1,20
 288 2046 288 2046 319 2041 c 128,-1,21
 350 2036 350 2036 375 2025 c 128,-1,22
 400 2014 400 2014 416 2000 c 128,-1,23
 432 1986 432 1986 443 1974 c 128,-1,24
 454 1962 454 1962 458 1954 c 2,25,-1
 462 1946 l 1,0,-1
EndSplineSet
EndChar

StartChar: a
Encoding: 97 97 69
Width: 1250
GlyphClass: 2
Flags: MW
LayerCount: 2
Fore
SplineSet
1280 244 m 0,0,1
 1318 274 1318 274 1345 269 c 128,-1,2
 1372 264 1372 264 1372 216 c 0,3,4
 1372 206 1372 206 1368 195 c 128,-1,5
 1364 184 1364 184 1359 175 c 128,-1,6
 1354 166 1354 166 1344 156 c 128,-1,7
 1334 146 1334 146 1326 138 c 128,-1,8
 1318 130 1318 130 1306 121 c 128,-1,9
 1294 112 1294 112 1286 107 c 128,-1,10
 1278 102 1278 102 1266 94 c 128,-1,11
 1254 86 1254 86 1248 82 c 0,12,13
 1210 56 1210 56 1168 38 c 0,14,15
 1164 36 1164 36 1120 14 c 1,16,-1
 1110 2 l 1,17,18
 1056 -50 1056 -50 954 -62 c 0,19,20
 890 -70 890 -70 855 -63 c 128,-1,21
 820 -56 820 -56 758 -28 c 0,22,23
 666 16 666 16 636 44 c 0,24,25
 616 60 616 60 602 58 c 128,-1,26
 588 56 588 56 550 26 c 0,27,28
 428 -62 428 -62 259 -73 c 128,-1,29
 90 -84 90 -84 38 -6 c 0,30,31
 6 44 6 44 9 188 c 128,-1,32
 12 332 12 332 46 394 c 0,33,34
 76 448 76 448 92 474 c 0,35,36
 110 500 110 500 126 522 c 0,37,38
 142 546 142 546 180 592 c 0,39,40
 306 748 306 748 378 806 c 0,41,42
 434 850 434 850 510 881 c 128,-1,43
 586 912 586 912 669 922 c 128,-1,44
 752 932 752 932 816 900 c 0,45,46
 894 860 894 860 912 763 c 128,-1,47
 930 666 930 666 908 575 c 128,-1,48
 886 484 886 484 846 404 c 0,49,50
 812 328 812 328 795 238 c 128,-1,51
 778 148 778 148 796 120 c 0,52,53
 834 44 834 44 1046 110 c 0,54,55
 1054 112 1054 112 1062 112 c 0,56,57
 1074 116 1074 116 1080 120 c 0,58,59
 1208 186 1208 186 1280 244 c 0,0,1
676 620 m 0,60,61
 698 632 698 632 700 640 c 128,-1,62
 702 648 702 648 690 660 c 0,63,64
 666 686 666 686 622 694 c 128,-1,65
 578 702 578 702 536 690 c 0,66,67
 494 680 494 680 409 610 c 128,-1,68
 324 540 324 540 294 490 c 0,69,70
 254 432 254 432 226 386 c 0,71,72
 192 338 192 338 180 246 c 128,-1,73
 168 154 168 154 190 126 c 0,74,75
 210 102 210 102 278 102 c 128,-1,76
 346 102 346 102 406 124 c 0,77,78
 464 152 464 152 492 208 c 0,79,80
 540 302 540 302 570 360 c 0,81,82
 622 450 622 450 622 482 c 0,83,84
 622 502 622 502 639 523 c 128,-1,85
 656 544 656 544 648 568 c 0,86,87
 638 600 638 600 676 620 c 0,60,61
EndSplineSet
EndChar

StartChar: b
Encoding: 98 98 70
Width: 1127
GlyphClass: 2
Flags: MW
LayerCount: 2
Fore
SplineSet
1256 388 m 0,0,1
 1258 376 1258 376 1258 342 c 0,2,3
 1258 266 1258 266 1193 242 c 128,-1,4
 1128 218 1128 218 954 228 c 2,5,-1
 760 238 l 1,6,-1
 696 116 l 2,7,8
 632 -8 632 -8 554 -65 c 128,-1,9
 476 -122 476 -122 346 -144 c 0,10,11
 210 -166 210 -166 126 -134 c 0,12,13
 60 -108 60 -108 13 -56 c 128,-1,14
 -34 -4 -34 -4 -54 59 c 128,-1,15
 -74 122 -74 122 -80 194 c 128,-1,16
 -86 266 -86 266 -72 332 c 0,17,18
 -54 444 -54 444 0 655 c 128,-1,19
 54 866 54 866 74 964 c 0,20,21
 104 1134 104 1134 146 1226 c 0,22,23
 204 1358 204 1358 238 1430 c 0,24,25
 270 1498 270 1498 318 1590 c 0,26,27
 344 1640 344 1640 380 1738 c 0,28,29
 404 1802 404 1802 419 1834 c 128,-1,30
 434 1866 434 1866 462 1915 c 128,-1,31
 490 1964 490 1964 529 1997 c 128,-1,32
 568 2030 568 2030 620 2056 c 0,33,34
 676 2084 676 2084 731 2085 c 128,-1,35
 786 2086 786 2086 832 2048 c 0,36,37
 880 1998 880 1998 886 1908 c 128,-1,38
 892 1818 892 1818 875 1745 c 128,-1,39
 858 1672 858 1672 830 1600 c 0,40,41
 750 1400 750 1400 724 1304 c 0,42,43
 702 1218 702 1218 668 1158 c 0,44,45
 512 882 512 882 506 870 c 0,46,47
 422 720 422 720 282 532 c 0,48,49
 206 428 206 428 184 291 c 128,-1,50
 162 154 162 154 220 130 c 0,51,52
 222 126 222 126 240 118 c 128,-1,53
 258 110 258 110 274 102 c 0,54,55
 292 94 292 94 306 84 c 0,56,57
 336 68 336 68 357 70 c 128,-1,58
 378 72 378 72 414 94 c 0,59,60
 452 122 452 122 515 243 c 128,-1,61
 578 364 578 364 578 418 c 0,62,63
 578 466 578 466 618 510 c 128,-1,64
 658 554 658 554 702 554 c 0,65,66
 756 554 756 554 842 462 c 0,67,68
 886 418 886 418 918 401 c 128,-1,69
 950 384 950 384 969 384 c 128,-1,70
 988 384 988 384 1044 392 c 0,71,72
 1098 400 1098 400 1148 402 c 0,73,74
 1202 408 1202 408 1227 404 c 128,-1,75
 1252 400 1252 400 1256 388 c 0,0,1
254 931 m 128,-1,77
 242 856 242 856 260 844 c 1,78,79
 280 844 280 844 328 952 c 0,80,81
 352 1000 352 1000 435 1167 c 128,-1,82
 518 1334 518 1334 544 1394 c 0,83,84
 622 1584 622 1584 622 1606 c 0,85,86
 622 1670 622 1670 512 1550 c 0,87,88
 442 1466 442 1466 442 1442 c 0,89,90
 442 1404 442 1404 388 1312 c 0,91,92
 346 1238 346 1238 306 1122 c 128,-1,76
 266 1006 266 1006 254 931 c 128,-1,77
EndSplineSet
EndChar

StartChar: c
Encoding: 99 99 71
Width: 1095
GlyphClass: 2
Flags: MW
LayerCount: 2
Fore
SplineSet
1078 246 m 0,0,1
 1122 282 1122 282 1154 276 c 128,-1,2
 1186 270 1186 270 1188 212 c 0,3,4
 1188 198 1188 198 1183 183 c 128,-1,5
 1178 168 1178 168 1167 154 c 128,-1,6
 1156 140 1156 140 1146 129 c 128,-1,7
 1136 118 1136 118 1119 105 c 128,-1,8
 1102 92 1102 92 1091 85 c 128,-1,9
 1080 78 1080 78 1062 66 c 128,-1,10
 1044 54 1044 54 1038 50 c 0,11,12
 990 18 990 18 940 -4 c 0,13,14
 908 -18 908 -18 832 -43 c 128,-1,15
 756 -68 756 -68 638 -99 c 128,-1,16
 520 -130 520 -130 408 -123 c 128,-1,17
 296 -116 296 -116 240 -60 c 0,18,19
 218 -38 218 -38 190 4 c 128,-1,20
 162 46 162 46 141 86 c 128,-1,21
 120 126 120 126 110 152 c 0,22,23
 84 222 84 222 86 346 c 0,24,25
 104 724 104 724 410 994 c 0,26,27
 482 1054 482 1054 516 1067 c 128,-1,28
 550 1080 550 1080 644 1080 c 0,29,30
 816 1080 816 1080 907 1004 c 128,-1,31
 998 928 998 928 976 804 c 0,32,33
 962 742 962 742 949 727 c 128,-1,34
 936 712 936 712 890 706 c 0,35,36
 828 700 828 700 773 731 c 128,-1,37
 718 762 718 762 730 798 c 0,38,39
 742 828 742 828 717 859 c 128,-1,40
 692 890 692 890 656 890 c 0,41,42
 590 890 590 890 455 751 c 128,-1,43
 320 612 320 612 320 542 c 0,44,45
 320 516 320 516 292 466 c 0,46,47
 262 422 262 422 264 314 c 0,48,49
 268 208 268 208 298 164 c 0,50,51
 346 92 346 92 459 65 c 128,-1,52
 572 38 572 38 666 56 c 0,53,54
 716 64 716 64 774 88 c 0,55,56
 880 130 880 130 968 198 c 0,57,58
 1036 248 1036 248 1062 236 c 0,59,60
 1064 236 1064 236 1069 240 c 128,-1,61
 1074 244 1074 244 1078 246 c 0,0,1
EndSplineSet
EndChar

StartChar: d
Encoding: 100 100 72
Width: 1481
GlyphClass: 2
Flags: MW
LayerCount: 2
Fore
SplineSet
1482 306 m 0,0,1
 1526 344 1526 344 1559 337 c 128,-1,2
 1592 330 1592 330 1592 274 c 0,3,4
 1594 256 1594 256 1585 238 c 128,-1,5
 1576 220 1576 220 1566 207 c 128,-1,6
 1556 194 1556 194 1537 177 c 128,-1,7
 1518 160 1518 160 1506 152 c 128,-1,8
 1494 144 1494 144 1471 129 c 128,-1,9
 1448 114 1448 114 1444 110 c 0,10,11
 1396 78 1396 78 1346 58 c 0,12,13
 1338 54 1338 54 1318 42 c 128,-1,14
 1298 30 1298 30 1288 26 c 0,15,16
 1222 0 1222 0 1190 -4 c 0,17,18
 1020 -26 1020 -26 958 -12 c 128,-1,19
 896 2 896 2 818 72 c 0,20,21
 770 120 770 120 750 160 c 128,-1,22
 730 200 730 200 718 268 c 0,23,24
 694 378 694 378 670 380 c 0,25,26
 652 380 652 380 628 340 c 0,27,28
 596 282 596 282 514 192 c 128,-1,29
 432 102 432 102 380 66 c 0,30,31
 344 42 344 42 299 27 c 128,-1,32
 254 12 254 12 202 6 c 0,33,34
 130 0 130 0 106 5 c 128,-1,35
 82 10 82 10 62 42 c 0,36,37
 0 140 0 140 19 335 c 128,-1,38
 38 530 38 530 126 666 c 0,39,40
 178 742 178 742 268 827 c 128,-1,41
 358 912 358 912 460 968 c 0,42,43
 524 1006 524 1006 682 1006 c 0,44,45
 732 1008 732 1008 766 1021 c 128,-1,46
 800 1034 800 1034 822 1061 c 128,-1,47
 844 1088 844 1088 857 1115 c 128,-1,48
 870 1142 870 1142 891 1187 c 128,-1,49
 912 1232 912 1232 932 1264 c 0,50,51
 1240 1750 1240 1750 1264 1786 c 0,52,53
 1270 1798 1270 1798 1288 1828 c 0,54,55
 1414 2042 1414 2042 1474 2060 c 0,56,57
 1526 2076 1526 2076 1548 1986 c 0,58,59
 1572 1896 1572 1896 1528 1774 c 128,-1,60
 1484 1652 1484 1652 1421 1557 c 128,-1,61
 1358 1462 1358 1462 1270 1339 c 128,-1,62
 1182 1216 1182 1216 1154 1164 c 0,63,64
 1130 1124 1130 1124 1101 1043 c 128,-1,65
 1072 962 1072 962 1060 934 c 0,66,67
 886 556 886 556 920 298 c 0,68,69
 932 202 932 202 969 161 c 128,-1,70
 1006 120 1006 120 1076 120 c 0,71,72
 1126 120 1126 120 1204 142 c 0,73,74
 1234 152 1234 152 1240 156 c 0,75,76
 1394 236 1394 236 1482 306 c 0,0,1
442 386 m 0,77,78
 726 746 726 746 718 804 c 0,79,80
 708 846 708 846 641 845 c 128,-1,81
 574 844 574 844 512 800 c 0,82,83
 436 748 436 748 345 646 c 128,-1,84
 254 544 254 544 228 482 c 0,85,86
 198 416 198 416 198 318 c 0,87,88
 198 196 198 196 246 202 c 0,89,90
 302 208 302 208 442 386 c 0,77,78
EndSplineSet
EndChar

StartChar: e
Encoding: 101 101 73
Width: 901
GlyphClass: 2
Flags: MW
LayerCount: 2
Fore
SplineSet
940 224 m 0,0,1
 984 260 984 260 1017 253 c 128,-1,2
 1050 246 1050 246 1050 190 c 0,3,4
 1052 172 1052 172 1043 154 c 128,-1,5
 1034 136 1034 136 1024 123 c 128,-1,6
 1014 110 1014 110 995 94 c 128,-1,7
 976 78 976 78 964 70 c 128,-1,8
 952 62 952 62 929 47 c 128,-1,9
 906 32 906 32 902 28 c 0,10,11
 854 -4 854 -4 804 -26 c 0,12,13
 800 -28 800 -28 793 -31 c 128,-1,14
 786 -34 786 -34 778 -37 c 128,-1,15
 770 -40 770 -40 762 -43 c 128,-1,16
 754 -46 754 -46 749 -48 c 0,17,-1
 744 -50 l 2,18,19
 622 -100 622 -100 482 -108 c 0,20,21
 338 -116 338 -116 272 -82 c 0,22,23
 264 -78 264 -78 208 -54 c 128,-1,24
 152 -30 152 -30 128 -12 c 0,25,26
 82 18 82 18 40 118 c 0,27,28
 -38 298 -38 298 -38 436 c 0,29,30
 -38 520 -38 520 -8 656 c 0,31,32
 -6 664 -6 664 -1 690 c 128,-1,33
 4 716 4 716 8 729 c 128,-1,34
 12 742 12 742 18 765 c 128,-1,35
 24 788 24 788 30 804 c 128,-1,36
 36 820 36 820 44 837 c 128,-1,37
 52 854 52 854 60 868 c 0,38,39
 102 926 102 926 128 952 c 0,40,41
 236 1064 236 1064 402 1052 c 0,42,43
 574 1038 574 1038 588 938 c 0,44,45
 600 860 600 860 579 777 c 128,-1,46
 558 694 558 694 527 640 c 128,-1,47
 496 586 496 586 441 500 c 128,-1,48
 386 414 386 414 362 368 c 0,49,50
 274 202 274 202 274 170 c 0,51,52
 274 144 274 144 324 96 c 0,53,54
 356 66 356 66 381 60 c 128,-1,55
 406 54 406 54 472 66 c 0,56,57
 576 80 576 80 698 116 c 0,58,59
 744 132 744 132 832 170 c 128,-1,60
 920 208 920 208 940 224 c 0,0,1
164 366 m 0,61,62
 182 366 182 366 264 522 c 0,63,64
 344 678 344 678 344 710 c 0,65,66
 344 748 344 748 303 759 c 128,-1,67
 262 770 262 770 238 740 c 0,68,69
 218 716 218 716 198 668 c 256,70,71
 178 620 178 620 166 570 c 0,72,73
 156 520 156 520 148 474 c 256,74,75
 140 428 140 428 144 397 c 128,-1,76
 148 366 148 366 164 366 c 0,61,62
EndSplineSet
EndChar

StartChar: f
Encoding: 102 102 74
Width: 715
GlyphClass: 2
Flags: MW
LayerCount: 2
Fore
SplineSet
842 274 m 0,0,1
 842 240 842 240 779 178 c 128,-1,2
 716 116 716 116 680 96 c 0,3,4
 656 80 656 80 624 65 c 128,-1,5
 592 50 592 50 564 38 c 128,-1,6
 536 26 536 26 512 17 c 128,-1,7
 488 8 488 8 471 1 c 128,-1,8
 454 -6 454 -6 452 -6 c 0,9,10
 402 -28 402 -28 350 -36 c 128,-1,11
 298 -44 298 -44 267 -45 c 128,-1,12
 236 -46 236 -46 206 -58 c 128,-1,13
 176 -70 176 -70 153 -108 c 128,-1,14
 130 -146 130 -146 110 -222 c 0,15,16
 96 -274 96 -274 76 -414 c 128,-1,17
 56 -554 56 -554 23 -652 c 128,-1,18
 -10 -750 -10 -750 -76 -814 c 0,19,20
 -126 -862 -126 -862 -167 -878 c 128,-1,21
 -208 -894 -208 -894 -234 -882 c 128,-1,22
 -260 -870 -260 -870 -281 -842 c 128,-1,23
 -302 -814 -302 -814 -310 -772 c 128,-1,24
 -318 -730 -318 -730 -322 -688 c 128,-1,25
 -326 -646 -326 -646 -318 -604 c 0,26,27
 -304 -496 -304 -496 -267 -389 c 128,-1,28
 -230 -282 -230 -282 -165 -135 c 128,-1,29
 -100 12 -100 12 -78 68 c 0,30,31
 -48 144 -48 144 -22 248 c 0,32,33
 -20 262 -20 262 -14 298 c 128,-1,34
 -8 334 -8 334 -1 359 c 128,-1,35
 6 384 6 384 20 404 c 0,36,37
 28 416 28 416 47 434 c 128,-1,38
 66 452 66 452 84 469 c 128,-1,39
 102 486 102 486 120 504 c 128,-1,40
 138 522 138 522 149 543 c 128,-1,41
 160 564 160 564 160 586 c 0,42,43
 160 638 160 638 224 810 c 0,44,45
 288 984 288 984 368 1152 c 0,46,47
 510 1460 510 1460 524 1496 c 0,48,49
 530 1508 530 1508 537 1529 c 128,-1,50
 544 1550 544 1550 550 1568 c 128,-1,51
 556 1586 556 1586 564 1607 c 128,-1,52
 572 1628 572 1628 582 1646 c 128,-1,53
 592 1664 592 1664 604 1679 c 128,-1,54
 616 1694 616 1694 632 1704 c 128,-1,55
 648 1714 648 1714 668 1718 c 0,56,57
 734 1728 734 1728 769 1680 c 128,-1,58
 804 1632 804 1632 802 1566 c 0,59,60
 800 1494 800 1494 784 1417 c 128,-1,61
 768 1340 768 1340 748 1280 c 128,-1,62
 728 1220 728 1220 690 1139 c 128,-1,63
 652 1058 652 1058 626 1011 c 128,-1,64
 600 964 600 964 552 877 c 128,-1,65
 504 790 504 790 482 750 c 0,66,67
 428 646 428 646 309 455 c 128,-1,68
 190 264 190 264 174 236 c 0,69,70
 160 214 160 214 154 198 c 128,-1,71
 148 182 148 182 151 161 c 128,-1,72
 154 140 154 140 169 125 c 128,-1,73
 184 110 184 110 211 105 c 128,-1,74
 238 100 238 100 302 94 c 0,75,76
 338 90 338 90 381 100 c 128,-1,77
 424 110 424 110 460 128 c 128,-1,78
 496 146 496 146 533 167 c 128,-1,79
 570 188 570 188 595 207 c 128,-1,80
 620 226 620 226 639 240 c 128,-1,81
 658 254 658 254 660 254 c 0,82,83
 704 284 704 284 732 306 c 0,84,85
 776 344 776 344 809 337 c 128,-1,86
 842 330 842 330 842 274 c 0,0,1
-102 -308 m 0,87,88
 -104 -310 -104 -310 -106 -316 c 0,89,90
 -156 -488 -156 -488 -116 -536 c 1,91,92
 -70 -452 -70 -452 -56 -304 c 0,93,94
 -54 -286 -54 -286 -62 -278 c 0,95,96
 -74 -266 -74 -266 -90 -280 c 0,97,98
 -98 -288 -98 -288 -102 -308 c 0,87,88
EndSplineSet
EndChar

StartChar: g
Encoding: 103 103 75
Width: 937
GlyphClass: 2
Flags: MW
LayerCount: 2
Fore
SplineSet
976 260 m 0,0,1
 1020 298 1020 298 1053 291 c 128,-1,2
 1086 284 1086 284 1086 226 c 0,3,4
 1086 210 1086 210 1078 192 c 128,-1,5
 1070 174 1070 174 1060 161 c 128,-1,6
 1050 148 1050 148 1030 131 c 128,-1,7
 1010 114 1010 114 999 106 c 128,-1,8
 988 98 988 98 965 83 c 128,-1,9
 942 68 942 68 938 64 c 0,10,11
 890 32 890 32 838 12 c 0,12,13
 832 8 832 8 792 -14 c 128,-1,14
 752 -36 752 -36 706 -58 c 128,-1,15
 660 -80 660 -80 624 -92 c 1,16,17
 580 -124 580 -124 510 -162 c 0,18,19
 406 -220 406 -220 372 -298 c 0,20,21
 362 -318 362 -318 344 -350 c 0,22,23
 328 -380 328 -380 306 -412 c 0,24,25
 286 -442 286 -442 260 -478 c 0,26,27
 234 -516 234 -516 214 -546 c 256,28,29
 194 -576 194 -576 172 -604 c 0,30,31
 150 -634 150 -634 140 -648 c 0,32,33
 126 -672 126 -672 51 -719 c 128,-1,34
 -24 -766 -24 -766 -100 -806 c 0,35,36
 -262 -886 -262 -886 -304 -750 c 0,37,38
 -322 -692 -322 -692 -322 -662 c 0,39,40
 -322 -646 -322 -646 -315 -629 c 128,-1,41
 -308 -612 -308 -612 -300 -598 c 128,-1,42
 -292 -584 -292 -584 -277 -568 c 128,-1,43
 -262 -552 -262 -552 -251 -542 c 128,-1,44
 -240 -532 -240 -532 -223 -516 c 128,-1,45
 -206 -500 -206 -500 -198 -494 c 0,46,47
 -122 -420 -122 -420 6 -352 c 0,48,49
 42 -332 42 -332 112 -286 c 0,50,51
 204 -226 204 -226 220 -218 c 0,52,53
 264 -194 264 -194 330 -94 c 128,-1,54
 396 6 396 6 380 22 c 0,55,56
 368 32 368 32 276 2 c 0,57,58
 30 -82 30 -82 -38 180 c 0,59,60
 -58 252 -58 252 -24 372 c 128,-1,61
 10 492 10 492 74 586 c 0,62,63
 112 640 112 640 155 690 c 128,-1,64
 198 740 198 740 255 789 c 128,-1,65
 312 838 312 838 371 873 c 128,-1,66
 430 908 430 908 498 924 c 128,-1,67
 566 940 566 940 628 928 c 0,68,69
 700 916 700 916 736 872 c 128,-1,70
 772 828 772 828 773 772 c 128,-1,71
 774 716 774 716 762 652 c 0,72,73
 740 560 740 560 709 476 c 128,-1,74
 678 392 678 392 656 366 c 0,75,76
 630 334 630 334 630 314 c 0,77,78
 630 296 630 296 576 192 c 0,79,80
 526 82 526 82 526 38 c 0,81,82
 526 20 526 20 528 10 c 1,83,84
 534 20 534 20 571 38 c 128,-1,85
 608 56 608 56 661 78 c 128,-1,86
 714 100 714 100 732 108 c 0,87,88
 886 190 886 190 976 260 c 0,0,1
196 -386 m 0,89,90
 234 -322 234 -322 208 -322 c 0,91,92
 170 -322 170 -322 64 -408 c 256,93,94
 -42 -494 -42 -494 -125 -589 c 128,-1,95
 -208 -684 -208 -684 -190 -702 c 0,96,97
 -148 -742 -148 -742 -16 -634 c 128,-1,98
 116 -526 116 -526 196 -386 c 0,89,90
370 266 m 0,99,100
 484 452 484 452 484 474 c 0,101,102
 484 518 484 518 514 563 c 128,-1,103
 544 608 544 608 550 670 c 0,104,105
 558 728 558 728 534 736 c 0,106,107
 508 744 508 744 429 695 c 128,-1,108
 350 646 350 646 324 608 c 0,109,110
 316 596 316 596 281 567 c 128,-1,111
 246 538 246 538 208 498 c 128,-1,112
 170 458 170 458 152 418 c 0,113,114
 86 278 86 278 102 216 c 0,115,116
 120 142 120 142 164 133 c 128,-1,117
 208 124 208 124 292 178 c 0,118,119
 330 200 330 200 370 266 c 0,99,100
EndSplineSet
EndChar

StartChar: h
Encoding: 104 104 76
Width: 1291
GlyphClass: 2
Flags: MW
LayerCount: 2
Fore
SplineSet
1282 306 m 0,0,1
 1326 344 1326 344 1359 337 c 128,-1,2
 1392 330 1392 330 1392 274 c 0,3,4
 1392 258 1392 258 1387 243 c 128,-1,5
 1382 228 1382 228 1372 214 c 128,-1,6
 1362 200 1362 200 1351 189 c 128,-1,7
 1340 178 1340 178 1323 166 c 128,-1,8
 1306 154 1306 154 1296 146 c 128,-1,9
 1286 138 1286 138 1268 126 c 128,-1,10
 1250 114 1250 114 1244 110 c 0,11,12
 1242 110 1242 110 1238 108 c 128,-1,13
 1234 106 1234 106 1234 104 c 0,14,15
 1228 100 1228 100 1218 93 c 128,-1,16
 1208 86 1208 86 1204 84 c 0,17,18
 1136 36 1136 36 1082 18 c 0,19,20
 1028 4 1028 4 948 -4 c 0,21,22
 744 -26 744 -26 644 90 c 128,-1,23
 544 206 544 206 502 514 c 0,24,25
 490 612 490 612 476 612 c 0,26,27
 464 612 464 612 334 500 c 0,28,29
 260 432 260 432 228 392 c 0,30,31
 212 376 212 376 200 350 c 128,-1,32
 188 324 188 324 176 288 c 128,-1,33
 164 252 164 252 158 240 c 0,34,35
 152 226 152 226 130 174 c 2,36,-1
 100 100 l 2,37,38
 92 82 92 82 90 41 c 128,-1,39
 88 0 88 0 75 -24 c 128,-1,40
 62 -48 62 -48 26 -54 c 0,41,42
 -44 -64 -44 -64 -94 8 c 0,43,44
 -126 52 -126 52 -128 74 c 128,-1,45
 -130 96 -130 96 -106 156 c 0,46,47
 -100 168 -100 168 -96 180 c 0,48,49
 -92 190 -92 190 -83 217 c 128,-1,50
 -74 244 -74 244 -71 253 c 128,-1,51
 -68 262 -68 262 -60 285 c 128,-1,52
 -52 308 -52 308 -47 320 c 128,-1,53
 -42 332 -42 332 -34 352 c 128,-1,54
 -26 372 -26 372 -19 386 c 128,-1,55
 -12 400 -12 400 -3 418 c 128,-1,56
 6 436 6 436 16 454 c 0,57,58
 54 522 54 522 73 663 c 128,-1,59
 92 804 92 804 98 824 c 0,60,61
 132 966 132 966 232 1230 c 0,62,63
 250 1280 250 1280 274 1381 c 128,-1,64
 298 1482 298 1482 322 1569 c 128,-1,65
 346 1656 346 1656 382 1748 c 128,-1,66
 418 1840 418 1840 479 1904 c 128,-1,67
 540 1968 540 1968 620 1988 c 0,68,69
 688 2004 688 2004 731 1981 c 128,-1,70
 774 1958 774 1958 790 1912 c 128,-1,71
 806 1866 806 1866 807 1803 c 128,-1,72
 808 1740 808 1740 801 1690 c 128,-1,73
 794 1640 794 1640 782 1594 c 0,74,75
 760 1520 760 1520 712 1422 c 0,76,77
 664 1326 664 1326 646 1284 c 0,78,79
 618 1206 618 1206 568 1126 c 0,80,81
 544 1092 544 1092 497 1013 c 128,-1,82
 450 934 450 934 420 898 c 0,83,84
 378 842 378 842 328 788 c 0,85,86
 322 782 322 782 304 765 c 128,-1,87
 286 748 286 748 273 733 c 128,-1,88
 260 718 260 718 256 704 c 0,89,90
 254 698 254 698 259 690 c 128,-1,91
 264 682 264 682 270 684 c 0,92,93
 274 684 274 684 280 688 c 0,94,95
 296 700 296 700 324 728 c 128,-1,96
 352 756 352 756 377 772 c 128,-1,97
 402 788 402 788 430 792 c 0,98,99
 446 794 446 794 462 796 c 0,100,101
 548 806 548 806 601 780 c 128,-1,102
 654 754 654 754 690 686 c 0,103,104
 722 616 722 616 722 526 c 0,105,106
 722 446 722 446 748 338 c 0,107,108
 772 230 772 230 802 176 c 0,109,110
 820 144 820 144 842 138 c 128,-1,111
 864 132 864 132 932 140 c 0,112,113
 1014 150 1014 150 1066 170 c 0,114,115
 1202 242 1202 242 1282 306 c 0,0,1
506 1528 m 0,116,117
 502 1520 502 1520 494 1505 c 128,-1,118
 486 1490 486 1490 480 1477 c 128,-1,119
 474 1464 474 1464 468 1452 c 0,120,121
 424 1360 424 1360 398 1260 c 0,122,123
 388 1222 388 1222 374 1183 c 128,-1,124
 360 1144 360 1144 339 1090 c 128,-1,125
 318 1036 318 1036 310 1016 c 0,126,127
 298 984 298 984 314 974 c 0,128,129
 322 968 322 968 336 982 c 0,130,131
 368 1014 368 1014 390 1053 c 128,-1,132
 412 1092 412 1092 433 1144 c 128,-1,133
 454 1196 454 1196 468 1224 c 0,134,135
 526 1330 526 1330 566 1490 c 0,136,137
 570 1500 570 1500 582 1527 c 128,-1,138
 594 1554 594 1554 602 1575 c 128,-1,139
 610 1596 610 1596 613 1622 c 128,-1,140
 616 1648 616 1648 602 1656 c 0,141,142
 588 1668 588 1668 568 1644 c 0,143,144
 552 1628 552 1628 526 1570 c 0,145,146
 518 1550 518 1550 506 1528 c 0,116,117
272 684 m 1024,147,-1
EndSplineSet
EndChar

StartChar: i
Encoding: 105 105 77
Width: 667
GlyphClass: 2
Flags: MW
LayerCount: 2
Fore
SplineSet
478 1214 m 0,0,1
 422 1200 422 1200 368 1254 c 0,2,3
 330 1292 330 1292 328 1304 c 128,-1,4
 326 1316 326 1316 356 1340 c 0,5,6
 398 1370 398 1370 463 1370 c 128,-1,7
 528 1370 528 1370 552 1340 c 0,8,9
 578 1306 578 1306 555 1266 c 128,-1,10
 532 1226 532 1226 478 1214 c 0,0,1
834 256 m 0,11,12
 848 232 848 232 835 210 c 128,-1,13
 822 188 822 188 762 138 c 0,14,15
 668 58 668 58 540 -8 c 0,16,17
 444 -56 444 -56 341 -47 c 128,-1,18
 238 -38 238 -38 147 12 c 128,-1,19
 56 62 56 62 -10 142 c 0,20,21
 -104 254 -104 254 -66 440 c 0,22,23
 -62 454 -62 454 -50 536 c 128,-1,24
 -38 618 -38 618 -25 681 c 128,-1,25
 -12 744 -12 744 4 764 c 0,26,27
 22 786 22 786 63 794 c 128,-1,28
 104 802 104 802 148 795 c 128,-1,29
 192 788 192 788 232 769 c 128,-1,30
 272 750 272 750 287 718 c 128,-1,31
 302 686 302 686 286 646 c 0,32,33
 240 550 240 550 240 512 c 0,34,35
 240 476 240 476 200 422 c 0,36,37
 166 382 166 382 159 325 c 128,-1,38
 152 268 152 268 178 250 c 0,39,40
 200 242 200 242 200 200 c 0,41,42
 200 164 200 164 252 118 c 0,43,44
 288 84 288 84 309 80 c 128,-1,45
 330 76 330 76 386 90 c 0,46,47
 468 120 468 120 596 212 c 0,48,49
 698 286 698 286 751 296 c 128,-1,50
 804 306 804 306 834 256 c 0,11,12
EndSplineSet
EndChar

StartChar: j
Encoding: 106 106 78
Width: 529
GlyphClass: 2
Flags: MW
LayerCount: 2
Fore
SplineSet
390 1644 m 128,-1,1
 322 1696 322 1696 322 1720 c 0,2,3
 322 1738 322 1738 412 1738 c 0,4,5
 494 1738 494 1738 540 1701 c 128,-1,6
 586 1664 586 1664 554 1622 c 0,7,8
 524 1592 524 1592 488 1592 c 0,9,0
 458 1592 458 1592 390 1644 c 128,-1,1
516 258 m 0,10,11
 560 294 560 294 593 287 c 128,-1,12
 626 280 626 280 628 224 c 0,13,14
 628 206 628 206 619 188 c 128,-1,15
 610 170 610 170 600 157 c 128,-1,16
 590 144 590 144 571 128 c 128,-1,17
 552 112 552 112 541 104 c 128,-1,18
 530 96 530 96 507 80 c 128,-1,19
 484 64 484 64 478 62 c 0,20,21
 430 28 430 28 380 8 c 0,22,23
 374 6 374 6 327 -20 c 128,-1,24
 280 -46 280 -46 244 -64 c 1,25,26
 212 -96 212 -96 194 -116 c 0,27,28
 120 -194 120 -194 28 -280 c 0,29,30
 -66 -366 -66 -366 -102 -466 c 0,31,32
 -150 -592 -150 -592 -178 -641 c 128,-1,33
 -206 -690 -206 -690 -272 -752 c 0,34,35
 -324 -806 -324 -806 -355 -819 c 128,-1,36
 -386 -832 -386 -832 -458 -832 c 0,37,38
 -560 -832 -560 -832 -631 -783 c 128,-1,39
 -702 -734 -702 -734 -702 -660 c 0,40,41
 -702 -624 -702 -624 -679 -589 c 128,-1,42
 -656 -554 -656 -554 -592 -490 c 0,43,44
 -550 -452 -550 -452 -472 -378 c 0,45,46
 -256 -170 -256 -170 -190 -102 c 256,47,48
 -124 -34 -124 -34 -96 6 c 0,49,50
 -70 46 -70 46 -54 112 c 0,51,52
 -54 120 -54 120 -53 123 c 128,-1,53
 -52 126 -52 126 -50 134 c 128,-1,54
 -48 142 -48 142 -48 148 c 0,55,56
 -30 218 -30 218 10 354 c 128,-1,57
 50 490 50 490 68 558 c 0,58,59
 72 580 72 580 86 663 c 128,-1,60
 100 746 100 746 118 808 c 128,-1,61
 136 870 136 870 164 900 c 0,62,63
 198 936 198 936 198 972 c 0,64,65
 198 1002 198 1002 216 1016 c 0,66,67
 236 1028 236 1028 292 1148 c 0,68,69
 352 1266 352 1266 402 1314 c 0,70,71
 456 1364 456 1364 518 1358 c 0,72,73
 544 1354 544 1354 555 1351 c 128,-1,74
 566 1348 566 1348 573 1338 c 128,-1,75
 580 1328 580 1328 582 1314 c 256,76,77
 584 1300 584 1300 580 1262 c 0,78,79
 568 1120 568 1120 468 888 c 0,80,81
 460 870 460 870 388 737 c 128,-1,82
 316 604 316 604 306 536 c 0,83,84
 300 506 300 506 251 392 c 128,-1,85
 202 278 202 278 163 180 c 128,-1,86
 124 82 124 82 138 70 c 0,87,88
 164 46 164 46 309 127 c 128,-1,89
 454 208 454 208 516 258 c 0,10,11
-340 -547 m 128,-1,91
 -260 -428 -260 -428 -280 -408 c 0,92,93
 -304 -386 -304 -386 -408 -500 c 0,94,95
 -524 -624 -524 -624 -494 -648 c 0,96,97
 -484 -656 -484 -656 -458 -660 c 0,98,90
 -420 -666 -420 -666 -340 -547 c 128,-1,91
EndSplineSet
Substitution2: "'aalt' Access All Alternates lookup 0 subtable" j.alt1
EndChar

StartChar: k
Encoding: 107 107 79
Width: 1285
GlyphClass: 2
Flags: MW
LayerCount: 2
Fore
SplineSet
1520 272 m 0,0,1
 1516 242 1516 242 1482 202 c 0,2,3
 1390 94 1390 94 1255 37 c 128,-1,4
 1120 -20 1120 -20 978 -10 c 0,5,6
 946 -8 946 -8 926 -2 c 0,7,8
 904 6 904 6 864 34 c 0,9,10
 780 92 780 92 488 296 c 0,11,12
 446 324 446 324 422 320 c 0,13,14
 392 316 392 316 366 276 c 0,15,16
 314 194 314 194 302 96 c 0,17,18
 298 60 298 60 292 46 c 0,19,20
 278 20 278 20 245 11 c 128,-1,21
 212 2 212 2 184 16 c 0,22,23
 134 36 134 36 102 106 c 0,24,25
 88 132 88 132 86 161 c 128,-1,26
 84 190 84 190 90 243 c 128,-1,27
 96 296 96 296 96 304 c 0,28,29
 98 328 98 328 109 373 c 128,-1,30
 120 418 120 418 122 440 c 0,31,32
 124 476 124 476 170 614 c 128,-1,33
 216 752 216 752 244 810 c 0,34,35
 318 964 318 964 342 1108 c 0,36,37
 358 1216 358 1216 574 1674 c 0,38,39
 598 1726 598 1726 632 1759 c 128,-1,40
 666 1792 666 1792 720 1824 c 0,41,42
 818 1880 818 1880 874 1860 c 0,43,44
 906 1848 906 1848 925 1817 c 128,-1,45
 944 1786 944 1786 947 1750 c 128,-1,46
 950 1714 950 1714 946 1678 c 0,47,48
 932 1570 932 1570 846 1372 c 0,49,50
 710 1066 710 1066 666 968 c 1,51,52
 690 964 690 964 717 963 c 128,-1,53
 744 962 744 962 780 965 c 128,-1,54
 816 968 816 968 832 968 c 0,55,56
 936 970 936 970 984 918 c 0,57,58
 1056 838 1056 838 978 682 c 0,59,60
 882 494 882 494 712 346 c 1,61,62
 734 330 734 330 760 312 c 128,-1,63
 786 294 786 294 814 274 c 128,-1,64
 842 254 842 254 860 240 c 0,65,66
 954 174 954 174 1008 162 c 0,67,68
 1110 138 1110 138 1236 202 c 0,69,70
 1272 222 1272 222 1338 264 c 128,-1,71
 1404 306 1404 306 1438 324 c 0,72,73
 1460 336 1460 336 1472 336 c 0,74,75
 1494 336 1494 336 1507 317 c 128,-1,76
 1520 298 1520 298 1520 276 c 2,77,78
 1520 275 l 0,79,80
 1520 274 1520 274 1520 272 c 0,0,1
622 556 m 0,81,82
 678 606 678 606 666 642 c 0,83,84
 650 680 650 680 618 674 c 128,-1,85
 586 668 586 668 548 622 c 0,86,87
 490 546 490 546 520 521 c 128,-1,88
 550 496 550 496 622 556 c 0,81,82
EndSplineSet
AlternateSubs2: "'aalt' Access All Alternates lookup 1 subtable" k.alt1 k.alt2
EndChar

StartChar: l
Encoding: 108 108 80
Width: 679
GlyphClass: 2
Flags: MW
LayerCount: 2
Fore
SplineSet
326 672 m 256,0,1
 260 592 260 592 212 522 c 256,2,3
 164 452 164 452 168 434 c 0,4,5
 168 402 168 402 224 288 c 0,6,7
 292 158 292 158 382 158 c 0,8,9
 400 158 400 158 419 162 c 128,-1,10
 438 166 438 166 467 176 c 128,-1,11
 496 186 496 186 504 188 c 0,12,13
 526 194 526 194 576 224 c 0,14,15
 638 262 638 262 694 306 c 0,16,17
 738 344 738 344 771 337 c 128,-1,18
 804 330 804 330 806 274 c 0,19,20
 806 256 806 256 797 238 c 128,-1,21
 788 220 788 220 778 207 c 128,-1,22
 768 194 768 194 749 177 c 128,-1,23
 730 160 730 160 718 152 c 128,-1,24
 706 144 706 144 684 129 c 128,-1,25
 662 114 662 114 656 110 c 0,26,27
 640 100 640 100 608 80 c 128,-1,28
 576 60 576 60 560 50 c 0,29,30
 492 4 492 4 422 -4 c 0,31,32
 354 -14 354 -14 320 -5 c 128,-1,33
 286 4 286 4 220 48 c 0,34,35
 136 106 136 106 84 174 c 128,-1,36
 32 242 32 242 14 304 c 128,-1,37
 -4 366 -4 366 -4 448 c 128,-1,38
 -4 530 -4 530 6 595 c 128,-1,39
 16 660 16 660 31 755 c 128,-1,40
 46 850 46 850 48 918 c 0,41,42
 50 944 50 944 53 972 c 128,-1,43
 56 1000 56 1000 59 1023 c 128,-1,44
 62 1046 62 1046 68 1078 c 128,-1,45
 74 1110 74 1110 77 1128 c 128,-1,46
 80 1146 80 1146 90 1181 c 128,-1,47
 100 1216 100 1216 103 1230 c 128,-1,48
 106 1244 106 1244 117 1283 c 128,-1,49
 128 1322 128 1322 131 1332 c 128,-1,50
 134 1342 134 1342 147 1385 c 128,-1,51
 160 1428 160 1428 162 1436 c 0,52,53
 184 1510 184 1510 200 1544 c 0,54,55
 218 1580 218 1580 249 1615 c 128,-1,56
 280 1650 280 1650 305 1672 c 128,-1,57
 330 1694 330 1694 372 1728 c 0,58,59
 388 1740 388 1740 427 1772 c 128,-1,60
 466 1804 466 1804 484 1817 c 128,-1,61
 502 1830 502 1830 533 1853 c 128,-1,62
 564 1876 564 1876 593 1893 c 128,-1,63
 622 1910 622 1910 656 1926 c 0,64,65
 732 1964 732 1964 774 1954 c 0,66,67
 806 1946 806 1946 828 1919 c 128,-1,68
 850 1892 850 1892 858 1858 c 0,69,70
 864 1834 864 1834 867 1809 c 128,-1,71
 870 1784 870 1784 868 1755 c 128,-1,72
 866 1726 866 1726 865 1706 c 128,-1,73
 864 1686 864 1686 856 1652 c 128,-1,74
 848 1618 848 1618 845 1603 c 128,-1,75
 842 1588 842 1588 829 1551 c 128,-1,76
 816 1514 816 1514 813 1504 c 128,-1,77
 810 1494 810 1494 795 1453 c 128,-1,78
 780 1412 780 1412 778 1406 c 0,79,80
 728 1272 728 1272 698 1230 c 0,81,82
 678 1202 678 1202 582 1020 c 0,83,84
 484 838 484 838 446 802 c 0,85,86
 392 752 392 752 326 672 c 256,0,1
249 1022 m 128,-1,88
 220 906 220 906 238 888 c 0,89,90
 248 880 248 880 271 905 c 128,-1,91
 294 930 294 930 327 983 c 128,-1,92
 360 1036 360 1036 392 1110 c 0,93,94
 458 1242 458 1242 458 1254 c 0,95,96
 458 1260 458 1260 520 1390 c 0,97,98
 582 1518 582 1518 582 1546 c 0,99,100
 582 1604 582 1604 530 1558 c 0,101,102
 496 1532 496 1532 464 1476 c 0,103,104
 414 1384 414 1384 370 1328 c 0,105,106
 330 1276 330 1276 330 1230 c 0,107,108
 330 1186 330 1186 300 1158 c 0,109,87
 278 1138 278 1138 249 1022 c 128,-1,88
EndSplineSet
Substitution2: "'aalt' Access All Alternates lookup 0 subtable" l.alt1
EndChar

StartChar: m
Encoding: 109 109 81
Width: 1775
GlyphClass: 2
Flags: MW
LayerCount: 2
Fore
SplineSet
1770 304 m 0,0,1
 1814 340 1814 340 1847 333 c 128,-1,2
 1880 326 1880 326 1882 270 c 0,3,4
 1882 252 1882 252 1874 234 c 128,-1,5
 1866 216 1866 216 1856 203 c 128,-1,6
 1846 190 1846 190 1826 174 c 128,-1,7
 1806 158 1806 158 1795 150 c 128,-1,8
 1784 142 1784 142 1761 127 c 128,-1,9
 1738 112 1738 112 1732 108 c 0,10,11
 1670 66 1670 66 1612 18 c 0,12,13
 1534 -44 1534 -44 1450 -68 c 0,14,15
 1352 -96 1352 -96 1298 -98 c 0,16,17
 1242 -100 1242 -100 1160 -76 c 0,18,19
 1082 -56 1082 -56 1035 -23 c 128,-1,20
 988 10 988 10 962 62 c 128,-1,21
 936 114 936 114 935 193 c 128,-1,22
 934 272 934 272 954 372 c 0,23,24
 972 474 972 474 1014 618 c 0,25,26
 1026 654 1026 654 1006 654 c 0,27,28
 952 654 952 654 796 462 c 128,-1,29
 640 270 640 270 554 102 c 0,30,31
 494 -14 494 -14 454 -38 c 128,-1,32
 414 -62 414 -62 364 -14 c 0,33,34
 322 24 322 24 324 59 c 128,-1,35
 326 94 326 94 376 208 c 0,36,37
 418 292 418 292 418 324 c 0,38,39
 418 352 418 352 460 440 c 1,40,41
 488 540 488 540 478 546 c 0,42,43
 456 546 456 546 391 475 c 128,-1,44
 326 404 326 404 255 305 c 128,-1,45
 184 206 184 206 148 138 c 0,46,47
 92 34 92 34 46 6 c 128,-1,48
 0 -22 0 -22 -46 18 c 0,49,50
 -90 58 -90 58 -80 117 c 128,-1,51
 -70 176 -70 176 0 310 c 0,52,53
 20 352 20 352 39 433 c 128,-1,54
 58 514 58 514 76 548 c 0,55,56
 142 690 142 690 220 750 c 0,57,58
 238 764 238 764 258 775 c 128,-1,59
 278 786 278 786 299 789 c 128,-1,60
 320 792 320 792 327 776 c 128,-1,61
 334 760 334 760 326 722 c 0,62,63
 308 660 308 660 340 666 c 0,64,65
 364 668 364 668 396 720 c 0,66,67
 442 790 442 790 504 834 c 0,68,69
 528 850 528 850 544 858 c 0,70,71
 564 866 564 866 570 868 c 0,72,73
 580 874 580 874 598 872 c 128,-1,74
 616 870 616 870 624 868 c 0,75,76
 632 868 632 868 656 860 c 0,77,78
 682 852 682 852 696 850 c 0,79,80
 752 838 752 838 752 818 c 0,81,82
 756 814 756 814 758 758 c 0,83,84
 762 732 762 732 768 720 c 128,-1,85
 774 708 774 708 792 709 c 128,-1,86
 810 710 810 710 836 723 c 128,-1,87
 862 736 862 736 914 770 c 0,88,89
 1034 846 1034 846 1120 858 c 0,90,91
 1184 864 1184 864 1200 855 c 128,-1,92
 1216 846 1216 846 1234 808 c 0,93,94
 1258 746 1258 746 1244 650 c 128,-1,95
 1230 554 1230 554 1192 470 c 0,96,97
 1148 386 1148 386 1148 342 c 0,98,99
 1148 306 1148 306 1126 236 c 0,100,101
 1104 176 1104 176 1133 124 c 128,-1,102
 1162 72 1162 72 1224 60 c 0,103,104
 1260 54 1260 54 1318 66 c 0,105,106
 1334 70 1334 70 1512 146 c 1,107,108
 1549 168 l 0,109,110
 1586 190 1586 190 1629 215 c 128,-1,111
 1672 240 1672 240 1714 266 c 128,-1,112
 1756 292 1756 292 1770 304 c 0,0,1
EndSplineSet
EndChar

StartChar: n
Encoding: 110 110 82
Width: 1405
GlyphClass: 2
Flags: MW
LayerCount: 2
Fore
SplineSet
-82 276 m 0,0,1
 -50 330 -50 330 42 523 c 128,-1,2
 134 716 134 716 200 794 c 0,3,4
 210 808 210 808 222 820 c 0,5,6
 246 846 246 846 288 859 c 128,-1,7
 330 872 330 872 364 856 c 0,8,9
 376 848 376 848 381 814 c 128,-1,10
 386 780 386 780 396 778 c 0,11,12
 410 776 410 776 464 814 c 0,13,14
 556 878 556 878 754 920 c 0,15,16
 834 940 834 940 858 936 c 128,-1,17
 882 932 882 932 918 900 c 0,18,19
 964 854 964 854 966 788 c 128,-1,20
 968 722 968 722 922 664 c 0,21,22
 888 614 888 614 834 466 c 128,-1,23
 780 318 780 318 780 262 c 0,24,25
 780 222 780 222 807 175 c 128,-1,26
 834 128 834 128 873 97 c 128,-1,27
 912 66 912 66 944 66 c 0,28,29
 992 66 992 66 1146 146 c 128,-1,30
 1300 226 1300 226 1388 298 c 0,31,32
 1454 348 1454 348 1482 345 c 128,-1,33
 1510 342 1510 342 1510 286 c 0,34,35
 1510 262 1510 262 1489 231 c 128,-1,36
 1468 200 1468 200 1434 166 c 0,37,38
 1398 134 1398 134 1350 101 c 128,-1,39
 1302 68 1302 68 1252 48 c 0,40,41
 1120 -14 1120 -14 1062 -42 c 0,42,43
 962 -88 962 -88 885 -68 c 128,-1,44
 808 -48 808 -48 704 56 c 0,45,46
 620 140 620 140 605 171 c 128,-1,47
 590 202 590 202 590 290 c 0,48,49
 590 418 590 418 636 556 c 0,50,51
 676 694 676 694 668 706 c 0,52,53
 656 718 656 718 506 577 c 128,-1,54
 356 436 356 436 212 279 c 128,-1,55
 68 122 68 122 68 98 c 0,56,57
 68 78 68 78 43 54 c 128,-1,58
 18 30 18 30 -18 15 c 128,-1,59
 -54 0 -54 0 -82 6 c 0,60,61
 -128 12 -128 12 -146 78 c 0,62,63
 -160 122 -160 122 -150 156 c 128,-1,64
 -140 190 -140 190 -82 276 c 0,0,1
EndSplineSet
EndChar

StartChar: o
Encoding: 111 111 83
Width: 1087
GlyphClass: 2
Flags: MW
LayerCount: 2
Fore
SplineSet
1170 384 m 0,0,1
 1200 368 1200 368 1200 314 c 0,2,3
 1202 252 1202 252 1130 198 c 0,4,5
 1104 180 1104 180 1070 162 c 0,6,7
 1064 160 1064 160 1056 154 c 0,8,9
 1028 138 1028 138 1008 136 c 0,10,11
 948 132 948 132 892 184 c 0,12,13
 878 196 878 196 862 226 c 2,14,-1
 856 236 l 2,15,16
 838 266 838 266 822 274 c 128,-1,17
 806 282 806 282 782 270 c 0,18,19
 752 254 752 254 714 172 c 0,20,21
 696 130 696 130 684 114 c 0,22,23
 646 58 646 58 618 50 c 0,24,25
 582 32 582 32 520 -6 c 0,26,27
 444 -52 444 -52 376 -56 c 0,28,29
 298 -62 298 -62 260 -72 c 0,30,31
 250 -74 250 -74 240 -74 c 0,32,33
 218 -74 218 -74 202 -66 c 0,34,35
 178 -56 178 -56 132 -12 c 0,36,37
 82 34 82 34 64 69 c 128,-1,38
 46 104 46 104 28 192 c 0,39,40
 -2 336 -2 336 14 423 c 128,-1,41
 30 510 30 510 102 626 c 0,42,43
 194 774 194 774 276 840 c 256,44,45
 358 906 358 906 478 934 c 0,46,47
 536 946 536 946 580 976 c 0,48,49
 650 1022 650 1022 704 1010 c 0,50,51
 756 1000 756 1000 824 928 c 0,52,53
 860 888 860 888 876 864 c 128,-1,54
 892 840 892 840 898 818 c 128,-1,55
 904 796 904 796 904 754 c 0,56,57
 904 576 904 576 916 478 c 0,58,59
 922 420 922 420 943 389 c 128,-1,60
 964 358 964 358 1016 314 c 1,61,-1
 1022 318 l 2,62,63
 1058 342 1058 342 1074 356 c 0,64,65
 1134 402 1134 402 1170 384 c 0,0,1
708 728 m 0,66,67
 708 806 708 806 692 814 c 0,68,69
 688 810 688 810 684 804 c 0,70,71
 674 786 674 786 686 722 c 0,72,73
 694 676 694 676 702 664 c 1,74,75
 708 680 708 680 708 728 c 0,66,67
650 420 m 0,76,77
 658 466 658 466 648 486 c 0,78,79
 640 506 640 506 598 548 c 0,80,81
 532 612 532 612 532 654 c 0,82,83
 532 682 532 682 514 720 c 128,-1,84
 496 758 496 758 478 770 c 0,85,86
 464 780 464 780 454 780 c 0,87,88
 446 780 446 780 440 776 c 0,89,90
 420 766 420 766 358 702 c 0,91,92
 304 648 304 648 257 564 c 128,-1,93
 210 480 210 480 188 406 c 0,94,95
 166 336 166 336 180 304 c 0,96,97
 196 274 196 274 198 202 c 0,98,99
 204 148 204 148 214 122 c 0,100,101
 224 100 224 100 244 92 c 0,102,103
 266 82 266 82 316 82 c 0,104,105
 340 82 340 82 356 84 c 0,106,107
 372 84 372 84 386 88 c 256,108,109
 400 92 400 92 412 98 c 0,110,111
 426 106 426 106 440 116 c 256,112,113
 454 126 454 126 474 142 c 0,114,115
 550 202 550 202 560 238 c 0,116,117
 572 276 572 276 608 318 c 0,118,119
 640 352 640 352 650 420 c 0,76,77
EndSplineSet
EndChar

StartChar: p
Encoding: 112 112 84
Width: 1103
GlyphClass: 2
Flags: MW
LayerCount: 2
Fore
SplineSet
1154 290 m 0,0,1
 1198 326 1198 326 1231 319 c 128,-1,2
 1264 312 1264 312 1264 256 c 0,3,4
 1264 238 1264 238 1256 220 c 128,-1,5
 1248 202 1248 202 1238 189 c 128,-1,6
 1228 176 1228 176 1208 159 c 128,-1,7
 1188 142 1188 142 1177 134 c 128,-1,8
 1166 126 1166 126 1143 111 c 128,-1,9
 1120 96 1120 96 1114 92 c 0,10,11
 1068 60 1068 60 1016 40 c 0,12,13
 978 22 978 22 877 2 c 128,-1,14
 776 -18 776 -18 718 -18 c 0,15,16
 670 -18 670 -18 584 15 c 128,-1,17
 498 48 498 48 437 76 c 128,-1,18
 376 104 376 104 376 98 c 2,19,20
 362 98 l 0,21,22
 348 98 348 98 331 100 c 128,-1,23
 314 102 314 102 282 81 c 128,-1,24
 250 60 250 60 216 16 c 0,25,26
 166 -46 166 -46 126 -153 c 128,-1,27
 86 -260 86 -260 70 -288 c 0,28,29
 50 -328 50 -328 29 -380 c 128,-1,30
 8 -432 8 -432 -12 -468 c 128,-1,31
 -32 -504 -32 -504 -66 -544 c 0,32,33
 -96 -580 -96 -580 -113 -588 c 128,-1,34
 -130 -596 -130 -596 -170 -580 c 0,35,36
 -218 -562 -218 -562 -239 -487 c 128,-1,37
 -260 -412 -260 -412 -246 -356 c 0,38,39
 -238 -322 -238 -322 -199 -265 c 128,-1,40
 -160 -208 -160 -208 -150 -182 c 0,41,42
 -138 -150 -138 -150 -124 -86 c 128,-1,43
 -110 -22 -110 -22 -100 4 c 0,44,45
 -86 46 -86 46 -48 123 c 128,-1,46
 -10 200 -10 200 4 238 c 0,47,48
 24 294 24 294 33 376 c 128,-1,49
 42 458 42 458 55 532 c 128,-1,50
 68 606 68 606 102 664 c 0,51,52
 106 672 106 672 114 687 c 128,-1,53
 122 702 122 702 129 715 c 128,-1,54
 136 728 136 728 146 745 c 128,-1,55
 156 762 156 762 165 775 c 128,-1,56
 174 788 174 788 185 804 c 128,-1,57
 196 820 196 820 207 832 c 128,-1,58
 218 844 218 844 230 855 c 128,-1,59
 242 866 242 866 255 874 c 128,-1,60
 268 882 268 882 280 886 c 0,61,62
 352 906 352 906 384 859 c 128,-1,63
 416 812 416 812 380 754 c 0,64,65
 328 668 328 668 358 674 c 0,66,67
 388 684 388 684 456 752 c 0,68,69
 536 832 536 832 606 874 c 128,-1,70
 676 916 676 916 768 932 c 0,71,72
 856 948 856 948 860 954 c 0,73,74
 868 956 868 956 876 944 c 128,-1,75
 884 932 884 932 892 910 c 0,76,77
 898 888 898 888 904 860 c 0,78,79
 908 830 908 830 912 800 c 256,80,81
 916 770 916 770 916 742 c 0,82,83
 914 464 914 464 836 380 c 0,84,85
 788 330 788 330 762 284 c 0,86,87
 754 266 754 266 743 260 c 128,-1,88
 732 254 732 254 725 255 c 128,-1,89
 718 256 718 256 704 252 c 128,-1,90
 690 248 690 248 680 232 c 0,91,92
 652 202 652 202 620 202 c 0,93,94
 594 200 594 200 553 175 c 128,-1,95
 512 150 512 150 512 134 c 0,96,97
 512 128 512 128 533 118 c 128,-1,98
 554 108 554 108 584 99 c 128,-1,99
 614 90 614 90 646 84 c 128,-1,100
 678 78 678 78 700 78 c 0,101,102
 734 78 734 78 782 88 c 0,103,104
 800 96 800 96 826 105 c 128,-1,105
 852 114 852 114 874 122 c 128,-1,106
 896 130 896 130 910 138 c 0,107,108
 1064 218 1064 218 1154 290 c 0,0,1
396 301 m 128,-1,110
 424 266 424 266 450 266 c 0,111,112
 496 266 496 266 592 349 c 128,-1,113
 688 432 688 432 712 488 c 0,114,115
 738 552 738 552 741 628 c 128,-1,116
 744 704 744 704 720 748 c 0,117,118
 696 790 696 790 673 783 c 128,-1,119
 650 776 650 776 570 698 c 0,120,121
 494 630 494 630 429 526 c 128,-1,122
 364 422 364 422 364 374 c 0,123,109
 368 336 368 336 396 301 c 128,-1,110
EndSplineSet
EndChar

StartChar: q
Encoding: 113 113 85
Width: 1317
GlyphClass: 2
Flags: MW
LayerCount: 2
Fore
SplineSet
1378 306 m 0,0,1
 1422 344 1422 344 1455 337 c 128,-1,2
 1488 330 1488 330 1488 272 c 0,3,4
 1490 256 1490 256 1481 238 c 128,-1,5
 1472 220 1472 220 1462 207 c 128,-1,6
 1452 194 1452 194 1433 177 c 128,-1,7
 1414 160 1414 160 1402 152 c 128,-1,8
 1390 144 1390 144 1367 129 c 128,-1,9
 1344 114 1344 114 1340 110 c 0,10,11
 1292 78 1292 78 1242 58 c 0,12,13
 1238 54 1238 54 1228 50 c 128,-1,14
 1218 46 1218 46 1209 40 c 128,-1,15
 1200 34 1200 34 1185 26 c 128,-1,16
 1170 18 1170 18 1158 12 c 0,17,18
 1158 8 1158 8 1111 -16 c 128,-1,19
 1064 -40 1064 -40 1046 -44 c 0,20,21
 1010 -58 1010 -58 984 -70 c 0,22,23
 958 -80 958 -80 948 -90 c 128,-1,24
 938 -100 938 -100 940 -110 c 0,25,26
 972 -224 972 -224 949 -394 c 128,-1,27
 926 -564 926 -564 856 -706 c 0,28,29
 812 -800 812 -800 728 -861 c 128,-1,30
 644 -922 644 -922 542 -934 c 0,31,32
 466 -946 466 -946 437 -938 c 128,-1,33
 408 -930 408 -930 368 -898 c 0,34,35
 326 -860 326 -860 319 -829 c 128,-1,36
 312 -798 312 -798 312 -688 c 0,37,38
 312 -528 312 -528 335 -486 c 128,-1,39
 358 -444 358 -444 358 -406 c 0,40,41
 358 -358 358 -358 398 -272 c 0,42,43
 440 -168 440 -168 462 -24 c 0,44,45
 462 -22 462 -22 452 -22 c 128,-1,46
 442 -22 442 -22 426 -22 c 128,-1,47
 410 -22 410 -22 395 -23 c 128,-1,48
 380 -24 380 -24 367 -24 c 128,-1,49
 354 -24 354 -24 352 -24 c 0,50,51
 282 -26 282 -26 236 -4 c 0,52,53
 188 20 188 20 126 102 c 0,54,55
 98 138 98 138 92 162 c 0,56,57
 88 170 88 170 87 179 c 128,-1,58
 86 188 86 188 86 199 c 128,-1,59
 86 210 86 210 87 218 c 128,-1,60
 88 226 88 226 91 239 c 128,-1,61
 94 252 94 252 95 258 c 128,-1,62
 96 264 96 264 100 278 c 128,-1,63
 104 292 104 292 106 297 c 128,-1,64
 108 302 108 302 113 317 c 128,-1,65
 118 332 118 332 118 334 c 0,66,67
 144 410 144 410 174 448 c 0,68,69
 182 458 182 458 194 472 c 128,-1,70
 206 486 206 486 215 496 c 128,-1,71
 224 506 224 506 234 520 c 128,-1,72
 244 534 244 534 248 548 c 0,73,74
 270 610 270 610 352 690 c 0,75,76
 454 790 454 790 486 790 c 0,77,78
 516 790 516 790 566 832 c 0,79,80
 608 870 608 870 690 888 c 0,81,82
 768 900 768 900 786 906 c 0,83,84
 828 920 828 920 877 913 c 128,-1,85
 926 906 926 906 944 884 c 0,86,87
 970 852 970 852 997 852 c 128,-1,88
 1024 852 1024 852 1046 810 c 0,89,90
 1062 784 1062 784 1056 753 c 128,-1,91
 1050 722 1050 722 1018 656 c 0,92,93
 982 588 982 588 974 572 c 0,94,95
 968 564 968 564 957 550 c 128,-1,96
 946 536 946 536 938 523 c 128,-1,97
 930 510 930 510 926 498 c 128,-1,98
 922 486 922 486 922 461 c 128,-1,99
 922 436 922 436 922 434 c 0,100,101
 918 402 918 402 886 326 c 128,-1,102
 854 250 854 250 864 200 c 0,103,104
 868 176 868 176 855 148 c 128,-1,105
 842 120 842 120 842 106 c 0,106,107
 840 76 840 76 898 88 c 0,108,109
 922 92 922 92 972 108 c 0,110,111
 1050 134 1050 134 1062 128 c 1,112,113
 1118 146 1118 146 1136 156 c 0,114,115
 1290 236 1290 236 1378 306 c 0,0,1
456 230 m 0,116,117
 480 238 480 238 565 342 c 128,-1,118
 650 446 650 446 682 508 c 0,119,120
 718 576 718 576 706 612 c 0,121,122
 690 644 690 644 668 644 c 0,123,124
 632 644 632 644 563 597 c 128,-1,125
 494 550 494 550 456 494 c 0,126,127
 352 356 352 356 334 226 c 0,128,129
 326 164 326 164 356 166 c 0,130,131
 370 170 370 170 394 188 c 0,132,133
 436 224 436 224 456 230 c 0,116,117
694 -570 m 128,-1,135
 742 -468 742 -468 742 -302 c 0,136,137
 744 -174 744 -174 718 -148 c 0,138,139
 696 -126 696 -126 682 -160 c 0,140,141
 668 -188 668 -188 620 -338 c 0,142,143
 614 -362 614 -362 600 -400 c 0,144,145
 586 -440 586 -440 576 -470 c 256,146,147
 566 -500 566 -500 564 -516 c 0,148,149
 528 -620 528 -620 529 -646 c 128,-1,150
 530 -672 530 -672 570 -672 c 0,151,134
 646 -672 646 -672 694 -570 c 128,-1,135
EndSplineSet
EndChar

StartChar: r
Encoding: 114 114 86
Width: 1245
GlyphClass: 2
Flags: MW
LayerCount: 2
Fore
SplineSet
1280 324 m 0,0,1
 1322 362 1322 362 1355 355 c 128,-1,2
 1388 348 1388 348 1390 292 c 0,3,4
 1390 276 1390 276 1385 261 c 128,-1,5
 1380 246 1380 246 1369 233 c 128,-1,6
 1358 220 1358 220 1347 208 c 128,-1,7
 1336 196 1336 196 1320 184 c 128,-1,8
 1304 172 1304 172 1293 164 c 128,-1,9
 1282 156 1282 156 1264 145 c 128,-1,10
 1246 134 1246 134 1240 128 c 0,11,12
 1192 96 1192 96 1142 76 c 0,13,14
 1138 74 1138 74 1130 70 c 0,15,16
 1126 60 1126 60 1114 54 c 256,17,18
 1102 48 1102 48 1078 42 c 0,19,20
 1032 16 1032 16 942 6 c 128,-1,21
 852 -4 852 -4 778 1 c 128,-1,22
 704 6 704 6 682 18 c 0,23,24
 664 30 664 30 642 68 c 128,-1,25
 620 106 620 106 604 144 c 128,-1,26
 588 182 588 182 584 202 c 0,27,28
 570 260 570 260 574 326 c 0,29,30
 580 394 580 394 596 538 c 1,31,-1
 596 566 l 2,32,33
 596 576 596 576 589 581 c 128,-1,34
 582 586 582 586 570 588 c 0,35,36
 558 588 558 588 538 588 c 0,37,38
 514 588 514 588 484 596 c 128,-1,39
 454 604 454 604 425 611 c 128,-1,40
 396 618 396 618 374 618 c 1,41,42
 376 618 376 618 360 555 c 128,-1,43
 344 492 344 492 319 422 c 128,-1,44
 294 352 294 352 274 340 c 0,45,46
 202 298 202 298 122 280 c 0,47,48
 18 256 18 256 216 734 c 0,49,50
 220 746 220 746 236 784 c 128,-1,51
 252 822 252 822 258 837 c 128,-1,52
 264 852 264 852 277 885 c 128,-1,53
 290 918 290 918 296 939 c 128,-1,54
 302 960 302 960 309 990 c 128,-1,55
 316 1020 316 1020 319 1047 c 128,-1,56
 322 1074 322 1074 322 1102 c 0,57,58
 322 1134 322 1134 363 1216 c 128,-1,59
 404 1298 404 1298 428 1316 c 0,60,61
 460 1334 460 1334 515 1329 c 128,-1,62
 570 1324 570 1324 588 1304 c 0,63,64
 612 1274 612 1274 588 1072 c 0,65,66
 570 940 570 940 572 902 c 0,67,68
 574 862 574 862 594 838 c 0,69,70
 618 818 618 818 636 819 c 128,-1,71
 654 820 654 820 704 850 c 0,72,73
 778 892 778 892 811 890 c 128,-1,74
 844 888 844 888 872 844 c 0,75,76
 894 812 894 812 892 786 c 128,-1,77
 890 760 890 760 862 686 c 0,78,79
 822 580 822 580 790 444 c 0,80,81
 766 336 766 336 775 284 c 128,-1,82
 784 232 784 232 840 162 c 0,83,84
 864 128 864 128 878 124 c 0,85,86
 884 122 884 122 899 127 c 128,-1,87
 914 132 914 132 931 139 c 128,-1,88
 948 146 948 146 954 148 c 0,89,90
 1016 164 1016 164 1036 174 c 0,91,92
 1190 254 1190 254 1280 324 c 0,0,1
EndSplineSet
Substitution2: "'aalt' Access All Alternates lookup 0 subtable" r.alt1
EndChar

StartChar: s
Encoding: 115 115 87
Width: 1011
GlyphClass: 2
Flags: MW
LayerCount: 2
Fore
SplineSet
1030 378 m 0,0,1
 1074 416 1074 416 1107 409 c 128,-1,2
 1140 402 1140 402 1140 344 c 0,3,4
 1140 332 1140 332 1136 318 c 128,-1,5
 1132 304 1132 304 1125 293 c 128,-1,6
 1118 282 1118 282 1107 270 c 128,-1,7
 1096 258 1096 258 1085 249 c 128,-1,8
 1074 240 1074 240 1060 230 c 128,-1,9
 1046 220 1046 220 1036 213 c 128,-1,10
 1026 206 1026 206 1012 196 c 128,-1,11
 998 186 998 186 992 182 c 0,12,13
 944 150 944 150 892 128 c 0,14,15
 888 126 888 126 872 118 c 0,16,17
 818 62 818 62 776 42 c 0,18,19
 736 26 736 26 670 22 c 1,20,21
 602 2 602 2 576 26 c 0,22,23
 568 26 568 26 529 30 c 128,-1,24
 490 34 490 34 476 35 c 128,-1,25
 462 36 462 36 433 36 c 128,-1,26
 404 36 404 36 383 30 c 128,-1,27
 362 24 362 24 342 14 c 0,28,29
 316 -2 316 -2 276 0 c 128,-1,30
 236 2 236 2 138 16 c 0,31,32
 68 26 68 26 20 30 c 0,33,34
 10 30 10 30 -2 30 c 128,-1,35
 -14 30 -14 30 -28 31 c 128,-1,36
 -42 32 -42 32 -50 38 c 0,37,38
 -72 52 -72 52 -104 146 c 0,39,40
 -122 200 -122 200 -126 258 c 0,41,42
 -130 282 -130 282 -126 296 c 0,43,44
 -116 346 -116 346 -94 358 c 0,45,46
 -86 362 -86 362 -64 366 c 128,-1,47
 -42 370 -42 370 -32 380 c 0,48,49
 -14 394 -14 394 -2 426 c 0,50,51
 10 460 10 460 12 496 c 0,52,53
 14 528 14 528 18 538 c 0,54,55
 26 550 26 550 49 564 c 128,-1,56
 72 578 72 578 74 580 c 0,57,58
 98 600 98 600 116 634 c 0,59,60
 124 652 124 652 148 746 c 0,61,62
 170 820 170 820 184 898 c 0,63,64
 198 974 198 974 204 1028 c 0,65,66
 214 1152 214 1152 231 1174 c 128,-1,67
 248 1196 248 1196 295 1195 c 128,-1,68
 342 1194 342 1194 376 1168 c 0,69,70
 392 1158 392 1158 405 1135 c 128,-1,71
 418 1112 418 1112 424 1094 c 128,-1,72
 430 1076 430 1076 439 1044 c 128,-1,73
 448 1012 448 1012 452 1002 c 0,74,75
 488 894 488 894 504 802 c 0,76,77
 510 766 510 766 518 697 c 128,-1,78
 526 628 526 628 536 572 c 128,-1,79
 546 516 546 516 564 468 c 0,80,81
 596 380 596 380 586 310 c 0,82,83
 580 266 580 266 580 228 c 128,-1,84
 580 190 580 190 605 166 c 128,-1,85
 630 142 630 142 682 146 c 0,86,87
 704 148 704 148 726 156 c 128,-1,88
 748 164 748 164 763 172 c 128,-1,89
 778 180 778 180 801 198 c 128,-1,90
 824 216 824 216 832 223 c 128,-1,91
 840 230 840 230 866 254 c 0,92,93
 896 282 896 282 959 327 c 128,-1,94
 1022 372 1022 372 1030 378 c 0,0,1
406 331 m 128,-1,96
 422 400 422 400 372 554 c 0,97,98
 322 700 322 700 310 700 c 0,99,100
 296 700 296 700 286 644 c 0,101,102
 274 592 274 592 256 568 c 0,103,104
 232 534 232 534 180 423 c 128,-1,105
 128 312 128 312 136 300 c 0,106,107
 146 286 146 286 176 270 c 128,-1,108
 206 254 206 254 241 246 c 128,-1,109
 276 238 276 238 300 242 c 0,110,95
 390 262 390 262 406 331 c 128,-1,96
EndSplineSet
Substitution2: "'aalt' Access All Alternates lookup 0 subtable" s.alt1
EndChar

StartChar: t
Encoding: 116 116 88
Width: 987
GlyphClass: 2
Flags: MW
LayerCount: 2
Fore
SplineSet
1014 242 m 0,0,1
 1060 274 1060 274 1092 263 c 128,-1,2
 1124 252 1124 252 1120 196 c 0,3,4
 1118 182 1118 182 1111 167 c 128,-1,5
 1104 152 1104 152 1092 140 c 128,-1,6
 1080 128 1080 128 1069 118 c 128,-1,7
 1058 108 1058 108 1040 97 c 128,-1,8
 1022 86 1022 86 1010 80 c 128,-1,9
 998 74 998 74 979 64 c 128,-1,10
 960 54 960 54 954 50 c 0,11,12
 904 24 904 24 850 8 c 0,13,14
 848 6 848 6 801 -23 c 128,-1,15
 754 -52 754 -52 694 -87 c 128,-1,16
 634 -122 634 -122 596 -134 c 0,17,18
 544 -152 544 -152 488 -162 c 128,-1,19
 432 -172 432 -172 370 -175 c 128,-1,20
 308 -178 308 -178 251 -162 c 128,-1,21
 194 -146 194 -146 156 -114 c 0,22,23
 110 -72 110 -72 81 1 c 128,-1,24
 52 74 52 74 43 159 c 128,-1,25
 34 244 34 244 34 318 c 128,-1,26
 34 392 34 392 40 460 c 0,27,28
 42 470 42 470 63 631 c 128,-1,29
 84 792 84 792 103 947 c 0,30,-1
 122 1102 l 1,31,32
 98 1116 98 1116 32 1122 c 0,33,34
 -8 1124 -8 1124 -50 1122 c 0,35,36
 -148 1122 -148 1122 -188 1128 c 0,37,38
 -196 1130 -196 1130 -211 1130 c 128,-1,39
 -226 1130 -226 1130 -241 1130 c 128,-1,40
 -256 1130 -256 1130 -271 1130 c 128,-1,41
 -286 1130 -286 1130 -295 1133 c 128,-1,42
 -304 1136 -304 1136 -306 1142 c 0,43,44
 -310 1174 -310 1174 -280 1188 c 0,45,46
 -278 1190 -278 1190 -253 1205 c 128,-1,47
 -228 1220 -228 1220 -201 1234 c 128,-1,48
 -174 1248 -174 1248 -128 1259 c 128,-1,49
 -82 1270 -82 1270 -34 1268 c 0,50,51
 116 1254 116 1254 153 1259 c 128,-1,52
 190 1264 190 1264 226 1302 c 0,53,54
 280 1352 280 1352 370 1564 c 0,55,56
 374 1572 374 1572 382 1588 c 0,57,58
 416 1668 416 1668 438 1714 c 128,-1,59
 460 1760 460 1760 500 1831 c 128,-1,60
 540 1902 540 1902 588 1950 c 128,-1,61
 636 1998 636 1998 688 2024 c 0,62,63
 856 2104 856 2104 856 2014 c 0,64,65
 856 1962 856 1962 778 1780 c 0,66,67
 756 1730 756 1730 746 1702 c 0,68,69
 734 1666 734 1666 726 1616 c 128,-1,70
 718 1566 718 1566 688 1516 c 0,71,72
 640 1432 640 1432 608 1374 c 0,73,74
 570 1306 570 1306 580 1294 c 0,75,76
 590 1278 590 1278 782 1258 c 0,77,78
 916 1244 916 1244 945 1234 c 128,-1,79
 974 1224 974 1224 970 1196 c 0,80,81
 966 1158 966 1158 926 1164 c 0,82,83
 910 1166 910 1166 862 1166 c 0,84,85
 814 1164 814 1164 754 1160 c 256,86,87
 694 1156 694 1156 630 1148 c 0,88,89
 568 1140 568 1140 526 1136 c 0,90,91
 504 1132 504 1132 468 1008 c 128,-1,92
 432 884 432 884 389 707 c 128,-1,93
 346 530 346 530 326 470 c 0,94,95
 224 164 224 164 352 50 c 0,96,97
 410 -2 410 -2 460 0 c 0,98,99
 490 0 490 0 526 22 c 0,100,101
 532 30 532 30 567 46 c 128,-1,102
 602 62 602 62 639 75 c 128,-1,103
 676 88 676 88 715 102 c 128,-1,104
 754 116 754 116 756 116 c 0,105,106
 916 180 916 180 1014 242 c 0,0,1
EndSplineSet
EndChar

